<svg width="73" height="73" viewBox="0 0 73 73" fill="none" xmlns="http://www.w3.org/2000/svg">
<path d="M54.75 15.2084H57.7916V18.25C57.7916 19.0567 58.1121 19.8304 58.6825 20.4008C59.2529 20.9712 60.0266 21.2917 60.8333 21.2917C61.64 21.2917 62.4137 20.9712 62.9841 20.4008C63.5545 19.8304 63.875 19.0567 63.875 18.25V15.2084H66.9166C67.7233 15.2084 68.497 14.8879 69.0674 14.3175C69.6379 13.747 69.9583 12.9734 69.9583 12.1667C69.9583 11.36 69.6379 10.5863 69.0674 10.0159C68.497 9.44548 67.7233 9.12502 66.9166 9.12502H63.875V6.08335C63.875 5.27665 63.5545 4.50299 62.9841 3.93257C62.4137 3.36214 61.64 3.04168 60.8333 3.04168C60.0266 3.04168 59.2529 3.36214 58.6825 3.93257C58.1121 4.50299 57.7916 5.27665 57.7916 6.08335V9.12502H54.75C53.9433 9.12502 53.1696 9.44548 52.5992 10.0159C52.0288 10.5863 51.7083 11.36 51.7083 12.1667C51.7083 12.9734 52.0288 13.747 52.5992 14.3175C53.1696 14.8879 53.9433 15.2084 54.75 15.2084ZM21.2916 21.2917V51.7084C21.2916 52.5151 21.6121 53.2887 22.1825 53.8591C22.7529 54.4296 23.5266 54.75 24.3333 54.75C25.14 54.75 25.9137 54.4296 26.4841 53.8591C27.0545 53.2887 27.375 52.5151 27.375 51.7084V21.2917C27.375 20.485 27.0545 19.7113 26.4841 19.1409C25.9137 18.5705 25.14 18.25 24.3333 18.25C23.5266 18.25 22.7529 18.5705 22.1825 19.1409C21.6121 19.7113 21.2916 20.485 21.2916 21.2917ZM65.7 27.375C65.3085 27.4548 64.9366 27.611 64.6054 27.8346C64.2743 28.0582 63.9905 28.3448 63.7702 28.6781C63.5499 29.0114 63.3974 29.3849 63.3214 29.7771C63.2454 30.1694 63.2475 30.5727 63.3275 30.9642C64.5151 36.7318 63.8112 42.7286 61.3203 48.0645C58.8295 53.4004 54.6844 57.7908 49.5005 60.5841C44.3165 63.3774 38.37 64.4247 32.5437 63.5704C26.7174 62.7162 21.3218 60.006 17.1579 55.8421C12.994 51.6782 10.2838 46.2826 9.42955 40.4563C8.57529 34.63 9.62254 28.6835 12.4158 23.4995C15.2092 18.3156 19.5996 14.1705 24.9355 11.6797C30.2713 9.18881 36.2682 8.48493 42.0358 9.67252C42.8425 9.83386 43.6803 9.66813 44.3648 9.21179C45.0493 8.75545 45.5245 8.04589 45.6858 7.23918C45.8471 6.43248 45.6814 5.59473 45.2251 4.91022C44.7687 4.22572 44.0592 3.75052 43.2525 3.58918C41.0265 3.17446 38.7637 2.99098 36.5 3.04168C29.8825 3.04168 23.4137 5.00398 17.9115 8.68043C12.4093 12.3569 8.12089 17.5824 5.58851 23.6961C3.05612 29.8098 2.39354 36.5371 3.68453 43.0274C4.97553 49.5177 8.16213 55.4794 12.8414 60.1586C17.5206 64.8379 23.4823 68.0245 29.9726 69.3155C36.4629 70.6065 43.1902 69.9439 49.3039 67.4115C55.4176 64.8791 60.6431 60.5907 64.3196 55.0885C67.996 49.5863 69.9583 43.1175 69.9583 36.5C69.9648 34.2524 69.7405 32.0101 69.2891 29.8084C69.2163 29.4114 69.0652 29.0329 68.8446 28.6949C68.624 28.357 68.3383 28.0663 68.0043 27.8398C67.6702 27.6133 67.2945 27.4556 66.8989 27.3758C66.5032 27.296 66.0957 27.2957 65.7 27.375ZM33.4583 27.375V30.4167C33.4717 32.6677 34.3167 34.8343 35.8308 36.5C34.3167 38.1657 33.4717 40.3324 33.4583 42.5834V45.625C33.4583 48.0451 34.4197 50.3661 36.131 52.0774C37.8422 53.7886 40.1632 54.75 42.5833 54.75H45.625C48.0451 54.75 50.3661 53.7886 52.0773 52.0774C53.7886 50.3661 54.75 48.0451 54.75 45.625V42.5834C54.7366 40.3324 53.8916 38.1657 52.3775 36.5C53.8916 34.8343 54.7366 32.6677 54.75 30.4167V27.375C54.75 24.9549 53.7886 22.6339 52.0773 20.9227C50.3661 19.2114 48.0451 18.25 45.625 18.25H42.5833C40.1632 18.25 37.8422 19.2114 36.131 20.9227C34.4197 22.6339 33.4583 24.9549 33.4583 27.375ZM48.6666 45.625C48.6666 46.4317 48.3462 47.2054 47.7758 47.7758C47.2053 48.3462 46.4317 48.6667 45.625 48.6667H42.5833C41.7766 48.6667 41.0029 48.3462 40.4325 47.7758C39.8621 47.2054 39.5416 46.4317 39.5416 45.625V42.5834C39.5416 41.7767 39.8621 41.003 40.4325 40.4326C41.0029 39.8621 41.7766 39.5417 42.5833 39.5417H45.625C46.4317 39.5417 47.2053 39.8621 47.7758 40.4326C48.3462 41.003 48.6666 41.7767 48.6666 42.5834V45.625ZM48.6666 27.375V30.4167C48.6666 31.2234 48.3462 31.997 47.7758 32.5675C47.2053 33.1379 46.4317 33.4584 45.625 33.4584H42.5833C41.7766 33.4584 41.0029 33.1379 40.4325 32.5675C39.8621 31.997 39.5416 31.2234 39.5416 30.4167V27.375C39.5416 26.5683 39.8621 25.7947 40.4325 25.2242C41.0029 24.6538 41.7766 24.3334 42.5833 24.3334H45.625C46.4317 24.3334 47.2053 24.6538 47.7758 25.2242C48.3462 25.7947 48.6666 26.5683 48.6666 27.375Z" fill="white"/>
</svg>
