<svg width="24" height="24" viewBox="0 0 24 24" fill="none" xmlns="http://www.w3.org/2000/svg">
<path d="M5.00011 9.86001C6.91997 14.0408 10.3313 17.3544 14.5661 19.152L15.2461 19.455C15.9991 19.7903 16.8464 19.8491 17.6385 19.621C18.4306 19.3929 19.1168 18.8925 19.5761 18.208L20.4651 16.884C20.6042 16.6764 20.6605 16.4242 20.623 16.1771C20.5854 15.93 20.4567 15.7059 20.2621 15.549L17.2501 13.119C17.1452 13.0344 17.0243 12.9719 16.8947 12.9353C16.765 12.8986 16.6293 12.8885 16.4956 12.9056C16.362 12.9227 16.2331 12.9666 16.1169 13.0347C16.0006 13.1028 15.8994 13.1938 15.8191 13.302L14.8871 14.559C12.4947 13.3774 10.5582 11.4406 9.37711 9.04801L10.6331 8.11601C10.7414 8.03577 10.8323 7.93448 10.9004 7.81823C10.9685 7.70198 11.0124 7.57316 11.0295 7.4395C11.0466 7.30585 11.0365 7.17012 10.9999 7.04046C10.9632 6.91081 10.9007 6.7899 10.8161 6.68501L8.38611 3.67301C8.22921 3.47846 8.00514 3.34972 7.75805 3.31215C7.51096 3.27458 7.25875 3.33089 7.05111 3.47001L5.71811 4.36401C5.02951 4.82579 4.5272 5.51702 4.30066 6.31457C4.07413 7.11213 4.13807 7.9642 4.48111 8.71901L5.00011 9.86001Z" fill="#434650"/>
</svg>
