<!-- icon666.com - MILLIONS vector ICONS FREE --><svg version="1.1" id="Layer_1" xmlns="http://www.w3.org/2000/svg" xmlns:xlink="http://www.w3.org/1999/xlink" x="0px" y="0px" viewBox="0 0 294.506 294.506" style="enable-background:new 0 0 294.506 294.506;" xml:space="preserve"><g><g><path d="M229.692,82.434c1.233-3.159,1.936-6.586,1.936-10.181V39.441h-9.375v28.125H208.19V39.441h-9.375v28.125h-14.063V39.441 V37.5L147.253,0l-39.98,39.98c-4.598-3.277-10.205-5.227-16.27-5.227c-15.511,0-28.125,12.614-28.125,28.125v9.375 c0,3.595,0.703,7.022,1.936,10.181L0,147.253l72.253,72.253v54.309c0,10.341,8.409,18.75,18.75,18.75s18.75-8.409,18.75-18.75 v-16.809l37.5,37.5l37.5-37.5v16.809c0,10.341,8.409,18.75,18.75,18.75s18.75-8.409,18.75-18.75v-54.309l72.253-72.253 L229.692,82.434z M198.817,76.941h9.374h13.397c-2.095,8.063-9.37,14.063-18.084,14.063c-8.714,0-15.989-6-18.084-14.063H198.817z M147.253,13.256l28.125,28.125v24.244L147.253,37.5l-28.125,28.125v-2.747c0-6.066-1.95-11.672-5.227-16.27L147.253,13.256z M72.253,62.878c0-10.341,8.409-18.75,18.75-18.75s18.75,8.409,18.75,18.75v9.375c0,10.341-8.409,18.75-18.75,18.75 s-18.75-8.409-18.75-18.75V62.878z M72.253,206.25l-58.997-58.997l56.559-56.559c3.909,4.486,9.197,7.725,15.211,9.033 L37.5,147.253l34.753,34.753V206.25z M50.756,147.253l35.559-35.559v68.372h-2.746L50.756,147.253z M100.378,210.132v37.5v26.184 c0,5.17-4.205,9.375-9.375,9.375s-9.375-4.205-9.375-9.375v-44.934v-20.691h18.75V210.132z M100.378,198.816h-18.75v-9.375h18.75 V198.816z M184.753,243.75l-37.5,37.5l-37.5-37.5v-24.244l37.5,37.5l37.5-37.5V243.75z M184.752,180.066v26.184l-37.5,37.5 l-37.5-37.5v-26.184H95.691v-77.747l3.047-3.047c9.295-2.667,16.617-9.989,19.284-19.284l29.231-29.231l29.231,29.231 c2.667,9.295,9.989,16.617,19.284,19.284l3.047,3.047v77.747H184.752z M212.878,228.882v44.934c0,5.17-4.205,9.375-9.375,9.375 c-5.17,0-9.375-4.205-9.375-9.375v-26.184v-37.5v-1.941h18.75V228.882z M212.878,198.816h-18.75v-9.375h18.75V198.816z M210.938,180.066h-2.747v-68.372l35.559,35.559L210.938,180.066z M222.253,182.006l34.753-34.753L209.48,99.727 c6.014-1.308,11.306-4.547,15.211-9.033l56.559,56.559l-58.997,58.997V182.006z" fill="#ffffff"></path></g></g></svg>