<!-- icon666.com - MILLIONS vector ICONS FREE --><svg version="1.1" id="Capa_1" xmlns="http://www.w3.org/2000/svg" xmlns:xlink="http://www.w3.org/1999/xlink" x="0px" y="0px" viewBox="0 0 512 512" style="enable-background:new 0 0 512 512;" xml:space="preserve"><path style="fill:#F16469;" d="M297.644,57.631v-5.833c0-22.999-18.645-41.644-41.644-41.644l0,0 c-22.999,0-41.644,18.645-41.644,41.644v5.833C118.459,85.996,46.238,210.395,46.238,359.573c0,14.072,0.656,27.917,1.9,41.488 H463.86c1.244-13.571,1.9-27.416,1.9-41.488C465.762,210.395,393.542,85.996,297.644,57.631z"></path><path style="fill:#E8344A;" d="M464.01,399.401c-0.049,0.554-0.099,1.107-0.149,1.66H48.139c-0.051-0.553-0.103-1.106-0.151-1.66 C23.941,409.72,10,421.886,10,435c0,36.886,110.148,66.846,246,66.846S502,471.886,502,435 C502,421.886,488.057,409.719,464.01,399.401z"></path><path d="M474.533,393.201c0.812-11.196,1.229-22.47,1.229-33.627c0-73.242-17.539-144.692-49.387-201.187 c-30.346-53.832-72.294-91.921-118.752-108.05C306.848,22.533,283.988,0.153,256,0.153s-50.848,22.38-51.623,50.184 c-46.458,16.129-88.406,54.218-118.752,108.05c-31.848,56.494-49.387,127.944-49.387,201.187c0,11.157,0.417,22.431,1.229,33.626 C12.604,405.122,0,419.164,0,435c0,23.103,27.467,42.78,79.433,56.905c47.309,12.859,110.015,19.941,176.567,19.941 s129.259-7.082,176.567-19.941C484.533,477.78,512,458.103,512,435C512,419.164,499.396,405.123,474.533,393.201z M217.192,67.22 c4.249-1.256,7.164-5.158,7.164-9.589v-5.833c0-17.449,14.195-31.645,31.644-31.645s31.644,14.195,31.644,31.645v5.833 c0,4.431,2.915,8.333,7.164,9.589c93.263,27.587,160.954,150.539,160.954,292.354c0,10.446-0.376,21.002-1.12,31.488H57.358 c-0.744-10.486-1.12-21.042-1.12-31.488C56.238,217.759,123.93,94.807,217.192,67.22z M427.321,472.605 c-45.646,12.408-106.49,19.241-171.321,19.241s-125.675-6.833-171.321-19.241C36.939,459.629,20,444.237,20,435 c0-7.235,9.868-16.053,26.688-24.043c0.053,0.008,0.108,0.005,0.16,0.012c0.424,0.055,0.852,0.093,1.29,0.093h415.723 c0.438,0,0.867-0.038,1.291-0.093c0.052-0.007,0.107-0.004,0.159-0.011C482.132,418.947,492,427.766,492,435 C492,444.237,475.06,459.629,427.321,472.605z"></path><path d="M256,469.939c-52.867,0-104.558-4.835-145.549-13.615c-5.392-1.154-10.646-2.39-15.618-3.67 c-5.348-1.377-8.567-6.829-7.189-12.178c1.376-5.348,6.825-8.57,12.178-7.189c4.707,1.212,9.692,2.383,14.818,3.48 c39.656,8.494,89.858,13.172,141.36,13.172c42.134,0,83.265-3.098,118.946-8.958c5.459-0.896,10.594,2.798,11.489,8.247 c0.895,5.45-2.798,10.594-8.247,11.489C341.453,466.75,299.201,469.939,256,469.939z"></path><path d="M414.67,452.97c-0.65,0-1.31-0.07-1.95-0.2c-0.64-0.12-1.27-0.319-1.87-0.569c-0.609-0.25-1.189-0.561-1.73-0.92 c-0.551-0.36-1.06-0.78-1.52-1.24s-0.88-0.971-1.24-1.521c-0.359-0.54-0.67-1.12-0.92-1.729c-0.25-0.6-0.44-1.23-0.569-1.87 c-0.13-0.64-0.2-1.3-0.2-1.95s0.07-1.31,0.2-1.95s0.319-1.27,0.569-1.87c0.25-0.609,0.56-1.189,0.92-1.73 c0.36-0.55,0.78-1.06,1.24-1.52s0.97-0.88,1.52-1.25c0.54-0.359,1.12-0.659,1.73-0.909c0.601-0.25,1.23-0.45,1.87-0.57 c3.25-0.66,6.7,0.41,9.021,2.73c0.46,0.46,0.88,0.971,1.25,1.52c0.359,0.54,0.67,1.12,0.92,1.73c0.25,0.601,0.439,1.23,0.569,1.87 c0.13,0.641,0.19,1.3,0.19,1.95c0,2.63-1.06,5.21-2.93,7.07C419.88,451.899,417.31,452.97,414.67,452.97z"></path><path style="fill:#397BB7;" d="M342.868,226.442v-44.791c-38.958,0-70.944-29.824-74.388-67.884h-24.96 c-3.444,38.061-35.43,67.884-74.388,67.884v44.791c-6.986,8.479-11.183,19.342-11.183,31.187l0,0 c0,27.104,21.972,49.076,49.075,49.076L256,367.336l48.975-60.632c27.104,0,49.076-21.972,49.076-49.076l0,0 C354.051,245.784,349.855,234.921,342.868,226.442z"></path><path d="M256,377.337c-3.021,0-5.881-1.366-7.779-3.717l-46.139-57.121c-30.271-2.518-54.133-27.96-54.133-58.87 c0-12.424,3.948-24.568,11.183-34.588v-41.39c0-5.522,4.478-10,10-10c33.698,0,61.396-25.272,64.429-58.786 c0.466-5.152,4.785-9.099,9.959-9.099h24.961c5.174,0,9.493,3.946,9.959,9.099c3.032,33.514,30.73,58.786,64.429,58.786 c5.522,0,10,4.478,10,10v41.39c7.234,10.02,11.183,22.164,11.183,34.588c0,30.91-23.861,56.352-54.133,58.87L263.78,373.62 C261.881,375.971,259.022,377.337,256,377.337z M179.132,191.064v35.379c0,2.32-0.807,4.568-2.282,6.359 c-5.739,6.965-8.9,15.782-8.9,24.827c0,21.546,17.529,39.075,39.075,39.075c3.021,0,5.881,1.366,7.779,3.717L256,351.423 l41.196-51.002c1.898-2.351,4.758-3.717,7.779-3.717c21.546,0,39.075-17.529,39.075-39.075c0-9.045-3.161-17.862-8.9-24.827 c-1.476-1.791-2.282-4.039-2.282-6.359v-35.379c-17.587-2.077-34.092-9.607-47.276-21.717c-13.281-12.2-22.231-28.135-25.747-45.58 h-7.689c-3.516,17.445-12.466,33.38-25.747,45.58C213.224,181.457,196.719,188.986,179.132,191.064z"></path><ellipse style="fill:#FCC555;" cx="256" cy="242.45" rx="39.768" ry="55.919"></ellipse><path d="M256,308.365c-13.949,0-26.83-7.31-36.27-20.582c-8.704-12.24-13.498-28.341-13.498-45.337 c0-16.995,4.794-33.097,13.498-45.336c9.439-13.273,22.32-20.583,36.27-20.583c13.949,0,26.83,7.31,36.27,20.583 c8.704,12.239,13.498,28.341,13.498,45.336c0,16.996-4.794,33.097-13.498,45.337C282.83,301.056,269.949,308.365,256,308.365z M256,196.527c-16.136,0-29.768,21.028-29.768,45.919s13.632,45.919,29.768,45.919s29.768-21.028,29.768-45.919 S272.136,196.527,256,196.527z"></path></svg>