<svg width="21" height="22" viewBox="0 0 21 22" fill="none" xmlns="http://www.w3.org/2000/svg">
<g clip-path="url(#clip0_1_213)">
<path d="M10.5 0.5C6.12812 0.5 2.58398 4.04412 2.58398 8.41602C2.58398 9.87809 2.87016 11.3882 3.6914 12.4766L10.5 21.5L17.3086 12.4766C18.0545 11.488 18.416 9.74033 18.416 8.41602C18.416 4.04412 14.8719 0.5 10.5 0.5ZM10.5 5.08477C12.3395 5.08477 13.8312 6.57649 13.8312 8.416C13.8312 10.2555 12.3395 11.7473 10.5 11.7473C8.66047 11.7473 7.16878 10.2555 7.16878 8.41602C7.16878 6.57649 8.66047 5.08477 10.5 5.08477Z" fill="black"/>
</g>
<defs>
<clipPath id="clip0_1_213">
<rect width="21" height="21" fill="white" transform="translate(0 0.5)"/>
</clipPath>
</defs>
</svg>
