<svg width="32" height="32" viewBox="0 0 32 32" fill="none" xmlns="http://www.w3.org/2000/svg">
<path d="M9.38475 5.1504C9.27071 5.15567 9.15812 5.17807 9.05075 5.21684L2.56837 7.59565C2.28819 7.69846 2.03756 7.93046 1.91212 8.20128C1.78669 8.4719 1.77225 8.81365 1.875 9.09378L6.045 20.461C6.14769 20.7411 6.37962 20.9937 6.65037 21.1191C6.92112 21.2446 7.26287 21.2591 7.54287 21.1563L14.0254 18.7773C14.3056 18.6746 14.5562 18.4427 14.6816 18.1719L14.6835 18.168C14.8074 17.8978 14.821 17.5582 14.7187 17.2793L10.5487 5.91209C10.4466 5.63334 10.2164 5.38184 9.94725 5.25584L9.94337 5.25396C9.808 5.19115 9.65444 5.15671 9.5 5.15034C9.46137 5.14878 9.42312 5.14853 9.38475 5.1504ZM11.8262 6.0019L15.8164 16.8769C16.0293 17.459 16.0026 18.1017 15.7422 18.6641C15.4819 19.226 15.0091 19.6615 14.4278 19.875L12.7128 20.504L16.4628 20.6777C16.7609 20.6917 17.0822 20.574 17.3028 20.3731C17.5233 20.172 17.6697 19.8625 17.6836 19.5643L18.2461 7.47059C18.2599 7.17259 18.1443 6.84946 17.9434 6.62884C17.7424 6.40821 17.4329 6.26196 17.1347 6.24803L11.8262 6.00178L11.8262 6.0019ZM19.3887 8.08003L18.8496 19.6192C18.8208 20.2382 18.5476 20.8205 18.0899 21.2383C17.6317 21.655 17.0268 21.8728 16.4082 21.8438L14.7794 21.7675L19.1153 23.211C19.3984 23.3052 19.7411 23.2802 20.0078 23.1466C20.2747 23.0128 20.4977 22.7539 20.5919 22.4707L24.4141 10.9826C24.5082 10.6993 24.4832 10.3568 24.3497 10.09C24.2159 9.82309 23.957 9.59809 23.6738 9.50403L19.3888 8.08015L19.3887 8.08003ZM6.57225 9.22659C8.10087 10.7851 10.8235 10.3353 11.6191 12.0722C12.3613 13.6927 10.7122 14.9476 9.246 14.4727L10.3085 16.3965L9.13475 16.8282L8.45119 14.8477C7.80181 16.2617 5.76037 16.3318 5.06637 14.8145C4.22075 12.966 6.56769 11.427 6.57225 9.22659ZM25.4121 11.6778L21.7012 22.8398C21.5057 23.4276 21.0849 23.9137 20.5312 24.1914L20.5254 24.1933C19.9727 24.4681 19.3338 24.513 18.7481 24.3183L17.4746 23.8945L20.1816 26.2089C20.4084 26.4028 20.7356 26.5077 21.0331 26.4843C21.3306 26.461 21.6342 26.3068 21.8281 26.08L29.6953 16.8731C29.8892 16.6462 29.9941 16.3209 29.9707 16.0234C29.9474 15.7259 29.7913 15.4204 29.5644 15.2265L25.4122 11.6778L25.4121 11.6778Z" fill="white"/>
</svg>
