<svg width="32" height="32" viewBox="0 0 32 32" fill="none" xmlns="http://www.w3.org/2000/svg">
<path d="M30.9525 16.7244L27.8166 2.56759C27.7014 2.04999 27.3855 1.59925 26.9383 1.31426C26.4911 1.02926 25.9491 0.933296 25.4312 1.04741L11.2746 4.18328C11.0181 4.24008 10.7754 4.34684 10.5602 4.49746C10.345 4.64808 10.1616 4.83961 10.0204 5.06112C9.87928 5.28262 9.78314 5.52976 9.73749 5.78843C9.69185 6.04709 9.69761 6.31222 9.75444 6.56866L11.0682 12.4999H3C2.46975 12.5005 1.96139 12.7114 1.58644 13.0863C1.2115 13.4613 1.0006 13.9697 1 14.4999V28.9999C1.0006 29.5302 1.2115 30.0385 1.58644 30.4135C1.96139 30.7884 2.46975 30.9993 3 30.9999H17.5C18.0303 30.9993 18.5386 30.7884 18.9136 30.4135C19.2885 30.0385 19.4994 29.5302 19.5 28.9999V21.3097L29.4323 19.1097C29.9499 18.9944 30.4006 18.6786 30.6856 18.2314C30.9706 17.7842 31.0666 17.2423 30.9525 16.7244ZM17.5 28.9999H3V14.4999H11.5113L12.8903 20.7253C12.9887 21.1691 13.2354 21.5662 13.5895 21.8512C13.9437 22.1363 14.3844 22.2922 14.839 22.2935C14.9858 22.2934 15.1322 22.2773 15.2755 22.2455L17.5005 21.7526L17.5012 28.9999H17.5ZM29 17.157L14.8429 20.2928L11.7071 6.13591L25.864 2.99991L29.0011 17.1565L29 17.157Z" fill="white"/>
<path d="M5 16.4999H7.5V18.9999H5V16.4999ZM5 24.4999H7.5V26.9999H5V24.4999ZM13 24.4999H15.5V26.9999H13V24.4999ZM9 20.4999H11.5V22.9999H9V20.4999ZM14.091 7.66037L16.5319 7.12012L17.0721 9.56105L14.6313 10.1013L14.091 7.66037ZM23.633 13.7368L26.0739 13.1962L26.6145 15.6371L24.1736 16.1777L23.633 13.7368ZM18.8627 10.6962L21.3036 10.1556L21.8442 12.5964L19.4034 13.1371L18.8627 10.6962Z" fill="white"/>
</svg>
