<svg width="31" height="32" viewBox="0 0 31 32" fill="none" xmlns="http://www.w3.org/2000/svg">
<path d="M21.3125 13.8203H18.4062C18.2136 13.8203 18.0287 13.7438 17.8925 13.6075C17.7562 13.4713 17.6797 13.2864 17.6797 13.0938C17.6797 12.9011 17.7562 12.7162 17.8925 12.58C18.0287 12.4437 18.2136 12.3672 18.4062 12.3672H21.3125C21.5052 12.3672 21.69 12.4437 21.8263 12.58C21.9625 12.7162 22.0391 12.9011 22.0391 13.0938C22.0391 13.2864 21.9625 13.4713 21.8263 13.6075C21.69 13.7438 21.5052 13.8203 21.3125 13.8203ZM12.5937 12.3672H11.3828V11.1562C11.3828 10.9636 11.3063 10.7787 11.17 10.6425C11.0337 10.5062 10.8489 10.4297 10.6562 10.4297C10.4636 10.4297 10.2787 10.5062 10.1425 10.6425C10.0062 10.7787 9.92969 10.9636 9.92969 11.1562V12.3672H8.71875C8.52605 12.3672 8.34125 12.4437 8.20499 12.58C8.06873 12.7162 7.99219 12.9011 7.99219 13.0938C7.99219 13.2864 8.06873 13.4713 8.20499 13.6075C8.34125 13.7438 8.52605 13.8203 8.71875 13.8203H9.92969V15.0312C9.92969 15.2239 10.0062 15.4087 10.1425 15.545C10.2787 15.6813 10.4636 15.7578 10.6562 15.7578C10.8489 15.7578 11.0337 15.6813 11.17 15.545C11.3063 15.4087 11.3828 15.2239 11.3828 15.0312V13.8203H12.5937C12.7864 13.8203 12.9712 13.7438 13.1075 13.6075C13.2438 13.4713 13.3203 13.2864 13.3203 13.0938C13.3203 12.9011 13.2438 12.7162 13.1075 12.58C12.9712 12.4437 12.7864 12.3672 12.5937 12.3672ZM29.0431 24.6582C28.6636 25.2002 28.1591 25.6428 27.5723 25.9485C26.9854 26.2541 26.3335 26.4138 25.6719 26.4141C24.5821 26.4115 23.5375 25.9785 22.7656 25.2092L22.7341 25.1753L17.8468 19.6328H13.1532L8.27191 25.1741L8.23437 25.2031C7.46431 25.9759 6.41905 26.4114 5.32812 26.4141C4.72708 26.4137 4.13342 26.2817 3.58883 26.0274C3.04424 25.7731 2.56193 25.4026 2.17578 24.942C1.78963 24.4814 1.50901 23.9419 1.35362 23.3613C1.19823 22.7807 1.17185 22.1731 1.27633 21.5812C1.27633 21.5812 1.27633 21.5739 1.27633 21.5691L3.25742 11.3839C3.54245 9.76032 4.39052 8.28912 5.65263 7.22876C6.91473 6.16841 8.51014 5.58673 10.1586 5.58594H20.8281C22.4723 5.58803 24.0637 6.16618 25.3258 7.21989C26.5879 8.27361 27.4409 9.73627 27.7365 11.3536V11.3766L29.7237 21.5703V21.5836C29.8192 22.1157 29.8082 22.6613 29.6914 23.1891C29.5746 23.7169 29.3542 24.2162 29.0431 24.6582ZM20.8281 18.1797C22.3055 18.1797 23.7223 17.5928 24.7669 16.5482C25.8116 15.5035 26.3984 14.0867 26.3984 12.6094C26.3984 11.132 25.8116 9.71521 24.7669 8.67057C23.7223 7.62593 22.3055 7.03906 20.8281 7.03906H10.1586C8.85105 7.04006 7.58574 7.50197 6.58511 8.34358C5.58448 9.1852 4.91258 10.3526 4.68754 11.6406C4.68697 11.6446 4.68697 11.6487 4.68754 11.6527L2.70402 21.8404C2.6072 22.3963 2.68943 22.9687 2.93886 23.4749C3.18829 23.9811 3.59203 24.395 4.09187 24.657C4.59171 24.919 5.16183 25.0155 5.72004 24.9326C6.27825 24.8496 6.79571 24.5916 7.19781 24.1956L12.2837 18.4255C12.3523 18.3489 12.4363 18.2877 12.5302 18.2459C12.6242 18.2042 12.7259 18.1828 12.8287 18.1833L20.8281 18.1797ZM28.296 21.8404L27.1105 15.7433C26.5274 16.9108 25.631 17.8929 24.5214 18.5799C23.4119 19.2668 22.1331 19.6314 20.8281 19.6328H19.7831L23.8022 24.1956C24.2043 24.5916 24.7217 24.8496 25.28 24.9326C25.8382 25.0155 26.4083 24.919 26.9081 24.657C27.408 24.395 27.8117 23.9811 28.0611 23.4749C28.3106 22.9687 28.3928 22.3963 28.296 21.8404Z" fill="white"/>
</svg>
