<svg xmlns="http://www.w3.org/2000/svg" xmlns:xlink="http://www.w3.org/1999/xlink">
 
  <symbol id="icon" width="30" height="30" viewBox="0 0 30 30" xmlns="http://www.w3.org/2000/svg">
    <path d="M3.73999 14.47C3.73999 12.43 4.24999 10.54 5.25999 8.81C6.26999 7.08 7.63999 5.71 9.36999 4.7C11.1 3.69 12.98 3.19 15.01 3.19C16.53 3.19 17.99 3.49 19.38 4.08C20.77 4.67 21.96 5.48 22.97 6.48C23.98 7.48 24.78 8.68 25.37 10.08C25.96 11.48 26.26 12.93 26.26 14.47C26.26 15.99 25.96 17.45 25.37 18.84C24.78 20.23 23.97 21.43 22.97 22.43C21.97 23.43 20.77 24.23 19.38 24.82C17.99 25.41 16.54 25.71 15.01 25.71C13.48 25.71 12.01 25.41 10.62 24.82C9.22999 24.23 8.02999 23.42 7.01999 22.42C6.00999 21.42 5.21999 20.22 4.61999 18.84C4.01999 17.46 3.73999 16 3.73999 14.47ZM6.21999 14.47C6.21999 16.84 7.07999 18.9 8.80999 20.65C10.54 22.38 12.6 23.24 15.01 23.24C16.59 23.24 18.06 22.85 19.4 22.06C20.74 21.27 21.82 20.21 22.61 18.86C23.4 17.51 23.8 16.05 23.8 14.47C23.8 12.89 23.4 11.42 22.61 10.07C21.82 8.72 20.75 7.65 19.4 6.86C18.05 6.07 16.59 5.68 15.01 5.68C13.43 5.68 11.96 6.07 10.62 6.86C9.26999 7.65 8.19999 8.72 7.39999 10.07C6.59999 11.42 6.21999 12.89 6.21999 14.47ZM11.84 10.24C11.9 10.02 12.03 9.85 12.22 9.74C12.42 9.62 12.63 9.59 12.86 9.65C13.09 9.71 13.26 9.84 13.37 10.03L14.15 11.33V7.81C14.15 7.58 14.23 7.38 14.39 7.22C14.55 7.06 14.75 6.98 14.98 6.98C15.21 6.98 15.41 7.06 15.57 7.22C15.73 7.38 15.81 7.58 15.81 7.81V14.48C15.81 14.71 15.73 14.91 15.57 15.07C15.41 15.23 15.21 15.31 14.98 15.31C14.58 15.31 14.32 15.13 14.19 14.78L11.93 10.87C11.8715 10.7772 11.8333 10.6732 11.8178 10.5646C11.8023 10.456 11.8099 10.3454 11.84 10.24Z"/>
  </symbol>

</svg>
