<svg xmlns="http://www.w3.org/2000/svg" viewBox="0 0 24 24"><path d="M.658 23.994A6.261 6.261 0 0 0 5.77 22.29l-1.077-.037a5.297 5.297 0 0 0 7.864 0L12 21.75l-.557.503a5.297 5.297 0 0 0 7.864 0l-.557-.503-.52.54a6.261 6.261 0 0 0 5.112 1.704.75.75 0 1 0-.184-1.488 4.761 4.761 0 0 1-3.888-1.296.75.75 0 0 0-1.077.037 3.797 3.797 0 0 1-5.637 0 .75.75 0 0 0-1.113 0 3.797 3.797 0 0 1-5.637 0 .75.75 0 0 0-1.076-.037 4.761 4.761 0 0 1-3.888 1.296.75.75 0 1 0-.184 1.488zm0-4.5A6.261 6.261 0 0 0 5.77 17.79l-1.077-.037a5.297 5.297 0 0 0 7.864 0L12 17.25l-.557.503a5.297 5.297 0 0 0 7.864 0l-.557-.503-.52.54a6.261 6.261 0 0 0 5.112 1.704.75.75 0 1 0-.184-1.488 4.761 4.761 0 0 1-3.888-1.296.75.75 0 0 0-1.077.037 3.797 3.797 0 0 1-5.637 0 .75.75 0 0 0-1.113 0 3.797 3.797 0 0 1-5.637 0 .75.75 0 0 0-1.076-.037 4.761 4.761 0 0 1-3.888 1.296.75.75 0 1 0-.184 1.488zm0-4.5A6.261 6.261 0 0 0 5.77 13.29l-1.077-.037a5.297 5.297 0 0 0 7.864 0L12 12.75l-.557.503a5.297 5.297 0 0 0 7.864 0l-.557-.503-.52.54a6.261 6.261 0 0 0 5.112 1.704.75.75 0 1 0-.184-1.488 4.761 4.761 0 0 1-3.888-1.296.75.75 0 0 0-1.077.037 3.797 3.797 0 0 1-5.637 0 .75.75 0 0 0-1.113 0 3.797 3.797 0 0 1-5.637 0 .75.75 0 0 0-1.076-.037 4.761 4.761 0 0 1-3.888 1.296.75.75 0 1 0-.184 1.488zM4.65 1.2L6.3 3.4a1.5 1.5 0 0 0 2.4 0l1.65-2.2a.75.75 0 1 0-1.2-.9L7.5 2.5 5.85.3a.75.75 0 0 0-1.2.9zm6.75 4.5l1.65 2.2a1.5 1.5 0 0 0 2.4 0l1.65-2.2a.75.75 0 1 0-1.2-.9L14.25 7 12.6 4.8a.75.75 0 1 0-1.2.9zm6.75-4.5l1.65 2.2a1.5 1.5 0 0 0 2.4 0l1.65-2.2a.75.75 0 1 0-1.2-.9L21 2.5 19.35.3a.75.75 0 1 0-1.2.9z" fill="#ffffff"></path></svg>