<!-- icon666.com - MILLIONS vector ICONS FREE --><svg id="Layer_3" viewBox="0 0 64 64" xmlns="http://www.w3.org/2000/svg" data-name="Layer 3"><path d="m44 19-2.813-4.219a4 4 0 0 0 -3.328-1.781h-11.718a4 4 0 0 0 -3.328 1.781l-2.813 4.219" fill="#f4b2b0"></path><path d="m52 19h-40a3 3 0 0 0 -3 3v26a3 3 0 0 0 3 3h40a3 3 0 0 0 3-3v-26a3 3 0 0 0 -3-3zm-33 8h-6v-4h6zm13 20a12 12 0 1 1 12-12 12 12 0 0 1 -12 12z" fill="#f4b2b0"></path><g fill="#b3404a"><path d="m56 1h-48a7.008 7.008 0 0 0 -7 7v48a7.008 7.008 0 0 0 7 7h48a7.008 7.008 0 0 0 7-7v-48a7.008 7.008 0 0 0 -7-7zm5 55a5.006 5.006 0 0 1 -5 5h-48a5.006 5.006 0 0 1 -5-5v-48a5.006 5.006 0 0 1 5-5h48a5.006 5.006 0 0 1 5 5z"></path><path d="m53 18.142v-1.142a3 3 0 0 0 -3-3h-2a3 3 0 0 0 -3 3v1h-.465l-2.515-3.773a4.994 4.994 0 0 0 -4.161-2.227h-11.718a4.994 4.994 0 0 0 -4.161 2.227l-2.515 3.773h-.465v-1a3 3 0 0 0 -3-3h-2a3 3 0 0 0 -3 3v1.142a4 4 0 0 0 -3 3.858v26a4 4 0 0 0 4 4h40a4 4 0 0 0 4-4v-26a4 4 0 0 0 -3-3.858zm-6-1.142a1 1 0 0 1 1-1h2a1 1 0 0 1 1 1v1h-4zm-23.355-1.664a3 3 0 0 1 2.496-1.336h11.718a3 3 0 0 1 2.5 1.336l1.773 2.664h-20.264zm-9.645.664h2a1 1 0 0 1 1 1v1h-4v-1a1 1 0 0 1 1-1zm40 32a2 2 0 0 1 -2 2h-40a2 2 0 0 1 -2-2v-26a2 2 0 0 1 2-2h40a2 2 0 0 1 2 2z"></path><path d="m32 22a13 13 0 1 0 13 13 13.015 13.015 0 0 0 -13-13zm0 24a11 11 0 1 1 11-11 11.013 11.013 0 0 1 -11 11z"></path><path d="m32 26a9 9 0 1 0 9 9 9.01 9.01 0 0 0 -9-9zm0 16a7 7 0 1 1 7-7 7.008 7.008 0 0 1 -7 7z"></path><circle cx="50" cy="46" r="2"></circle><path d="m20 27v-4a1 1 0 0 0 -1-1h-6a1 1 0 0 0 -1 1v4a1 1 0 0 0 1 1h6a1 1 0 0 0 1-1zm-2-1h-4v-2h4z"></path></g></svg>