<svg width="32" height="32" viewBox="0 0 32 32" fill="none" xmlns="http://www.w3.org/2000/svg">
<path d="M17.3707 2.66802C18.3436 2.66429 19.3166 2.67407 20.2893 2.69736L20.548 2.70669C20.8467 2.71736 21.1413 2.73069 21.4973 2.74669C22.916 2.81336 23.884 3.03736 24.7333 3.36669C25.6133 3.70536 26.3547 4.16402 27.096 4.90536C27.7738 5.5715 28.2984 6.37728 28.6333 7.26669C28.9627 8.11602 29.1867 9.08535 29.2533 10.504C29.2693 10.8587 29.2827 11.1547 29.2933 11.4534L29.3013 11.712C29.325 12.6843 29.3352 13.6568 29.332 14.6294L29.3333 15.624V17.3707C29.3366 18.3437 29.3264 19.3167 29.3027 20.2894L29.2947 20.548C29.284 20.8467 29.2707 21.1414 29.2547 21.4974C29.188 22.916 28.9613 23.884 28.6333 24.7334C28.2995 25.6237 27.7748 26.4302 27.096 27.096C26.4293 27.7738 25.6231 28.2984 24.7333 28.6334C23.884 28.9627 22.916 29.1867 21.4973 29.2534C21.1413 29.2694 20.8467 29.2827 20.548 29.2934L20.2893 29.3014C19.3166 29.3251 18.3437 29.3353 17.3707 29.332L16.376 29.3334H14.6307C13.6577 29.3366 12.6847 29.3264 11.712 29.3027L11.4533 29.2947C11.1368 29.2832 10.8204 29.2699 10.504 29.2547C9.08533 29.188 8.11733 28.9614 7.26667 28.6334C6.37691 28.2991 5.57098 27.7745 4.90533 27.096C4.22673 26.4297 3.70163 25.6234 3.36667 24.7334C3.03733 23.884 2.81333 22.916 2.74667 21.4974C2.73182 21.181 2.71848 20.8645 2.70667 20.548L2.7 20.2894C2.67542 19.3167 2.66431 18.3437 2.66667 17.3707V14.6294C2.66295 13.6568 2.67272 12.6843 2.696 11.712L2.70533 11.4534C2.716 11.1547 2.72933 10.8587 2.74533 10.504C2.812 9.08402 3.036 8.11736 3.36533 7.26669C3.7005 6.37685 4.22662 5.57128 4.90667 4.90669C5.57186 4.22769 6.37728 3.70212 7.26667 3.36669C8.11733 3.03736 9.084 2.81336 10.504 2.74669L11.4533 2.70669L11.712 2.70002C12.6842 2.67545 13.6568 2.66434 14.6293 2.66669L17.3707 2.66802ZM16 9.33335C14.2319 9.33335 12.5362 10.0357 11.286 11.286C10.0357 12.5362 9.33333 14.2319 9.33333 16C9.33333 17.7681 10.0357 19.4638 11.286 20.7141C12.5362 21.9643 14.2319 22.6667 16 22.6667C17.7681 22.6667 19.4638 21.9643 20.714 20.7141C21.9643 19.4638 22.6667 17.7681 22.6667 16C22.6667 14.2319 21.9643 12.5362 20.714 11.286C19.4638 10.0357 17.7681 9.33335 16 9.33335ZM16 12C16.5253 11.9999 17.0454 12.1033 17.5308 12.3042C18.0161 12.5052 18.4571 12.7998 18.8286 13.1711C19.2001 13.5425 19.4948 13.9834 19.6959 14.4687C19.897 14.9539 20.0006 15.4741 20.0007 15.9994C20.0008 16.5246 19.8974 17.0448 19.6964 17.5301C19.4955 18.0155 19.2009 18.4565 18.8296 18.828C18.4582 19.1995 18.0173 19.4942 17.532 19.6953C17.0467 19.8964 16.5266 19.9999 16.0013 20C14.9405 20 13.9231 19.5786 13.1729 18.8284C12.4228 18.0783 12.0013 17.0609 12.0013 16C12.0013 14.9392 12.4228 13.9217 13.1729 13.1716C13.9231 12.4214 14.9405 12 16.0013 12M23.0013 7.33336C22.5712 7.35057 22.1644 7.53356 21.8661 7.84398C21.5679 8.15441 21.4013 8.5682 21.4013 8.99869C21.4013 9.42918 21.5679 9.84297 21.8661 10.1534C22.1644 10.4638 22.5712 10.6468 23.0013 10.664C23.4434 10.664 23.8673 10.4884 24.1798 10.1759C24.4924 9.86331 24.668 9.43938 24.668 8.99736C24.668 8.55533 24.4924 8.1314 24.1798 7.81884C23.8673 7.50628 23.4434 7.33069 23.0013 7.33069" fill="white"/>
</svg>
