<svg width="24" height="24" viewBox="0 0 24 24" fill="none" xmlns="http://www.w3.org/2000/svg">
<path d="M11.754 20.867C9.37935 20.485 7.46402 19.4763 6.00802 17.841C4.55135 16.2057 3.70635 14.112 3.47302 11.56C3.45635 11.44 3.46768 11.332 3.50702 11.236C3.54635 11.14 3.60302 11.0543 3.67702 10.979C3.75102 10.9043 3.83668 10.8517 3.93402 10.821C4.03135 10.7903 4.13735 10.7917 4.25202 10.825C6.69935 11.203 8.65835 12.173 10.129 13.735C11.5997 15.2963 12.4073 17.4243 12.552 20.119C12.5687 20.231 12.5543 20.3353 12.509 20.432C12.463 20.5287 12.401 20.614 12.323 20.688C12.249 20.7627 12.1633 20.8163 12.066 20.849C11.9693 20.8823 11.8653 20.8883 11.754 20.867ZM12 14.683C11.7153 14.1623 11.2997 13.599 10.753 12.993C10.2064 12.3877 9.65402 11.9233 9.09602 11.6C9.12668 10.6387 9.36502 9.53334 9.81102 8.284C10.2564 7.03467 10.809 5.92534 11.469 4.956C11.5437 4.86067 11.626 4.78934 11.716 4.742C11.806 4.69467 11.9007 4.67134 12 4.672C12.0987 4.672 12.1953 4.69534 12.29 4.742C12.3853 4.78934 12.4637 4.86267 12.525 4.962C13.185 5.93534 13.7397 7.05 14.189 8.306C14.6383 9.562 14.8767 10.6727 14.904 11.638C14.344 11.938 13.776 12.4097 13.2 13.053C12.6247 13.6957 12.2247 14.239 12 14.683ZM13.604 20.585C13.5707 19.773 13.4647 18.933 13.286 18.065C13.1067 17.1963 12.86 16.4363 12.546 15.785C13.0833 14.5697 13.9857 13.504 15.253 12.588C16.5197 11.6727 18.0264 11.085 19.773 10.825C19.8884 10.7917 19.9933 10.7913 20.088 10.824C20.1833 10.8573 20.268 10.9107 20.342 10.984C20.4167 11.0587 20.4734 11.1433 20.512 11.238C20.552 11.3333 20.5634 11.4387 20.546 11.554C20.3487 13.8653 19.6613 15.7653 18.484 17.254C17.306 18.7433 15.6793 19.8543 13.604 20.585Z" fill="#434650"/>
</svg>
