<svg width="45" height="45" viewBox="0 0 45 45" fill="none" xmlns="http://www.w3.org/2000/svg">
<g opacity="0.5">
<path d="M24.4276 3.75188C25.7959 3.74663 27.1641 3.76038 28.532 3.79313L28.8957 3.80625C29.3157 3.82125 29.7301 3.84 30.2307 3.8625C32.2257 3.95625 33.587 4.27126 34.7814 4.73438C36.0189 5.21063 37.0614 5.85563 38.1039 6.89813C39.0571 7.83489 39.7948 8.96803 40.2657 10.2188C40.7289 11.4131 41.0439 12.7763 41.1376 14.7713C41.1601 15.27 41.1789 15.6863 41.1939 16.1063L41.2051 16.47C41.2384 17.8372 41.2528 19.2049 41.2482 20.5725L41.2501 21.9713V24.4275C41.2547 25.7958 41.2403 27.164 41.207 28.5319L41.1957 28.8956C41.1807 29.3156 41.162 29.73 41.1395 30.2306C41.0457 32.2256 40.727 33.5869 40.2657 34.7813C39.7963 36.0333 39.0584 37.1674 38.1039 38.1038C37.1663 39.0569 36.0326 39.7945 34.7814 40.2656C33.587 40.7288 32.2257 41.0438 30.2307 41.1375C29.7301 41.16 29.3157 41.1788 28.8957 41.1938L28.532 41.205C27.1641 41.2383 25.7959 41.2527 24.4276 41.2481L23.0289 41.25H20.5745C19.2062 41.2546 17.838 41.2402 16.4701 41.2069L16.1064 41.1956C15.6612 41.1795 15.2162 41.1607 14.7714 41.1394C12.7764 41.0456 11.4151 40.7269 10.2189 40.2656C8.96764 39.7957 7.8343 39.0578 6.89823 38.1038C5.94394 37.1668 5.20553 36.0329 4.73448 34.7813C4.27136 33.5869 3.95636 32.2256 3.86261 30.2306C3.84172 29.7857 3.82297 29.3407 3.80636 28.8956L3.79698 28.5319C3.76241 27.164 3.74679 25.7958 3.75011 24.4275V20.5725C3.74487 19.2049 3.75862 17.8372 3.79136 16.47L3.80448 16.1063C3.81948 15.6863 3.83823 15.27 3.86073 14.7713C3.95448 12.7744 4.26948 11.415 4.73261 10.2188C5.20393 8.96742 5.94379 7.83459 6.90011 6.9C7.83553 5.94516 8.96816 5.20608 10.2189 4.73438C11.4151 4.27126 12.7745 3.95625 14.7714 3.8625L16.1064 3.80625L16.4701 3.79688C17.8373 3.76233 19.205 3.7467 20.5726 3.75L24.4276 3.75188ZM22.5001 13.1269C21.2579 13.1093 20.0246 13.3388 18.8719 13.802C17.7192 14.2652 16.6701 14.9529 15.7854 15.8251C14.9008 16.6973 14.1984 17.7366 13.7189 18.8827C13.2394 20.0287 12.9925 21.2586 12.9925 22.5009C12.9925 23.7432 13.2394 24.9732 13.7189 26.1192C14.1984 27.2652 14.9008 28.3046 15.7854 29.1768C16.6701 30.049 17.7192 30.7367 18.8719 31.1999C20.0246 31.6631 21.2579 31.8926 22.5001 31.875C24.9865 31.875 27.3711 30.8873 29.1292 29.1291C30.8874 27.371 31.8751 24.9864 31.8751 22.5C31.8751 20.0136 30.8874 17.629 29.1292 15.8709C27.3711 14.1127 24.9865 13.1269 22.5001 13.1269ZM22.5001 16.8769C23.2473 16.8631 23.9898 16.9984 24.6841 17.2748C25.3784 17.5512 26.0107 17.9631 26.5441 18.4867C27.0774 19.0102 27.5011 19.6347 27.7903 20.3238C28.0796 21.0128 28.2286 21.7527 28.2287 22.5C28.2289 23.2473 28.0801 23.9872 27.791 24.6764C27.502 25.3655 27.0786 25.9902 26.5454 26.5139C26.0122 27.0376 25.3801 27.4498 24.6858 27.7264C23.9916 28.003 23.2492 28.1385 22.502 28.125C21.0101 28.125 19.5794 27.5324 18.5245 26.4775C17.4696 25.4226 16.877 23.9918 16.877 22.5C16.877 21.0082 17.4696 19.5774 18.5245 18.5225C19.5794 17.4676 21.0101 16.875 22.502 16.875L22.5001 16.8769ZM32.3439 10.3144C31.739 10.3386 31.1669 10.5959 30.7475 11.0325C30.3281 11.469 30.0938 12.0509 30.0938 12.6563C30.0938 13.2616 30.3281 13.8435 30.7475 14.2801C31.1669 14.7166 31.739 14.9739 32.3439 14.9981C32.9655 14.9981 33.5616 14.7512 34.0011 14.3117C34.4407 13.8721 34.6876 13.276 34.6876 12.6544C34.6876 12.0328 34.4407 11.4366 34.0011 10.9971C33.5616 10.5576 32.9655 10.3106 32.3439 10.3106V10.3144Z" fill="#0E0E0E"/>
</g>
</svg>
