<svg width="24" height="24" viewBox="0 0 24 24" fill="none" xmlns="http://www.w3.org/2000/svg">
<path d="M24 4.8C24 4.8 20.8 3.84 18.4 5.6L11.52 10.4C10.24 9.44 8.32 8.32 6.4 7.68V6.4C6.4 4.64 4.96 3.2 3.2 3.2C1.44 3.2 0 4.64 0 6.4V8.8C0 9.6 0.8 9.6 0.8 9.6H4C7.2 9.6 9.6 12 9.6 12C9.6 12 7.2 14.4 4 14.4H0.8C0.8 14.4 0 14.4 0 15.2V17.6C0 19.36 1.44 20.8 3.2 20.8C4.96 20.8 6.4 19.36 6.4 17.6V16.32C8.32 15.68 10.24 14.56 11.52 13.6L18.4 18.4C20.8 20.16 24 19.2 24 19.2L13.6 12L24 4.8ZM4.8 8H1.6V6.4C1.6 5.44 2.24 4.8 3.2 4.8C4.16 4.8 4.8 5.44 4.8 6.4V8ZM4.8 17.6C4.8 18.56 4.16 19.2 3.2 19.2C2.24 19.2 1.6 18.56 1.6 17.6V16H4.8V17.6ZM11.6 12.8C11.3878 12.8 11.1843 12.7157 11.0343 12.5657C10.8843 12.4157 10.8 12.2122 10.8 12C10.8 11.7878 10.8843 11.5843 11.0343 11.4343C11.1843 11.2843 11.3878 11.2 11.6 11.2C11.8122 11.2 12.0157 11.2843 12.1657 11.4343C12.3157 11.5843 12.4 11.7878 12.4 12C12.4 12.2122 12.3157 12.4157 12.1657 12.5657C12.0157 12.7157 11.8122 12.8 11.6 12.8Z" fill="#434650"/>
</svg>
