<svg width="24" height="24" viewBox="0 0 24 24" fill="none" xmlns="http://www.w3.org/2000/svg">
<g clip-path="url(#clip0_1_309)">
<path fill-rule="evenodd" clip-rule="evenodd" d="M2.57143 3.42857C2.57143 3.20124 2.66173 2.98323 2.82248 2.82248C2.98323 2.66173 3.20124 2.57143 3.42857 2.57143H8.57143C8.79876 2.57143 9.01677 2.66173 9.17752 2.82248C9.33827 2.98323 9.42857 3.20124 9.42857 3.42857V6H14.5714V3.42857C14.5714 3.20124 14.6617 2.98323 14.8225 2.82248C14.9832 2.66173 15.2012 2.57143 15.4286 2.57143H20.5714C20.7988 2.57143 21.0168 2.66173 21.1775 2.82248C21.3383 2.98323 21.4286 3.20124 21.4286 3.42857V6C22.1106 6 22.7646 6.27092 23.2468 6.75315C23.7291 7.23539 24 7.88944 24 8.57143V21.4286C24 22.1106 23.7291 22.7646 23.2468 23.2468C22.7646 23.7291 22.1106 24 21.4286 24H2.57143C1.88944 24 1.23539 23.7291 0.753154 23.2468C0.270918 22.7646 0 22.1106 0 21.4286L0 8.57143C0 7.88944 0.270918 7.23539 0.753154 6.75315C1.23539 6.27092 1.88944 6 2.57143 6V3.42857ZM13.6217 11.3486C13.7993 11.1267 13.8814 10.8434 13.85 10.561C13.8187 10.2785 13.6764 10.0201 13.4546 9.84257C13.3447 9.75466 13.2186 9.68925 13.0835 9.65007C12.9483 9.6109 12.8068 9.59872 12.667 9.61424C12.3845 9.64559 12.1261 9.78784 11.9486 10.0097L8.80629 13.9371C8.67992 14.0947 8.60068 14.2848 8.57769 14.4855C8.5547 14.6862 8.5889 14.8892 8.67636 15.0713C8.76381 15.2534 8.90095 15.407 9.07195 15.5145C9.24296 15.622 9.44087 15.679 9.64286 15.6789H12.3549L10.3234 18.7269C10.2453 18.8439 10.191 18.9752 10.1636 19.1133C10.1363 19.2513 10.1364 19.3934 10.1639 19.5314C10.1914 19.6694 10.2459 19.8007 10.3241 19.9176C10.4024 20.0346 10.5029 20.135 10.62 20.2131C10.7371 20.2913 10.8684 20.3456 11.0064 20.3729C11.1445 20.4003 11.2866 20.4002 11.4246 20.3727C11.5626 20.3451 11.6938 20.2907 11.8108 20.2124C11.9278 20.1342 12.0282 20.0336 12.1063 19.9166L15.2486 15.2023C15.3563 15.0409 15.4182 14.8533 15.4276 14.6596C15.437 14.4658 15.3937 14.2731 15.3022 14.102C15.2107 13.9309 15.0744 13.7879 14.908 13.6883C14.7415 13.5886 14.5512 13.5359 14.3571 13.536H11.8714L13.6217 11.3486Z" fill="#434650"/>
</g>
<defs>
<clipPath id="clip0_1_309">
<rect width="24" height="24" fill="white"/>
</clipPath>
</defs>
</svg>
