<svg width="24" height="24" viewBox="0 0 24 24" fill="none" xmlns="http://www.w3.org/2000/svg">
<path d="M4.00003 18.625C3.8167 18.4083 3.73736 18.1623 3.76203 17.887C3.7867 17.6117 3.9077 17.3827 4.12503 17.2L5.52503 16C5.92503 15.6667 6.3667 15.4123 6.85003 15.237C7.33336 15.0617 7.8417 14.9743 8.37503 14.975C8.8917 14.975 9.3917 15.0627 9.87503 15.238C10.3584 15.4133 10.8 15.6673 11.2 16L14.1 18.475C14.3167 18.6583 14.5584 18.7917 14.825 18.875C15.0917 18.9583 15.3667 19 15.65 19C15.9334 19 16.204 18.9583 16.462 18.875C16.72 18.7917 16.9577 18.6583 17.175 18.475L18.575 17.275C18.7917 17.0917 19.0374 17.0083 19.312 17.025C19.5867 17.0417 19.816 17.1583 20 17.375C20.1834 17.5917 20.2624 17.8377 20.237 18.113C20.2117 18.3883 20.091 18.6173 19.875 18.8L18.475 20C18.075 20.3333 17.6334 20.5833 17.15 20.75C16.6667 20.9167 16.1667 21 15.65 21C15.1167 21 14.6044 20.9167 14.113 20.75C13.6217 20.5833 13.184 20.3333 12.8 20L9.90003 17.525C9.68336 17.3417 9.4457 17.2083 9.18703 17.125C8.92837 17.0417 8.65803 17 8.37603 17C8.0927 17 7.8177 17.0417 7.55103 17.125C7.28436 17.2083 7.0427 17.3417 6.82603 17.525L5.40103 18.725C5.18436 18.9083 4.9427 18.9917 4.67603 18.975C4.40936 18.9583 4.18403 18.8417 4.00003 18.625ZM6.00003 13.975V10.975L4.97503 11.525C4.7417 11.6583 4.4917 11.6877 4.22503 11.613C3.95836 11.5383 3.75836 11.384 3.62503 11.15L1.62503 7.675C1.4917 7.44167 1.46236 7.18767 1.53703 6.913C1.6117 6.63833 1.76603 6.434 2.00003 6.3L6.97503 3.425C7.17503 3.30833 7.38336 3.20833 7.60003 3.125C7.8167 3.04167 8.0417 3 8.27503 3C8.50836 3 8.70836 3.071 8.87503 3.213C9.0417 3.355 9.1667 3.534 9.25003 3.75C9.4667 4.38333 9.8167 4.91667 10.3 5.35C10.7834 5.78333 11.35 6 12 6C12.65 6 13.2127 5.78333 13.688 5.35C14.1634 4.91667 14.5174 4.38333 14.75 3.75C14.8334 3.53333 14.9627 3.35433 15.138 3.213C15.3134 3.07167 15.5174 3.00067 15.75 3C15.9834 3 16.2044 3.04167 16.413 3.125C16.6217 3.20833 16.8257 3.30833 17.025 3.425L22 6.3C22.2334 6.43333 22.3834 6.63333 22.45 6.9C22.5167 7.16667 22.4834 7.41667 22.35 7.65L20.375 11.15C20.2417 11.3833 20.0417 11.5377 19.775 11.613C19.5084 11.6883 19.2584 11.659 19.025 11.525L18 10.975V15.775L16.425 17.15C16.2917 17.25 16.154 17.3293 16.012 17.388C15.87 17.4467 15.7244 17.4757 15.575 17.475C15.4417 17.475 15.3127 17.4373 15.188 17.362C15.0634 17.2867 14.9424 17.2077 14.825 17.125L12.175 14.85C11.6417 14.4 11.0457 14.0583 10.387 13.825C9.72836 13.5917 9.04937 13.475 8.35003 13.475C7.95003 13.475 7.55403 13.5167 7.16203 13.6C6.77003 13.6833 6.3827 13.8083 6.00003 13.975Z" fill="#434650"/>
</svg>
