<svg width="57" height="57" viewBox="0 0 57 57" fill="none" xmlns="http://www.w3.org/2000/svg">
<path d="M42.75 11.8751H45.125V14.2501C45.125 14.88 45.3752 15.4841 45.8206 15.9295C46.266 16.3749 46.8701 16.6251 47.5 16.6251C48.1299 16.6251 48.734 16.3749 49.1794 15.9295C49.6248 15.4841 49.875 14.88 49.875 14.2501V11.8751H52.25C52.8799 11.8751 53.484 11.6249 53.9294 11.1795C54.3748 10.7341 54.625 10.13 54.625 9.50008C54.625 8.87019 54.3748 8.2661 53.9294 7.82071C53.484 7.37531 52.8799 7.12508 52.25 7.12508H49.875V4.75008C49.875 4.12019 49.6248 3.5161 49.1794 3.07071C48.734 2.62531 48.1299 2.37508 47.5 2.37508C46.8701 2.37508 46.266 2.62531 45.8206 3.07071C45.3752 3.5161 45.125 4.12019 45.125 4.75008V7.12508H42.75C42.1201 7.12508 41.516 7.37531 41.0706 7.82071C40.6252 8.2661 40.375 8.87019 40.375 9.50008C40.375 10.13 40.6252 10.7341 41.0706 11.1795C41.516 11.6249 42.1201 11.8751 42.75 11.8751ZM16.625 16.6251V40.3751C16.625 41.005 16.8752 41.6091 17.3206 42.0545C17.766 42.4999 18.3701 42.7501 19 42.7501C19.6299 42.7501 20.234 42.4999 20.6794 42.0545C21.1248 41.6091 21.375 41.005 21.375 40.3751V16.6251C21.375 15.9952 21.1248 15.3911 20.6794 14.9457C20.234 14.5003 19.6299 14.2501 19 14.2501C18.3701 14.2501 17.766 14.5003 17.3206 14.9457C16.8752 15.3911 16.625 15.9952 16.625 16.6251ZM51.3 21.3751C50.9943 21.4374 50.7039 21.5593 50.4454 21.7339C50.1868 21.9085 49.9652 22.1323 49.7932 22.3926C49.6212 22.6528 49.5021 22.9444 49.4428 23.2507C49.3835 23.557 49.3851 23.8719 49.4475 24.1776C50.3748 28.6811 49.8252 33.3635 47.8803 37.5299C45.9354 41.6963 42.6988 45.1244 38.6511 47.3055C34.6033 49.4866 29.9602 50.3043 25.4109 49.6373C20.8615 48.9702 16.6486 46.854 13.3973 43.6028C10.1461 40.3515 8.02985 36.1386 7.36283 31.5892C6.69581 27.0399 7.51352 22.3968 9.6946 18.349C11.8757 14.3013 15.3038 11.0647 19.4702 9.11981C23.6366 7.17489 28.319 6.62529 32.8225 7.55258C33.4524 7.67856 34.1065 7.54916 34.641 7.19284C35.1755 6.83652 35.5465 6.28247 35.6725 5.65258C35.7985 5.0227 35.6691 4.36856 35.3128 3.83408C34.9564 3.2996 34.4024 2.92856 33.7725 2.80258C32.0344 2.47876 30.2675 2.33549 28.5 2.37508C23.333 2.37508 18.282 3.90729 13.9857 6.77794C9.68951 9.64859 6.341 13.7288 4.36366 18.5025C2.38632 23.2762 1.86896 28.5291 2.877 33.5968C3.88504 38.6646 6.3732 43.3196 10.0268 46.9733C13.6805 50.6269 18.3355 53.1151 23.4033 54.1231C28.471 55.1311 33.7239 54.6138 38.4976 52.6364C43.2713 50.6591 47.3515 47.3106 50.2222 43.0144C53.0928 38.7181 54.625 33.6671 54.625 28.5001C54.6301 26.7451 54.455 24.9943 54.1025 23.2751C54.0456 22.9651 53.9276 22.6696 53.7554 22.4057C53.5831 22.1418 53.3601 21.9148 53.0993 21.738C52.8384 21.5612 52.545 21.438 52.2361 21.3757C51.9272 21.3134 51.609 21.3132 51.3 21.3751ZM26.125 21.3751V23.7501C26.1355 25.5077 26.7953 27.1994 27.9775 28.5001C26.7953 29.8007 26.1355 31.4925 26.125 33.2501V35.6251C26.125 37.5148 26.8757 39.327 28.2119 40.6632C29.5481 41.9994 31.3603 42.7501 33.25 42.7501H35.625C37.5147 42.7501 39.327 41.9994 40.6632 40.6632C41.9993 39.327 42.75 37.5148 42.75 35.6251V33.2501C42.7395 31.4925 42.0798 29.8007 40.8975 28.5001C42.0798 27.1994 42.7395 25.5077 42.75 23.7501V21.3751C42.75 19.4854 41.9993 17.6731 40.6632 16.3369C39.327 15.0008 37.5147 14.2501 35.625 14.2501H33.25C31.3603 14.2501 29.5481 15.0008 28.2119 16.3369C26.8757 17.6731 26.125 19.4854 26.125 21.3751ZM38 35.6251C38 36.255 37.7498 36.8591 37.3044 37.3045C36.859 37.7499 36.2549 38.0001 35.625 38.0001H33.25C32.6201 38.0001 32.016 37.7499 31.5706 37.3045C31.1252 36.8591 30.875 36.255 30.875 35.6251V33.2501C30.875 32.6202 31.1252 32.0161 31.5706 31.5707C32.016 31.1253 32.6201 30.8751 33.25 30.8751H35.625C36.2549 30.8751 36.859 31.1253 37.3044 31.5707C37.7498 32.0161 38 32.6202 38 33.2501V35.6251ZM38 21.3751V23.7501C38 24.38 37.7498 24.9841 37.3044 25.4295C36.859 25.8749 36.2549 26.1251 35.625 26.1251H33.25C32.6201 26.1251 32.016 25.8749 31.5706 25.4295C31.1252 24.9841 30.875 24.38 30.875 23.7501V21.3751C30.875 20.7452 31.1252 20.1411 31.5706 19.6957C32.016 19.2503 32.6201 19.0001 33.25 19.0001H35.625C36.2549 19.0001 36.859 19.2503 37.3044 19.6957C37.7498 20.1411 38 20.7452 38 21.3751Z" fill="#545454"/>
</svg>
