<svg width="31" height="31" viewBox="0 0 31 31" fill="none" xmlns="http://www.w3.org/2000/svg">
<path d="M17.0848 0.0849047C18.2099 0.0805877 19.3349 0.0918944 20.4596 0.118821L20.7586 0.129613C21.104 0.141946 21.4447 0.157363 21.8563 0.175863C23.4966 0.252946 24.6159 0.511947 25.5979 0.892738C26.6154 1.28432 27.4726 1.81465 28.3298 2.67182C29.1135 3.44205 29.7201 4.37374 30.1073 5.40211C30.4881 6.38415 30.7471 7.50495 30.8242 9.14528C30.8427 9.55536 30.8581 9.89761 30.8704 10.2429L30.8797 10.542C30.9071 11.6662 30.9189 12.7907 30.9151 13.9152L30.9167 15.0653V17.0849C30.9205 18.2099 30.9087 19.3349 30.8812 20.4596L30.872 20.7587C30.8596 21.104 30.8442 21.4447 30.8257 21.8563C30.7486 23.4967 30.4866 24.6159 30.1073 25.5979C29.7213 26.6274 29.1146 27.5599 28.3298 28.3298C27.5589 29.1134 26.6267 29.72 25.5979 30.1073C24.6159 30.4881 23.4966 30.7471 21.8563 30.8242C21.4447 30.8427 21.104 30.8581 20.7586 30.8704L20.4596 30.8797C19.3349 30.9071 18.2099 30.9189 17.0848 30.9152L15.9348 30.9167H13.9167C12.7917 30.9205 11.6667 30.9087 10.542 30.8812L10.2429 30.872C9.87696 30.8587 9.51106 30.8433 9.14526 30.8257C7.50493 30.7487 6.38568 30.4866 5.4021 30.1073C4.37332 29.7209 3.44146 29.1142 2.67181 28.3298C1.88717 27.5594 1.28003 26.6271 0.892723 25.5979C0.511931 24.6159 0.252931 23.4967 0.175848 21.8563C0.158678 21.4905 0.143261 21.1246 0.129598 20.7587L0.12189 20.4596C0.093467 19.3349 0.0806184 18.2099 0.083348 17.0849V13.9152C0.0790453 12.7907 0.0903521 11.6662 0.117265 10.542L0.128056 10.2429C0.14039 9.89761 0.155806 9.55536 0.174306 9.14528C0.25139 7.5034 0.51039 6.3857 0.891181 5.40211C1.27871 4.37324 1.88704 3.4418 2.67335 2.67336C3.44248 1.88827 4.37375 1.28058 5.4021 0.892738C6.38568 0.511947 7.50339 0.252946 9.14526 0.175863L10.2429 0.129613L10.542 0.121905C11.6662 0.0934964 12.7907 0.0806478 13.9152 0.0833631L17.0848 0.0849047ZM15.5 7.79324C14.4787 7.77879 13.4646 7.96748 12.5169 8.34834C11.5691 8.7292 10.7064 9.29463 9.97907 10.0118C9.25171 10.7289 8.67413 11.5835 8.27991 12.5258C7.88568 13.4681 7.68267 14.4794 7.68267 15.5008C7.68267 16.5222 7.88568 17.5335 8.27991 18.4758C8.67413 19.4181 9.25171 20.2727 9.97907 20.9898C10.7064 21.707 11.5691 22.2724 12.5169 22.6533C13.4646 23.0341 14.4787 23.2228 15.5 23.2084C17.5444 23.2084 19.505 22.3962 20.9506 20.9506C22.3962 19.5051 23.2083 17.5444 23.2083 15.5C23.2083 13.4557 22.3962 11.495 20.9506 10.0494C19.505 8.60382 17.5444 7.79324 15.5 7.79324ZM15.5 10.8766C16.1144 10.8653 16.7248 10.9765 17.2957 11.2037C17.8666 11.431 18.3865 11.7697 18.825 12.2002C19.2636 12.6306 19.6119 13.1441 19.8497 13.7107C20.0876 14.2773 20.2101 14.8855 20.2102 15.5C20.2103 16.1145 20.088 16.7228 19.8503 17.2895C19.6127 17.8561 19.2645 18.3697 18.8261 18.8003C18.3878 19.2309 17.868 19.5698 17.2972 19.7973C16.7263 20.0247 16.1159 20.1361 15.5016 20.125C14.2749 20.125 13.0985 19.6378 12.2312 18.7704C11.3638 17.903 10.8766 16.7267 10.8766 15.5C10.8766 14.2734 11.3638 13.097 12.2312 12.2297C13.0985 11.3623 14.2749 10.875 15.5016 10.875L15.5 10.8766ZM23.5938 5.48074C23.0964 5.50064 22.6261 5.71222 22.2812 6.07115C21.9363 6.43008 21.7437 6.90853 21.7437 7.40628C21.7437 7.90403 21.9363 8.38247 22.2812 8.74141C22.6261 9.10034 23.0964 9.31192 23.5938 9.33182C24.1049 9.33182 24.595 9.12879 24.9564 8.76739C25.3178 8.40599 25.5208 7.91583 25.5208 7.40474C25.5208 6.89364 25.3178 6.40348 24.9564 6.04208C24.595 5.68069 24.1049 5.47765 23.5938 5.47765V5.48074Z" fill="#FFA216"/>
</svg>
