<svg width="31" height="32" viewBox="0 0 31 32" fill="none" xmlns="http://www.w3.org/2000/svg">
<path d="M15.5 1.79169L3.875 6.95835V14.7084C3.875 21.8771 8.835 28.5809 15.5 30.2084C22.165 28.5809 27.125 21.8771 27.125 14.7084V6.95835L15.5 1.79169ZM15.5 9.54169C17.3083 9.54169 19.1167 10.9625 19.1167 12.7709V14.7084C19.8917 14.7084 20.6667 15.4834 20.6667 16.3875V20.9084C20.6667 21.6834 19.8917 22.4584 18.9875 22.4584H11.8833C11.1083 22.4584 10.3333 21.6834 10.3333 20.7792V16.2584C10.3333 15.4834 11.1083 14.7084 11.8833 14.7084V12.7709C11.8833 10.9625 13.6917 9.54169 15.5 9.54169ZM15.5 11.0917C14.4667 11.0917 13.5625 11.7375 13.5625 12.7709V14.7084H17.4375V12.7709C17.4375 11.7375 16.5333 11.0917 15.5 11.0917Z" fill="#CA0520"/>
</svg>
