<svg width="32" height="32" viewBox="0 0 32 32" fill="none" xmlns="http://www.w3.org/2000/svg">
<path d="M9.01 8.524C9.15092 8.35953 9.32579 8.22754 9.52258 8.13708C9.71937 8.04663 9.93342 7.99986 10.15 8H12C12.2652 8 12.5196 7.89464 12.7071 7.70711C12.8946 7.51957 13 7.26522 13 7C13 6.73478 12.8946 6.48043 12.7071 6.29289C12.5196 6.10536 12.2652 6 12 6H10.15C9.64503 5.99988 9.14601 6.10904 8.6872 6.31997C8.2284 6.53091 7.82066 6.83863 7.492 7.222L2.842 12.647C2.29844 13.2815 1.99978 14.0895 2 14.925V19.5C2 20.6935 2.47411 21.8381 3.31802 22.682C4.16193 23.5259 5.30653 24 6.5 24H10.5C11.6935 24 12.8381 23.5259 13.682 22.682C14.5259 21.8381 15 20.6935 15 19.5V17H17V19.5C17 20.6935 17.4741 21.8381 18.318 22.682C19.1619 23.5259 20.3065 24 21.5 24H25.5C26.6935 24 27.8381 23.5259 28.682 22.682C29.5259 21.8381 30 20.6935 30 19.5V14.925C29.9999 14.0894 29.7009 13.2814 29.157 12.647L24.507 7.222C24.1784 6.83875 23.7709 6.53111 23.3123 6.32018C22.8536 6.10925 22.3548 6.00003 21.85 6H20C19.7348 6 19.4804 6.10536 19.2929 6.29289C19.1054 6.48043 19 6.73478 19 7C19 7.26522 19.1054 7.51957 19.2929 7.70711C19.4804 7.89464 19.7348 8 20 8H21.85C22.0664 8.00001 22.2803 8.04684 22.4769 8.13729C22.6735 8.22774 22.8482 8.35966 22.989 8.524L25.969 12H20.5C19.6583 12 18.8447 12.3032 18.2084 12.8542C17.572 13.4052 17.1555 14.1669 17.035 15H14.965C14.8445 14.1669 14.428 13.4052 13.7916 12.8542C13.1553 12.3032 12.3417 12 11.5 12H6.031L9.01 8.524Z" fill="#CA0520"/>
</svg>
