<svg width="32" height="32" viewBox="0 0 32 32" fill="none" xmlns="http://www.w3.org/2000/svg">
<path d="M6.66665 16L9.33331 10.6667V9.33335H5.33331V10.6667H7.99998L5.33331 16M12 16L14.6666 10.6667V9.33335H10.6666V10.6667H13.3333L10.6666 16M17.3333 16L20 10.6667V9.33335H16V10.6667H18.6666L16 16M28 2.66669C26.5333 2.66669 25.3333 3.86669 25.3333 5.33335C25.3333 6.26669 25.8666 7.20002 26.6666 7.60002V22.6667H22.6666V20C23.4666 20 24 19.4667 24 18.6667V6.66669C24 5.86669 23.4666 5.33335 22.6666 5.33335H17.6C16.5333 3.73335 14.6666 2.66669 12.6666 2.66669C10.6666 2.66669 8.79998 3.73335 7.73331 5.33335H2.66665C1.86665 5.33335 1.33331 5.86669 1.33331 6.66669V18.6667C1.33331 19.4667 1.86665 20 2.66665 20V29.3334H22.6666V25.3334H26.6666C28.1333 25.3334 29.3333 24.1334 29.3333 22.6667V7.60002C30.1333 7.20002 30.6666 6.26669 30.6666 5.33335C30.6666 3.86669 29.4666 2.66669 28 2.66669ZM3.99998 8.00002H21.3333V17.3334H3.99998V8.00002ZM20 26.6667H5.33331V20H20V26.6667ZM17.3333 25.3334H7.99998V22.6667H17.3333V25.3334Z" fill="#CA0520"/>
</svg>
