<!-- icon666.com - MILLIONS vector ICONS FREE --><svg version="1.1" id="Layer_1" xmlns="http://www.w3.org/2000/svg" xmlns:xlink="http://www.w3.org/1999/xlink" x="0px" y="0px" viewBox="0 0 512 512" style="enable-background:new 0 0 512 512;" xml:space="preserve"><polygon style="fill:#F95428;" points="447.924,338.942 447.924,370.839 383.096,387.304 383.096,322.476 "></polygon><path style="fill:#F7B239;" d="M426.311,118.71c12.506,0,22.647,10.141,22.647,22.647c0,12.506-10.141,22.636-22.647,22.636 c-12.506,0-22.636-10.13-22.636-22.636C403.675,128.851,413.805,118.71,426.311,118.71z"></path><g><rect x="88.772" y="160.034" style="fill:#F95428;" width="268.594" height="77.19"></rect><path style="fill:#F95428;" d="M357.369,403.077v74.947H88.776v-74.947H357.369z M324.945,453.419v-26.804h-49.396v26.804H324.945z M247.765,453.419v-26.804h-49.396v26.804H247.765z M170.586,453.419v-26.804h-49.396v26.804H170.586z"></path></g><path style="fill:#2BA5F7;" d="M383.096,387.304V503.75H63.049V83.888c42.005-22.218,87.474-35.12,133.516-38.683 c8.821-0.693,17.664-1.034,26.507-1.034s17.675,0.341,26.496,1.034c46.031,3.564,91.511,16.465,133.527,38.683v238.589V387.304z M357.369,478.023v-74.947V237.224v-77.19v-60.23c-41.895-19.611-88.013-29.917-134.297-29.917 c-46.294,0-92.402,10.306-134.297,29.917v60.23v77.19v165.853v74.947H357.369z"></path><g><rect x="275.545" y="266.031" style="fill:#9AD14B;" width="49.396" height="28.256"></rect><rect x="198.366" y="294.287" style="fill:#9AD14B;" width="49.396" height="49.495"></rect><rect x="121.186" y="343.782" style="fill:#9AD14B;" width="49.396" height="28.245"></rect></g><g><rect x="275.545" y="294.287" style="fill:#F95428;" width="49.396" height="49.495"></rect><rect x="198.366" y="343.782" style="fill:#F95428;" width="49.396" height="28.245"></rect><rect x="121.186" y="266.031" style="fill:#F95428;" width="49.396" height="28.256"></rect></g><g><rect x="275.545" y="343.782" style="fill:#2BA5F7;" width="49.396" height="28.245"></rect><rect x="198.366" y="266.031" style="fill:#2BA5F7;" width="49.396" height="28.256"></rect></g><g><path style="fill:#F7B239;" d="M357.369,237.224v165.853H88.776V237.224H357.369z M324.945,372.027v-28.245v-49.495V266.03h-49.396 v28.256v49.495v28.245H324.945z M247.765,372.027v-28.245v-49.495V266.03h-49.396v28.256v49.495v28.245H247.765z M170.586,372.027 v-28.245v-49.495V266.03h-49.396v28.256v49.495v28.245H170.586z"></path><path style="fill:#F7B239;" d="M357.369,99.803v60.23H88.776v-60.23c41.895-19.611,88.002-29.917,134.297-29.917 C269.356,69.886,315.474,80.192,357.369,99.803z"></path><rect x="275.545" y="426.615" style="fill:#F7B239;" width="49.396" height="26.804"></rect><path style="fill:#F7B239;" d="M249.569,45.193v0.011c-8.821-0.693-17.653-1.034-26.496-1.034c-8.843,0-17.686,0.341-26.507,1.034 v-0.011V34.745c0-14.629,11.868-26.496,26.507-26.496c14.629,0,26.496,11.868,26.496,26.496V45.193z"></path><rect x="198.366" y="426.615" style="fill:#F7B239;" width="49.396" height="26.804"></rect></g><rect x="190.006" y="103.456" style="fill:#F95428;" width="68.237" height="29.654"></rect><rect x="121.186" y="426.615" style="fill:#F7B239;" width="49.396" height="26.804"></rect><rect x="121.186" y="294.287" style="fill:#2BA5F7;" width="49.396" height="49.495"></rect><g><path style="fill:#333333;" d="M360.86,92.333c-42.9-20.077-90.548-30.69-137.791-30.69s-94.891,10.613-137.791,30.69 c-2.899,1.357-4.753,4.27-4.753,7.472v378.22c0,4.556,3.693,8.249,8.249,8.249h268.589c4.557,0,8.249-3.693,8.249-8.249V99.804 C365.614,96.602,363.761,93.69,360.86,92.333z M223.07,78.141c43.105,0,86.57,9.311,126.046,26.961v46.688H97.024v-46.688 C136.501,87.451,179.966,78.141,223.07,78.141z M97.024,228.97v-60.682h252.091v60.682H97.024z M349.116,245.469v149.356H97.024 V245.469H349.116z M97.024,469.775v-58.453h252.091v58.453H97.024z"></path><path style="fill:#333333;" d="M121.191,380.278h49.396c4.556,0,8.249-3.693,8.249-8.249V266.033c0-4.556-3.693-8.249-8.249-8.249 h-49.396c-4.556,0-8.249,3.693-8.249,8.249v105.996C112.941,376.585,116.635,380.278,121.191,380.278z M129.44,363.78v-11.747 h32.898v11.747H129.44z M129.44,335.534v-32.997h32.898v32.997H129.44z M162.338,274.284v11.756H129.44v-11.756H162.338z"></path><path style="fill:#333333;" d="M275.553,380.278h49.396c4.557,0,8.249-3.693,8.249-8.249V266.033c0-4.556-3.692-8.249-8.249-8.249 h-49.396c-4.557,0-8.249,3.693-8.249,8.249v105.996C267.304,376.585,270.996,380.278,275.553,380.278z M283.802,363.78v-11.747 H316.7v11.747H283.802z M283.802,335.534v-32.997H316.7v32.997H283.802z M316.7,274.284v11.756h-32.898v-11.756H316.7z"></path><path style="fill:#333333;" d="M198.371,380.278h49.396c4.556,0,8.249-3.693,8.249-8.249V266.033c0-4.556-3.693-8.249-8.249-8.249 h-49.396c-4.556,0-8.249,3.693-8.249,8.249v105.996C190.122,376.585,193.815,380.278,198.371,380.278z M206.62,363.78v-11.747 h32.898v11.747H206.62z M206.62,335.534v-32.997h32.898v32.997H206.62z M239.518,274.284v11.756H206.62v-11.756H239.518z"></path><path style="fill:#333333;" d="M170.587,191.021h-49.396c-4.556,0-8.249,3.693-8.249,8.249s3.693,8.249,8.249,8.249h49.396 c4.556,0,8.249-3.693,8.249-8.249S175.142,191.021,170.587,191.021z"></path><path style="fill:#333333;" d="M324.949,191.021h-49.396c-4.557,0-8.249,3.693-8.249,8.249s3.692,8.249,8.249,8.249h49.396 c4.557,0,8.249-3.693,8.249-8.249S329.506,191.021,324.949,191.021z"></path><path style="fill:#333333;" d="M247.767,191.021h-49.396c-4.556,0-8.249,3.693-8.249,8.249s3.693,8.249,8.249,8.249h49.396 c4.556,0,8.249-3.693,8.249-8.249S252.323,191.021,247.767,191.021z"></path><path style="fill:#333333;" d="M170.587,418.369h-49.396c-4.556,0-8.249,3.693-8.249,8.249v26.803c0,4.556,3.693,8.249,8.249,8.249 h49.396c4.556,0,8.249-3.693,8.249-8.249v-26.803C178.836,422.062,175.142,418.369,170.587,418.369z M162.338,445.172H129.44 v-10.305h32.898V445.172z"></path><path style="fill:#333333;" d="M324.949,418.369h-49.396c-4.557,0-8.249,3.693-8.249,8.249v26.803c0,4.556,3.692,8.249,8.249,8.249 h49.396c4.557,0,8.249-3.693,8.249-8.249v-26.803C333.198,422.062,329.506,418.369,324.949,418.369z M316.7,445.172h-32.898 v-10.305H316.7V445.172z"></path><path style="fill:#333333;" d="M247.767,418.369h-49.396c-4.556,0-8.249,3.693-8.249,8.249v26.803c0,4.556,3.693,8.249,8.249,8.249 h49.396c4.556,0,8.249-3.693,8.249-8.249v-26.803C256.016,422.062,252.323,418.369,247.767,418.369z M239.518,445.172H206.62 v-10.305h32.898V445.172z"></path><path style="fill:#333333;" d="M449.953,330.942l-15.391-3.909V171.116c13.038-3.619,22.639-15.587,22.639-29.762 c0-17.032-13.856-30.888-30.888-30.888s-30.889,13.856-30.889,30.888c0,14.175,9.601,26.143,22.64,29.762v151.728l-26.723-6.786 V83.887c0-3.057-1.689-5.862-4.392-7.291c-40.736-21.552-84.61-34.539-129.131-38.979v-2.867C257.818,15.588,242.229,0,223.07,0 s-34.748,15.588-34.748,34.748v2.869c-44.52,4.44-88.395,17.428-129.132,38.979c-2.701,1.429-4.392,4.236-4.392,7.291v419.864 c0,4.556,3.693,8.249,8.249,8.249h320.045c4.557,0,8.249-3.693,8.249-8.249V393.72l58.612-14.886 c3.658-0.928,6.219-4.221,6.219-7.995v-31.901C456.173,335.164,453.612,331.871,449.953,330.942z M411.922,141.354 c0-7.935,6.455-14.39,14.391-14.39c7.935,0,14.39,6.455,14.39,14.39c0,7.935-6.455,14.391-14.39,14.391 C418.377,155.745,411.922,149.288,411.922,141.354z M204.82,34.748c0-10.063,8.186-18.249,18.249-18.249 c10.063,0,18.249,8.187,18.249,18.249v1.616c-12.158-0.635-24.341-0.635-36.5,0v-1.616H204.82z M374.842,495.502H71.297V88.897 c95.401-48.687,208.143-48.687,303.545,0v233.575v64.832L374.842,495.502L374.842,495.502z M439.674,364.423l-48.333,12.275v-43.62 l48.333,12.275V364.423z"></path><path style="fill:#333333;" d="M190.074,141.931h65.994c4.557,0,8.249-3.693,8.249-8.249V97.386c0-2.954-1.581-5.683-4.142-7.154 c-2.561-1.472-5.716-1.46-8.266,0.03l-12.34,7.202l-12.34-7.203c-2.569-1.499-5.748-1.499-8.317,0l-12.34,7.203l-12.34-7.203 c-2.552-1.489-5.705-1.5-8.266-0.029c-2.563,1.471-4.142,4.199-4.142,7.154v36.296 C181.824,138.238,185.517,141.931,190.074,141.931z M198.323,111.752l4.09,2.388c2.569,1.499,5.748,1.499,8.317,0l12.34-7.203 l12.34,7.203c2.569,1.499,5.748,1.5,8.317,0l4.09-2.387v13.68h-49.495L198.323,111.752L198.323,111.752z"></path></g><g><path style="fill:#FFFFFF;" d="M333.173,251.088c-4.557,0-8.249-3.693-8.249-8.249v-98.437c0-4.556,3.692-8.249,8.249-8.249 c4.557,0,8.249,3.693,8.249,8.249v98.437C341.422,247.394,337.729,251.088,333.173,251.088z"></path><circle style="fill:#FFFFFF;" cx="333.168" cy="117.875" r="8.249"></circle><circle style="fill:#FFFFFF;" cx="431.521" cy="137.806" r="8.249"></circle></g></svg>