<svg width="22" height="22" viewBox="0 0 22 22" fill="none" xmlns="http://www.w3.org/2000/svg">
<path fill-rule="evenodd" clip-rule="evenodd" d="M5.32717 1.23682C4.24218 1.23682 3.2016 1.66772 2.43424 2.43478C1.66689 3.20184 1.23559 4.24225 1.23517 5.32725V16.2392C1.23517 17.3245 1.66629 18.3653 2.43369 19.1327C3.20109 19.9001 4.2419 20.3312 5.32717 20.3312H16.2392C17.3242 20.3308 18.3646 19.8995 19.1316 19.1322C19.8987 18.3648 20.3296 17.3242 20.3296 16.2392V5.32725C20.3292 4.24252 19.8981 3.20235 19.1311 2.43534C18.3641 1.66832 17.3239 1.23723 16.2392 1.23682H5.32717ZM17.4162 5.33353C17.4162 5.64611 17.292 5.94588 17.071 6.16691C16.8499 6.38793 16.5502 6.5121 16.2376 6.5121C15.925 6.5121 15.6252 6.38793 15.4042 6.16691C15.1832 5.94588 15.059 5.64611 15.059 5.33353C15.059 5.02095 15.1832 4.72118 15.4042 4.50015C15.6252 4.27913 15.925 4.15496 16.2376 4.15496C16.5502 4.15496 16.8499 4.27913 17.071 4.50015C17.292 4.72118 17.4162 5.02095 17.4162 5.33353ZM10.7847 7.51467C9.91786 7.51467 9.08649 7.85904 8.47351 8.47202C7.86054 9.08499 7.51617 9.91637 7.51617 10.7832C7.51617 11.6501 7.86054 12.4815 8.47351 13.0945C9.08649 13.7074 9.91786 14.0518 10.7847 14.0518C11.6516 14.0518 12.483 13.7074 13.096 13.0945C13.7089 12.4815 14.0533 11.6501 14.0533 10.7832C14.0533 9.91637 13.7089 9.08499 13.096 8.47202C12.483 7.85904 11.6516 7.51467 10.7847 7.51467ZM5.94317 10.7832C5.94317 9.4996 6.4531 8.26852 7.36077 7.36085C8.26845 6.45317 9.49952 5.94325 10.7832 5.94325C12.0668 5.94325 13.2979 6.45317 14.2056 7.36085C15.1132 8.26852 15.6232 9.4996 15.6232 10.7832C15.6232 12.0669 15.1132 13.298 14.2056 14.2056C13.2979 15.1133 12.0668 15.6232 10.7832 15.6232C9.49952 15.6232 8.26845 15.1133 7.36077 14.2056C6.4531 13.298 5.94317 12.0669 5.94317 10.7832Z" fill="#5D5D5D"/>
</svg>
