<svg width="22" height="22" viewBox="0 0 22 22" fill="none" xmlns="http://www.w3.org/2000/svg">
<path fill-rule="evenodd" clip-rule="evenodd" d="M5.32717 1.23669C4.24218 1.23669 3.2016 1.6676 2.43424 2.43466C1.66689 3.20172 1.23559 4.24213 1.23517 5.32712V16.2391C1.23517 17.3244 1.66629 18.3652 2.43369 19.1326C3.20109 19.9 4.2419 20.3311 5.32717 20.3311H16.2392C17.3242 20.3307 18.3646 19.8994 19.1316 19.132C19.8987 18.3647 20.3296 17.3241 20.3296 16.2391V5.32712C20.3292 4.2424 19.8981 3.20223 19.1311 2.43521C18.3641 1.6682 17.3239 1.23711 16.2392 1.23669H5.32717ZM17.4162 5.33341C17.4162 5.64599 17.292 5.94576 17.071 6.16678C16.8499 6.38781 16.5502 6.51198 16.2376 6.51198C15.925 6.51198 15.6252 6.38781 15.4042 6.16678C15.1832 5.94576 15.059 5.64599 15.059 5.33341C15.059 5.02083 15.1832 4.72106 15.4042 4.50003C15.6252 4.27901 15.925 4.15484 16.2376 4.15484C16.5502 4.15484 16.8499 4.27901 17.071 4.50003C17.292 4.72106 17.4162 5.02083 17.4162 5.33341ZM10.7847 7.51455C9.91786 7.51455 9.08649 7.85892 8.47351 8.47189C7.86054 9.08487 7.51617 9.91624 7.51617 10.7831C7.51617 11.65 7.86054 12.4814 8.47351 13.0944C9.08649 13.7073 9.91786 14.0517 10.7847 14.0517C11.6516 14.0517 12.483 13.7073 13.096 13.0944C13.7089 12.4814 14.0533 11.65 14.0533 10.7831C14.0533 9.91624 13.7089 9.08487 13.096 8.47189C12.483 7.85892 11.6516 7.51455 10.7847 7.51455ZM5.94317 10.7831C5.94317 9.49948 6.4531 8.2684 7.36077 7.36073C8.26845 6.45305 9.49952 5.94312 10.7832 5.94312C12.0668 5.94312 13.2979 6.45305 14.2056 7.36073C15.1132 8.2684 15.6232 9.49948 15.6232 10.7831C15.6232 12.0668 15.1132 13.2978 14.2056 14.2055C13.2979 15.1132 12.0668 15.6231 10.7832 15.6231C9.49952 15.6231 8.26845 15.1132 7.36077 14.2055C6.4531 13.2978 5.94317 12.0668 5.94317 10.7831Z" fill="#040404"/>
</svg>
