<!-- icon666.com - MILLIONS vector ICONS FREE --><svg version="1.1" id="Layer_1" xmlns="http://www.w3.org/2000/svg" xmlns:xlink="http://www.w3.org/1999/xlink" x="0px" y="0px" viewBox="0 0 496 496" style="enable-background:new 0 0 496 496;" xml:space="preserve"><path style="fill:#FFA64D;" d="M299.712,487.972c36.48-0.688,70.448-11.584,99.232-29.904v-0.008 c-12.824-42.496-52.272-73.44-98.944-73.44c-47.848,0-88.064,32.536-99.824,76.672C229.392,478.772,263.432,488.66,299.712,487.972z "></path><g><path style="fill:#3F3A34;" d="M491.096,121.028C483.624,87.452,454.392,64.004,420,64.004c-11.032,0-20,8.976-20,20 c0,10.96,12.808,17.544,16.736,19.304l0.544,0.224c12.504,4.52,16.184,43.24,14.72,68.464c0,61.784-45.696,114.672-103.864,122.864 c1.408-61.608,16.872-88.736,29.96-100.592c12.592-11.4,24.496-10.336,24.904-10.32l13.832,1.728l-5.496-12.824 C369.04,120.788,414.8,20.364,415.264,19.356l0.736-1.6V0.004h-8c-24.328,0-48.232,6.232-69.136,18.016 C291.008,45.012,216.352,96.988,192,168.652V24.412c0-10.544-6.344-19.824-15.776-23.08c-10.24-3.544-21.552,0.24-27.52,9.192 l-40.984,61.48H91.904C63.28,72.004,40,95.292,40,123.908v19.96l-17.712,0.072C10,143.996,0,154.044,0,166.34 c0,1.72,0.168,3.4,0.528,5.032C5.408,193.22,24.36,229.364,96,231.868v59.816c0,54.816,22.6,108.424,62.016,147.096 c37.696,36.984,86.608,57.216,138.104,57.216c1.248,0,2.496-0.008,3.744-0.032C408.016,493.916,496,404.212,496,296.004v-130.24 C496,150.756,494.352,135.708,491.096,121.028z M346.728,31.956c15.952-9,33.896-14.336,52.376-15.64 c-7.496,17.184-36.808,89.016-28.248,142.232c-23.112-5.776-68.72-19.72-85.2-36.208l-11.312,11.312 c19.28,19.28,65.208,33.208,87.464,39.072c-4.416,2.064-9.12,4.96-13.832,9.12c-22.776,20.104-34.808,58.464-35.872,114.008 c-31.176,0.032-60.472-11.52-83.056-33.144c-13.072-12.512-22.8-27.448-29.048-43.784v-2.92 C200,127.876,291.928,62.86,346.728,31.956z M272,416.004v-19.128c5.176-1.592,10.52-2.736,16-3.432v86.336 c-5.368-0.24-10.712-0.688-16-1.408v-46.368h-16v43.424c-5.408-1.248-10.736-2.776-16-4.528v-57.016 c4.96-4.016,10.312-7.536,16-10.488v12.608H272z M368,440.004v-18.712c9.16,9.288,16.44,20.488,21.184,33.032 c-6.8,4.04-13.872,7.672-21.184,10.824v-9.144h-16v15.168c-5.24,1.696-10.568,3.184-16,4.4V399.82c5.6,2.312,10.952,5.144,16,8.448 v31.736H368z M320,478.388c-5.264,0.696-10.608,1.144-16,1.384V392.78c5.432,0.232,10.776,0.928,16,2.064V478.388z M224,464.7 c-4.872-2.16-9.656-4.552-14.352-7.152c3.336-9.944,8.232-19.064,14.352-27.144V464.7z M402.832,445.388 c-17.04-40.968-57.824-68.776-102.832-68.776c-46.92,0-88.208,29.256-104.264,72.4c-9.344-6.328-18.232-13.536-26.512-21.656 C132.856,391.676,112,342.22,112,291.684v-75.68h-8c-20.48,0-37.752-2.944-51.544-8.512c19.584-2.224,37.736-11.736,49.744-26.416 L89.808,170.94c-10.792,13.192-28.048,21.064-46.176,21.064h-14.76c-6.32-6.72-10.632-14.752-12.712-24.072 c-0.104-0.472-0.16-1.008-0.16-1.592c0-3.512,2.848-6.376,6.36-6.392L56,159.796v-35.888c0-19.792,16.112-35.904,35.904-35.904 h24.376l45.736-68.6c1.952-2.936,5.544-4.128,8.984-2.944c2.944,1.016,5,4.288,5,7.952v151.592c0,11.4,1.544,22.504,4.224,33.248 c-16.616,3.104-38.024,12.96-43.984,36.808l15.512,3.88c4.632-18.52,23.048-23.8,33.296-25.312 c4.528,11.848,10.728,23,18.496,33.232c-13.44,3.752-29.728,13.88-35.312,36.208l15.512,3.872 c6.168-24.648,29.8-25.872,32.08-25.928c0.736,0.736,1.384,1.544,2.144,2.264c27.064,25.888,62.704,39.296,100.16,37.592 C390.96,308.66,448,247.212,447.984,172.46c0.728-12.184,2.912-73.312-24.928-83.856c-2.776-1.288-6.552-3.896-7.056-4.6 c0-2.208,1.8-4,4-4c26.832,0,49.648,18.296,55.472,44.496c3.008,13.536,4.528,27.424,4.528,41.264v130.24 c0,13.04-1.424,25.784-4.064,38.104C465.368,323.9,446.56,312.004,416,312.004v16c34.048,0,49.84,17.344,54.936,24.56 c-2.608,7.96-5.728,15.696-9.36,23.16c-10.2-10.52-29.392-23.72-61.576-23.72v16c31.288,0,47.152,14.64,53.472,22.616 C440.464,412.1,423.168,430.74,402.832,445.388z"></path><path style="fill:#3F3A34;" d="M96,104.004c-13.232,0-24,10.768-24,24s10.768,24,24,24s24-10.768,24-24S109.232,104.004,96,104.004 z M96,136.004c-4.416,0-8-3.592-8-8s3.584-8,8-8s8,3.592,8,8S100.416,136.004,96,136.004z"></path></g></svg>