<!-- icon666.com - MILLIONS vector ICONS FREE --><svg version="1.1" id="Capa_1" xmlns="http://www.w3.org/2000/svg" xmlns:xlink="http://www.w3.org/1999/xlink" x="0px" y="0px" viewBox="0 0 512 512" style="enable-background:new 0 0 512 512;" xml:space="preserve"><path style="fill:#FECF05;" d="M255.999,504.5c-66.263,0-128.56-25.849-175.415-72.784C33.729,384.779,7.925,322.377,7.925,256 S33.729,127.221,80.584,80.284C127.439,33.349,189.736,7.5,255.999,7.5s128.56,25.849,175.415,72.784 c46.855,46.937,72.66,109.339,72.66,175.716s-25.805,128.779-72.66,175.716C384.559,478.651,322.262,504.5,255.999,504.5z"></path><path style="opacity:0.1;enable-background:new ;" d="M98.51,431.716C51.654,384.779,25.851,322.377,25.851,256 s25.804-128.779,72.66-175.716C143.246,35.472,202.061,9.9,264.962,7.677c-2.98-0.106-5.966-0.177-8.963-0.177 c-66.263,0-128.56,25.849-175.415,72.784C33.729,127.221,7.925,189.623,7.925,256s25.804,128.779,72.66,175.716 c46.854,46.935,109.151,72.784,175.414,72.784c2.997,0,5.983-0.071,8.963-0.177C202.061,502.1,143.246,476.528,98.51,431.716z"></path><ellipse style="fill:#EE3835;" cx="255.999" cy="256" rx="206.99" ry="207.35"></ellipse><g><path style="fill:#C0272D;" d="M459.625,218.6l-32.483,6.061c5.688,9.086,8.988,19.824,8.988,31.34s-3.3,22.254-8.988,31.34 l32.482,6.061c2.207-12.132,3.367-24.63,3.367-37.4C462.991,243.23,461.831,230.731,459.625,218.6z"></path><path style="fill:#C0272D;" d="M340.969,196.909l85.396-58.681c-14.261-20.662-32.168-38.601-52.794-52.886l-76.403,111.566h43.801 V196.909z"></path><path style="fill:#C0272D;" d="M266.397,196.909l26.939-144.884c-12.112-2.21-24.589-3.372-37.338-3.372 c-12.748,0-25.224,1.161-37.335,3.371L245.6,196.909L266.397,196.909L266.397,196.909z"></path><path style="fill:#C0272D;" d="M214.832,196.909L138.43,85.341c-20.627,14.286-38.534,32.224-52.795,52.886l85.397,58.683h43.8 V196.909z"></path><path style="fill:#C0272D;" d="M75.869,256c0-11.517,3.3-22.255,8.989-31.342l-32.484-6.061 C50.168,230.73,49.007,243.23,49.007,256c0,12.77,1.16,25.269,3.366,37.399l32.483-6.06C79.168,278.254,75.869,267.516,75.869,256z "></path><path style="fill:#C0272D;" d="M171.029,315.091l-85.396,58.681c14.261,20.662,32.169,38.601,52.795,52.887l76.403-111.567 L171.029,315.091L171.029,315.091z"></path><path style="fill:#C0272D;" d="M245.602,315.091l-26.938,144.885c12.112,2.21,24.588,3.371,37.336,3.371 c12.748,0,25.225-1.161,37.336-3.371l-26.939-144.885H245.602z"></path><path style="fill:#C0272D;" d="M297.167,315.091l76.403,111.567c20.626-14.286,38.534-32.225,52.795-52.886l-85.396-58.682 L297.167,315.091L297.167,315.091z"></path></g><path style="fill:#FFFFFF;" d="M436.129,256c0,32.635-26.411,59.091-58.99,59.091h-242.28c-32.58,0-58.99-26.456-58.99-59.091l0,0 c0-32.635,26.411-59.091,58.99-59.091h242.28C409.719,196.909,436.129,223.365,436.129,256L436.129,256z"></path><path style="opacity:0.1;enable-background:new ;" d="M95.738,256c0-32.635,26.411-59.091,58.99-59.091h-19.87 c-32.58,0-58.99,26.456-58.99,59.091s26.411,59.091,58.99,59.091h19.87C122.149,315.091,95.738,288.635,95.738,256z"></path><g><path style="fill:#FECF05;" d="M193.717,403.731c-0.587,0-1.178-0.104-1.744-0.317l-14.508-5.429l-14.508,5.429 c-0.565,0.213-1.156,0.316-1.743,0.316c-1.032,0-2.056-0.322-2.916-0.943c-1.348-0.978-2.114-2.563-2.04-4.223l0.696-15.433 l-9.663-12.075c-1.039-1.3-1.354-3.032-0.839-4.613c0.514-1.578,1.791-2.796,3.398-3.237l14.938-4.107l8.538-12.893 c0.917-1.387,2.473-2.221,4.14-2.221c1.667,0,3.223,0.834,4.14,2.221l8.537,12.893l14.939,4.107 c1.607,0.441,2.884,1.659,3.399,3.237c0.516,1.581,0.2,3.313-0.838,4.613l-9.664,12.075l0.696,15.434 c0.073,1.659-0.693,3.246-2.04,4.222C195.772,403.41,194.751,403.731,193.717,403.731z"></path><path style="fill:#FECF05;" d="M272.249,403.731c-0.587,0-1.177-0.104-1.744-0.317l-14.507-5.429l-14.507,5.429 c-0.566,0.213-1.156,0.316-1.744,0.316c-1.033,0-2.057-0.322-2.917-0.943c-1.348-0.978-2.113-2.563-2.039-4.223l0.696-15.433 l-9.665-12.075c-1.039-1.3-1.354-3.032-0.839-4.613c0.516-1.578,1.792-2.796,3.398-3.237l14.939-4.107l8.537-12.893 c0.917-1.387,2.474-2.221,4.14-2.221c1.666,0,3.223,0.834,4.139,2.221l8.538,12.893l14.939,4.107 c1.607,0.441,2.884,1.659,3.4,3.237c0.516,1.581,0.199,3.313-0.839,4.613l-9.663,12.075l0.696,15.434 c0.073,1.659-0.691,3.246-2.04,4.222C274.306,403.41,273.283,403.731,272.249,403.731z"></path><path style="fill:#FECF05;" d="M350.783,403.731c-0.587,0-1.178-0.104-1.745-0.317l-14.507-5.429l-14.508,5.429 c-0.567,0.213-1.156,0.316-1.744,0.316c-1.032,0-2.056-0.322-2.917-0.943c-1.347-0.978-2.114-2.563-2.04-4.223l0.697-15.433 l-9.665-12.075c-1.039-1.3-1.354-3.032-0.839-4.613c0.516-1.578,1.792-2.796,3.398-3.237l14.938-4.107l8.536-12.893 c0.919-1.387,2.475-2.221,4.142-2.221c1.666,0,3.223,0.834,4.139,2.221l8.538,12.893l14.939,4.107 c1.606,0.441,2.883,1.659,3.399,3.237c0.516,1.581,0.2,3.313-0.839,4.613l-9.663,12.075l0.695,15.434 c0.074,1.659-0.692,3.246-2.042,4.222C352.838,403.41,351.815,403.731,350.783,403.731z"></path><path style="fill:#FECF05;" d="M193.717,162.747c-0.587,0-1.178-0.105-1.744-0.317l-14.508-5.429l-14.508,5.429 c-0.565,0.213-1.156,0.316-1.743,0.316c-1.032,0-2.056-0.322-2.916-0.943c-1.348-0.978-2.114-2.563-2.04-4.223l0.696-15.433 l-9.663-12.075c-1.039-1.3-1.354-3.032-0.839-4.613c0.514-1.578,1.791-2.796,3.398-3.237l14.938-4.107l8.538-12.894 c0.917-1.387,2.473-2.221,4.14-2.221c1.667,0,3.223,0.834,4.14,2.221l8.537,12.894l14.939,4.107 c1.607,0.441,2.884,1.659,3.399,3.237c0.516,1.581,0.2,3.314-0.838,4.613l-9.664,12.075l0.696,15.434 c0.073,1.659-0.693,3.246-2.04,4.222C195.772,162.426,194.751,162.747,193.717,162.747z"></path><path style="fill:#FECF05;" d="M350.783,162.747c-0.587,0-1.178-0.105-1.745-0.317l-14.507-5.429l-14.508,5.429 c-0.567,0.213-1.156,0.316-1.744,0.316c-1.032,0-2.056-0.322-2.917-0.943c-1.347-0.978-2.114-2.563-2.04-4.223l0.697-15.433 l-9.665-12.075c-1.039-1.3-1.354-3.032-0.839-4.613c0.516-1.578,1.792-2.796,3.398-3.237l14.938-4.107l8.536-12.894 c0.919-1.387,2.475-2.221,4.142-2.221c1.666,0,3.223,0.834,4.139,2.221l8.538,12.894l14.939,4.107 c1.606,0.441,2.883,1.659,3.399,3.237c0.516,1.581,0.2,3.314-0.839,4.613l-9.663,12.075l0.695,15.434 c0.074,1.659-0.692,3.246-2.042,4.222C352.838,162.426,351.815,162.747,350.783,162.747z"></path><path style="fill:#FECF05;" d="M283.799,169c-1.004,0-2.014-0.178-2.984-0.542l-24.817-9.286l-24.818,9.286 c-0.968,0.364-1.978,0.541-2.982,0.541c-1.767,0-3.518-0.552-4.99-1.614c-2.306-1.672-3.615-4.383-3.488-7.224l1.191-26.399 l-16.533-20.656c-1.777-2.225-2.317-5.188-1.435-7.893c0.882-2.699,3.066-4.782,5.813-5.537l25.555-7.027l14.604-22.057 c1.569-2.372,4.231-3.798,7.083-3.798c2.851,0,5.513,1.426,7.08,3.798l14.605,22.057l25.555,7.027 c2.749,0.755,4.933,2.838,5.816,5.537c0.882,2.705,0.341,5.668-1.436,7.893l-16.53,20.656l1.19,26.402 c0.125,2.838-1.183,5.553-3.49,7.221C287.316,168.451,285.566,169,283.799,169z"></path></g><path d="M460.409,190.723c-1.256-3.947-5.476-6.131-9.42-4.874c-3.948,1.256-6.13,5.474-4.874,9.421 c1.817,5.714,3.365,11.504,4.657,17.353l-20.218,3.771c-12.126-16.36-31.552-26.984-53.414-26.984h-12.012l59.203-40.683 c3.429,5.392,6.62,10.948,9.531,16.672c1.878,3.691,6.393,5.162,10.086,3.284c3.692-1.878,5.163-6.393,3.285-10.085 c-17.688-34.776-44.524-64.118-77.605-84.854c-34.018-21.321-73.31-32.591-113.629-32.591c-57.295,0-111.16,22.35-151.673,62.932 C63.817,144.664,41.507,198.615,41.507,256s22.31,111.336,62.819,151.915c40.513,40.582,94.378,62.932,151.673,62.932 s111.16-22.35,151.673-62.932c40.509-40.579,62.819-94.53,62.819-151.915C470.491,233.722,467.099,211.76,460.409,190.723z M453.452,227.381c1.351,9.438,2.04,18.995,2.039,28.619c0,9.716-0.71,19.268-2.054,28.616l-14.966-2.792 c3.381-8.055,5.158-16.787,5.159-25.824c0-9.149-1.854-17.873-5.202-25.816L453.452,227.381z M377.139,204.409 c28.392,0,51.49,23.144,51.49,51.591c-0.001,14.176-5.622,27.393-15.83,37.215c-2.985,2.872-3.076,7.62-0.204,10.604 c2.872,2.985,7.62,3.076,10.604,0.204c2.725-2.622,5.182-5.441,7.389-8.41l20.156,3.761c-5.106,23.023-14.178,44.565-26.474,63.859 l-59.145-40.643h12.013c5.275,0,10.53-0.622,15.619-1.85c4.026-0.972,6.503-5.023,5.532-9.05c-0.972-4.025-5.021-6.504-9.05-5.532 c-3.938,0.95-8.009,1.432-12.101,1.432H134.859c-28.392,0-51.49-23.143-51.49-51.591s23.099-51.591,51.49-51.591h242.28V204.409z M349.188,378.445c-1.137,1.421-1.718,3.206-1.636,5.024l0.522,11.575l-10.914-4.084c-0.847-0.317-1.738-0.475-2.628-0.475 c-0.891,0-1.781,0.158-2.628,0.475l-10.914,4.084l0.523-11.574c0.083-1.818-0.499-3.604-1.637-5.025l-7.232-9.036l11.198-3.079 c1.749-0.48,3.264-1.579,4.266-3.091l6.422-9.702l6.425,9.702c1.001,1.513,2.517,2.61,4.265,3.091l11.2,3.079L349.188,378.445z M304.928,355.974c-4.045,1.112-7.238,4.155-8.542,8.146c-1.301,3.994-0.512,8.338,2.114,11.623l7.9,9.871l-0.57,12.617 c-0.186,4.188,1.731,8.161,5.143,10.637c2.141,1.545,4.668,2.362,7.307,2.362c1.502,0,2.976-0.268,4.372-0.792l11.879-4.445 l11.868,4.441c1.407,0.528,2.881,0.797,4.383,0.797c0.988,0,1.96-0.114,2.901-0.339l9.364,13.675 c-19.258,12.316-40.759,21.405-63.736,26.521l-12.741-68.524l5.462-6.826c2.623-3.283,3.413-7.628,2.109-11.624 c-1.302-3.985-4.495-7.028-8.54-8.14l-4.189-1.152l-5.993-32.232h17.793l21.095,30.804L304.928,355.974z M269.54,395.045 l-10.914-4.084c-0.847-0.317-1.738-0.475-2.628-0.475c-0.891,0-1.781,0.158-2.628,0.475l-10.912,4.083l0.522-11.574 c0.082-1.817-0.499-3.603-1.637-5.024l-7.232-9.036l11.198-3.079c1.748-0.48,3.264-1.579,4.265-3.091l6.423-9.701l6.424,9.701 c1.001,1.512,2.517,2.61,4.265,3.091l11.2,3.079l-7.231,9.036c-1.137,1.421-1.718,3.207-1.636,5.024L269.54,395.045z M183.889,363.239c1.001,1.512,2.517,2.61,4.265,3.091l11.2,3.08l-7.231,9.035c-1.137,1.421-1.719,3.207-1.637,5.024l0.521,11.575 l-10.914-4.084c-0.848-0.317-1.738-0.475-2.628-0.475c-0.891,0-1.781,0.158-2.628,0.475l-10.913,4.083l0.521-11.574 c0.082-1.817-0.499-3.603-1.636-5.024l-7.232-9.036l11.198-3.079c1.749-0.48,3.264-1.579,4.265-3.091l6.424-9.701L183.889,363.239z M158.315,410.893c0.941,0.224,1.912,0.338,2.898,0.338c1.506,0,2.982-0.269,4.372-0.792l11.88-4.445l11.866,4.439 c1.407,0.53,2.883,0.799,4.386,0.799c2.643,0,5.173-0.819,7.314-2.369c3.401-2.462,5.32-6.435,5.135-10.635l-0.568-12.613 l7.904-9.877c2.622-3.283,3.41-7.627,2.108-11.621c-1.301-3.986-4.495-7.03-8.54-8.142l-9.38-2.579l21.095-30.805h17.794 l-5.993,32.232l-4.19,1.152c-4.045,1.111-7.238,4.154-8.541,8.144c-1.303,3.994-0.514,8.339,2.114,11.625l5.46,6.822l-12.741,68.523 c-22.978-5.116-44.478-14.205-63.736-26.521L158.315,410.893z M248.832,338.746l3.003-16.155h8.328l3.004,16.157 c-2.066-1.453-4.557-2.264-7.169-2.264C253.387,336.484,250.897,337.294,248.832,338.746z M56.507,256 c0-9.717,0.71-19.269,2.054-28.619l15.01,2.801c-3.348,7.943-5.202,16.668-5.202,25.818c0,9.149,1.854,17.872,5.202,25.815 l-15.009,2.8C57.217,275.267,56.507,265.716,56.507,256z M81.444,295.605c12.126,16.36,31.553,26.985,53.415,26.985h12.012 l-59.144,40.642c-12.295-19.295-21.368-40.838-26.474-63.86L81.444,295.605z M162.809,137.461l-7.232-9.036l11.198-3.079 c1.749-0.481,3.264-1.579,4.265-3.091l6.424-9.701l6.424,9.701c1.001,1.512,2.517,2.61,4.265,3.091l11.2,3.08l-7.231,9.035 c-1.137,1.421-1.719,3.207-1.637,5.024l0.521,11.575l-10.914-4.084c-0.848-0.317-1.738-0.476-2.628-0.476 c-0.891,0-1.781,0.158-2.628,0.476l-10.913,4.083l0.521-11.574C164.527,140.668,163.947,138.882,162.809,137.461z M301.252,106.908 c0.32,0.088,0.572,0.325,0.671,0.631c0.099,0.301,0.037,0.633-0.162,0.881l-16.53,20.656c-1.137,1.42-1.718,3.206-1.636,5.023 l1.189,26.396c0.014,0.321-0.132,0.624-0.398,0.816c-0.385,0.279-0.672,0.224-0.944,0.122l-24.817-9.286 c-0.848-0.317-1.738-0.476-2.628-0.476c-0.891,0-1.781,0.158-2.628,0.476l-24.83,9.291c-0.299,0.111-0.678,0.057-0.929-0.125 c-0.264-0.191-0.413-0.497-0.398-0.815l1.191-26.399c0.082-1.817-0.499-3.604-1.637-5.024l-16.529-20.651 c-0.201-0.252-0.263-0.583-0.165-0.881c0.101-0.31,0.353-0.548,0.673-0.636l25.555-7.027c1.749-0.48,3.264-1.579,4.265-3.091 l14.605-22.059c0.361-0.546,1.288-0.551,1.654,0.002l14.605,22.057c1.001,1.512,2.517,2.61,4.265,3.091L301.252,106.908z M345.22,125.346l11.2,3.079l-7.231,9.036c-1.137,1.421-1.718,3.206-1.636,5.024l0.522,11.575l-10.914-4.084 c-0.847-0.317-1.738-0.476-2.628-0.476c-0.891,0-1.781,0.158-2.628,0.476l-10.914,4.084l0.523-11.574 c0.083-1.818-0.499-3.604-1.637-5.025l-7.232-9.036l11.198-3.079c1.749-0.481,3.264-1.579,4.266-3.091l6.422-9.702l6.425,9.702 C341.956,123.768,343.471,124.865,345.22,125.346z M236.579,189.409h-17.793l-15.896-23.213c2.215-2.41,3.425-5.603,3.277-8.953 L205.6,144.63l7.202-8.999l0.491,0.613l-1.064,23.582c-0.24,5.374,2.219,10.47,6.591,13.64c2.749,1.984,5.992,3.033,9.379,3.033 c1.93,0,3.822-0.344,5.611-1.017l0.169-0.064L236.579,189.409z M278.022,175.421l0.156,0.059c1.804,0.677,3.695,1.02,5.621,1.02 c3.396,0,6.644-1.052,9.383-3.037c4.364-3.154,6.827-8.25,6.589-13.637l-1.062-23.582l0.49-0.613l7.202,8.999l-0.57,12.617 c-0.148,3.342,1.06,6.533,3.28,8.949l-15.896,23.213h-17.793L278.022,175.421z M263.757,170.083l-3.594,19.326h-8.328l-3.593-19.327 l7.756-2.902L263.757,170.083z M206.77,92.444c-5.189,1.426-9.285,5.328-10.956,10.442c-0.96,2.943-1.029,6.033-0.278,8.932 l-0.692-0.19l-6.982-10.544c-2.312-3.496-6.198-5.584-10.395-5.584c-4.198,0-8.084,2.088-10.394,5.58l-4.313,6.514l-13.807-20.162 c19.258-12.316,40.759-21.404,63.737-26.521l5.289,28.451L206.77,92.444z M415.819,136.374l-77.179,53.035h-27.247l14.496-21.166 l8.643-3.234l11.868,4.441c1.407,0.528,2.881,0.797,4.383,0.797c2.644,0,5.174-0.819,7.309-2.366 c3.405-2.461,5.327-6.437,5.14-10.638l-0.568-12.613l7.903-9.876c2.624-3.284,3.413-7.629,2.108-11.624 c-1.302-3.985-4.495-7.028-8.54-8.14l-1.497-0.412l12.773-18.65C390.764,107.436,404.377,121.053,415.819,136.374z M363.084,87.381 l-13.845,20.218l-4.311-6.51c-2.31-3.5-6.197-5.589-10.397-5.589c-4.195,0-8.081,2.086-10.396,5.58l-6.983,10.549l-0.69,0.189 c0.75-2.898,0.682-5.99-0.279-8.936c-1.671-5.111-5.767-9.014-10.956-10.438l-11.205-3.081l5.293-28.463 c22.007,4.885,43.087,13.483,62.344,25.554C362.141,86.756,362.607,87.076,363.084,87.381z M284.56,58.201l-4.536,24.397 l-10.689-16.142c-2.964-4.485-7.95-7.163-13.337-7.163c-5.386,0-10.372,2.677-13.336,7.157l-10.687,16.141l-4.533-24.383 c9.329-1.346,18.861-2.056,28.557-2.056C265.605,56.153,275.147,56.846,284.56,58.201z M136.624,95.978l12.737,18.6l-1.499,0.412 c-4.049,1.113-7.242,4.158-8.541,8.146c-1.301,3.993-0.512,8.336,2.114,11.623l7.899,9.871l-0.569,12.615 c-0.187,4.19,1.73,8.164,5.143,10.639c2.141,1.545,4.667,2.362,7.306,2.362c1.506,0,2.982-0.269,4.372-0.792l11.88-4.445 l8.647,3.235l14.494,21.165h-27.248l-35.115-24.13c-3.414-2.346-8.083-1.479-10.429,1.934c-2.346,3.414-1.48,8.083,1.934,10.43 l17.124,11.767h-12.014c-21.861,0-41.287,10.624-53.413,26.983l-20.192-3.768c5.105-23.023,14.178-44.564,26.474-63.859 l18.023,12.385c1.298,0.892,2.777,1.319,4.241,1.319c2.387,0,4.734-1.138,6.188-3.253c2.346-3.414,1.48-8.083-1.934-10.43 l-17.993-12.364C107.716,121.094,121.323,107.463,136.624,95.978z M96.251,375.575l77.106-52.984h27.247l-13.056,19.066 c-2.339-3.238-6.061-5.172-10.085-5.172c-4.198,0-8.084,2.088-10.394,5.58l-6.985,10.548l-12.225,3.361 c-4.049,1.113-7.242,4.158-8.541,8.146c-1.301,3.993-0.512,8.336,2.114,11.623l7.899,9.871l-0.569,12.615 c-0.001,0.021,0.002,0.04,0.001,0.061l-12.143,17.732C121.321,404.536,107.715,390.904,96.251,375.575z M227.441,453.79 l8.053-43.313c1.353,0.492,2.784,0.754,4.253,0.754c1.503,0,2.978-0.268,4.372-0.792l11.879-4.445l11.871,4.442 c1.407,0.528,2.881,0.796,4.381,0.796c1.471,0,2.903-0.263,4.254-0.753l8.053,43.312c-9.33,1.346-18.862,2.057-28.558,2.057 C246.303,455.848,236.771,455.136,227.441,453.79z M375.375,416.022l-12.144-17.734c-0.001-0.02,0.002-0.039,0.001-0.06 l-0.568-12.613l7.903-9.876c2.624-3.284,3.413-7.629,2.108-11.624c-1.302-3.985-4.495-7.028-8.54-8.14l-12.227-3.362l-6.98-10.539 c-2.31-3.5-6.197-5.589-10.397-5.589c-4.021,0-7.743,1.932-10.084,5.168l-13.054-19.062h27.247l77.107,52.985 C404.283,390.905,390.676,404.537,375.375,416.022z"></path><path d="M436.722,74.985C388.449,26.63,324.268,0,255.999,0S123.549,26.63,75.276,74.985C27.008,123.337,0.425,187.623,0.425,256 s26.583,132.663,74.852,181.015C123.549,485.37,187.73,512,255.999,512s132.45-26.63,180.723-74.985 c48.268-48.353,74.852-112.639,74.852-181.015S484.99,123.339,436.722,74.985z M426.106,426.417 C380.668,471.934,320.256,497,255.999,497S131.33,471.934,85.893,426.417C40.451,380.897,15.425,320.375,15.425,256 S40.451,131.102,85.892,85.583C131.33,40.066,191.742,15,255.999,15s124.669,25.066,170.106,70.583 c45.442,45.521,70.468,106.043,70.468,170.417S471.547,380.897,426.106,426.417z"></path><path d="M41.559,335.02c-3.83,1.55-5.69,5.92-4.13,9.76c1.18,2.921,3.99,4.69,6.95,4.69c0.94,0,1.89-0.18,2.82-0.55 c3.84-1.56,5.69-5.93,4.13-9.77C49.769,335.31,45.399,333.46,41.559,335.02z"></path><path d="M103.459,93.34c1.79,0,3.58-0.63,5.02-1.92c3.08-2.771,3.33-7.521,0.56-10.59c-2.77-3.08-7.52-3.33-10.6-0.561 c-3.07,2.771-3.32,7.51-0.55,10.59C99.369,92.51,101.41,93.34,103.459,93.34z"></path><path d="M74.579,116.939c1.4,1.15,3.08,1.7,4.75,1.7c2.17,0,4.32-0.939,5.81-2.75c2.62-3.21,2.15-7.93-1.06-10.55 c-3.21-2.63-7.93-2.15-10.55,1.05C70.899,109.6,71.379,114.319,74.579,116.939z"></path><path d="M56.099,366.8c-3.56,2.13-4.72,6.729-2.59,10.29c1.4,2.35,3.89,3.65,6.44,3.65c1.31,0,2.64-0.341,3.84-1.061 c3.56-2.12,4.72-6.729,2.59-10.28C64.259,365.84,59.649,364.68,56.099,366.8z"></path><path d="M27.769,246.649c0.18,0.011,0.36,0.021,0.55,0.021c3.89,0,7.18-3.01,7.47-6.96c0.3-4.13-2.81-7.72-6.94-8.021 c-4.13-0.31-7.72,2.801-8.019,6.931C20.529,242.75,23.629,246.35,27.769,246.649z"></path><path d="M55.509,146.27c1.19,0.71,2.51,1.04,3.8,1.04c2.57,0,5.07-1.319,6.47-3.689c2.1-3.561,0.92-8.16-2.65-10.271 c-3.57-2.1-8.17-0.92-10.27,2.65C50.749,139.569,51.939,144.17,55.509,146.27z"></path><path d="M41.079,306.94c-0.95-4.029-4.98-6.529-9.02-5.58c-4.03,0.95-6.53,4.98-5.58,9.021c0.81,3.45,3.89,5.78,7.3,5.78 c0.56,0,1.14-0.07,1.72-0.2C39.529,315.01,42.029,310.97,41.079,306.94z"></path><path d="M31.809,211.91c0.57,0.13,1.13,0.189,1.69,0.189c3.41,0,6.5-2.35,7.3-5.83c0.93-4.029-1.6-8.059-5.63-8.98 c-4.04-0.931-8.07,1.59-8.99,5.63C25.249,206.96,27.779,210.98,31.809,211.91z"></path><path d="M41.129,178.17c0.91,0.37,1.85,0.54,2.78,0.54c2.97,0,5.79-1.79,6.96-4.73c1.54-3.84-0.34-8.21-4.18-9.739 c-3.85-1.54-8.21,0.34-9.75,4.189C35.409,172.27,37.279,176.64,41.129,178.17z"></path><path d="M419.809,104.21c1.88,0,3.77-0.7,5.22-2.11c2.98-2.89,3.05-7.64,0.17-10.609c-2.89-2.98-7.63-3.051-10.61-0.171 c-2.97,2.891-3.05,7.631-0.16,10.61C415.899,103.45,417.859,104.21,419.809,104.21z"></path><path d="M131.149,72.01c1.41,0,2.84-0.4,4.11-1.231c3.46-2.269,4.43-6.92,2.16-10.39c-2.27-3.46-6.92-4.43-10.39-2.16 c-3.46,2.271-4.43,6.931-2.16,10.391C126.309,70.81,128.71,72.01,131.149,72.01z"></path><path d="M263.549,34.939c0.08,0,0.17,0,0.25,0c4.03,0,7.36-3.199,7.5-7.25c0.14-4.14-3.11-7.609-7.25-7.739c0-0.011,0-0.011,0-0.011 c-4.14-0.14-7.61,3.11-7.74,7.25C256.169,31.33,259.409,34.8,263.549,34.939z"></path><path d="M75.319,396.01c-3.19,2.64-3.64,7.37-1,10.56c1.48,1.79,3.63,2.721,5.78,2.721c1.69,0,3.38-0.561,4.78-1.721 c3.19-2.64,3.64-7.369,1-10.56S78.509,393.37,75.319,396.01z"></path><path d="M228.869,36.41c0.29,0,0.59-0.021,0.89-0.061c4.11-0.49,7.05-4.22,6.57-8.33c-0.49-4.109-4.22-7.05-8.33-6.56 c-4.12,0.48-7.06,4.22-6.57,8.33C221.88,33.6,225.119,36.41,228.869,36.41z"></path><path d="M329.779,47.45v0.01c0.83,0.29,1.67,0.43,2.51,0.43c3.08,0,5.97-1.92,7.07-4.99c1.38-3.909-0.66-8.189-4.56-9.58 c-3.9-1.38-8.19,0.66-9.58,4.561C323.829,41.779,325.869,46.069,329.779,47.45z"></path><path d="M297.149,38.64c0.47,0.09,0.94,0.13,1.4,0.13c3.54,0,6.68-2.51,7.36-6.109c0.77-4.07-1.9-7.99-5.97-8.761 c-4.08-0.77-8,1.91-8.77,5.98C290.409,33.95,293.079,37.87,297.149,38.64z"></path><path d="M194.579,43.18c0.67,0,1.35-0.09,2.03-0.28c3.99-1.109,6.32-5.25,5.2-9.239c-1.11-3.99-5.25-6.32-9.24-5.21 c-3.99,1.119-6.32,5.25-5.21,9.239C188.289,41.01,191.299,43.18,194.579,43.18z"></path><path d="M161.749,55.149c1.04,0,2.09-0.22,3.1-0.67v-0.01c3.77-1.71,5.44-6.16,3.72-9.93c-1.71-3.771-6.16-5.431-9.93-3.721 c-3.77,1.71-5.44,6.16-3.72,9.931C156.169,53.52,158.899,55.149,161.749,55.149z"></path><path d="M389.109,79.51c1.36,1.019,2.95,1.519,4.52,1.519c2.27,0,4.51-1.019,5.99-2.97c2.5-3.3,1.85-8.01-1.45-10.51 c-3.3-2.5-8-1.85-10.5,1.45C385.159,72.3,385.809,77,389.109,79.51z"></path><path d="M360.679,61.2v-0.011c1.13,0.62,2.35,0.91,3.56,0.91c2.66,0,5.24-1.43,6.6-3.939c1.97-3.641,0.61-8.19-3.03-10.16 c-3.64-1.971-8.2-0.61-10.16,3.029C355.679,54.68,357.039,59.229,360.679,61.2z"></path><path d="M28.989,281.6c4.13-0.33,7.22-3.939,6.89-8.07c-0.32-4.119-3.93-7.21-8.06-6.89c-4.13,0.33-7.22,3.941-6.89,8.061 c0.31,3.93,3.59,6.92,7.47,6.92C28.599,281.62,28.789,281.609,28.989,281.6z"></path><path d="M447.169,381.279c-3.39-2.38-8.07-1.56-10.45,1.83c-2.38,3.391-1.56,8.07,1.83,10.45c1.31,0.92,2.81,1.36,4.3,1.36 c2.36,0,4.69-1.11,6.15-3.19C451.379,388.34,450.559,383.66,447.169,381.279z"></path><path d="M109.349,421.359c-3.09-2.76-7.84-2.479-10.59,0.61c-2.76,3.1-2.48,7.83,0.61,10.59c1.43,1.271,3.21,1.9,4.99,1.9 c2.06,0,4.12-0.851,5.6-2.51C112.719,428.85,112.439,424.12,109.349,421.359z"></path><path d="M474.059,221.069c0.59,3.7,3.78,6.33,7.4,6.33c0.39,0,0.79-0.029,1.18-0.09c4.1-0.649,6.89-4.49,6.24-8.58 c-0.65-4.09-4.49-6.88-8.58-6.239C476.209,213.14,473.419,216.98,474.059,221.069z"></path><path d="M466.229,188.189c1.02,3.181,3.97,5.21,7.14,5.21c0.76,0,1.53-0.12,2.3-0.359c3.94-1.27,6.11-5.49,4.85-9.431 c-1.27-3.949-5.49-6.119-9.44-4.85C467.139,180.02,464.959,184.25,466.229,188.189z"></path><path d="M460.169,161.04c1.12,0,2.27-0.261,3.35-0.8c3.7-1.86,5.2-6.36,3.34-10.061c-1.85-3.71-6.36-5.21-10.06-3.35 c-3.71,1.859-5.2,6.359-3.35,10.069C454.769,159.52,457.419,161.04,460.169,161.04z"></path><path d="M491.799,254.7c-0.03-4.141-3.4-7.48-7.54-7.46c-4.14,0.02-7.49,3.399-7.46,7.539c0,0.211,0.01,0.41,0.02,0.61 c-0.01,0.2-0.02,0.4-0.02,0.61c0,4.14,3.36,7.5,7.5,7.5s7.5-3.36,7.5-7.5c0-0.221-0.01-0.431-0.03-0.641 C491.789,255.14,491.799,254.92,491.799,254.7z"></path><path d="M464.039,350.63c-3.72-1.84-8.22-0.32-10.05,3.399c-1.84,3.711-0.31,8.211,3.4,10.051c1.07,0.52,2.2,0.77,3.32,0.77 c2.76,0,5.42-1.53,6.72-4.17C469.269,356.96,467.749,352.46,464.039,350.63z"></path><path d="M482.799,283.44c-4.1-0.63-7.92,2.19-8.55,6.28c-0.62,4.1,2.19,7.92,6.28,8.55c0.39,0.061,0.77,0.08,1.14,0.08 c3.65,0,6.84-2.66,7.41-6.37C489.709,287.89,486.889,284.06,482.799,283.44z"></path><path d="M442.159,131.08c1.51,0,3.02-0.44,4.34-1.38c3.38-2.4,4.17-7.08,1.77-10.46c0.01,0,0.01,0,0.01,0 c-2.4-3.37-7.08-4.171-10.46-1.77c-3.38,2.4-4.17,7.08-1.78,10.46C437.509,129.99,439.819,131.08,442.159,131.08z"></path><path d="M476.009,317.75c-3.95-1.25-8.16,0.95-9.41,4.899c-1.24,3.95,0.95,8.16,4.9,9.4c0.75,0.24,1.51,0.35,2.26,0.35 c3.19,0,6.14-2.04,7.15-5.25C482.149,323.2,479.959,318.99,476.009,317.75z"></path><path d="M415.239,409.229c-2.87,2.99-2.77,7.74,0.22,10.601c1.45,1.399,3.32,2.09,5.19,2.09c1.97,0,3.94-0.77,5.41-2.31 c2.87-2.989,2.77-7.729-0.22-10.6C422.849,406.14,418.099,406.24,415.239,409.229z"></path><path d="M165.949,458.02c-3.78-1.689-8.22,0-9.91,3.78s0,8.22,3.78,9.91c0.99,0.45,2.03,0.66,3.06,0.66c2.86,0,5.6-1.65,6.85-4.44 C171.419,464.149,169.729,459.71,165.949,458.02z"></path><path d="M230.979,475.79c-4.11-0.471-7.83,2.489-8.29,6.609c-0.47,4.12,2.49,7.83,6.61,8.29c0.28,0.04,0.57,0.051,0.85,0.051 c3.76,0,7.01-2.83,7.44-6.66C238.059,479.97,235.1,476.25,230.979,475.79z"></path><path d="M197.789,469.43c-4-1.1-8.12,1.26-9.21,5.25c-1.1,4,1.26,8.12,5.26,9.21c0.66,0.18,1.32,0.271,1.98,0.271 c3.3,0,6.32-2.19,7.23-5.521C204.139,474.64,201.779,470.52,197.789,469.43z"></path><path d="M136.24,441.859c-3.47-2.25-8.12-1.26-10.37,2.221c-2.25,3.47-1.26,8.12,2.22,10.37c1.26,0.819,2.67,1.21,4.07,1.21 c2.46,0,4.86-1.21,6.3-3.42C140.71,448.76,139.719,444.109,136.24,441.859z"></path><path d="M298.359,473.12v0.01c-4.07,0.79-6.72,4.72-5.93,8.79c0.7,3.58,3.84,6.07,7.35,6.07c0.48,0,0.96-0.051,1.45-0.141 c4.06-0.79,6.72-4.73,5.93-8.79C306.359,474.99,302.429,472.33,298.359,473.12z"></path><path d="M361.719,450.229c-3.63,1.99-4.96,6.55-2.97,10.181c1.36,2.489,3.93,3.899,6.58,3.899c1.22,0,2.45-0.29,3.6-0.92 c3.63-1.99,4.96-6.54,2.97-10.18C369.919,449.58,365.359,448.24,361.719,450.229z"></path><path d="M264.779,477.02c-4.14,0.16-7.36,3.65-7.2,7.79c0.16,4.04,3.48,7.2,7.49,7.2c0.1,0,0.2,0,0.3,0 c4.13-0.16,7.36-3.65,7.2-7.79C272.399,480.08,268.919,476.859,264.779,477.02z"></path><path d="M330.939,464.13c-3.9,1.41-5.91,5.7-4.51,9.6c1.11,3.05,3.99,4.95,7.06,4.95c0.84,0,1.7-0.14,2.54-0.45 c0.01,0.011,0.01,0.011,0.01,0.011c3.89-1.41,5.91-5.711,4.5-9.61C339.129,464.74,334.829,462.72,330.939,464.13z"></path><path d="M390.039,431.779c-3.29,2.521-3.91,7.23-1.39,10.521c1.48,1.93,3.7,2.94,5.96,2.94c1.59,0,3.19-0.511,4.56-1.551 c3.28-2.52,3.91-7.23,1.39-10.52C398.039,429.89,393.329,429.26,390.039,431.779z"></path><path d="M197.898,293.253c14.289,0,25.914-11.669,25.914-26.012V244.76c0-14.345-11.625-26.015-25.914-26.015 c-14.287,0-25.91,11.67-25.91,26.015v22.481C171.988,281.584,183.611,293.253,197.898,293.253z M186.988,244.761 c0-6.073,4.894-11.015,10.91-11.015c6.018,0,10.914,4.941,10.914,11.015v22.481c0,6.072-4.896,11.012-10.914,11.012 c-6.016,0-10.91-4.939-10.91-11.012V244.761z"></path><path d="M366.194,263.5h0.204h11.3c2.507,0,4.626,2.728,4.626,5.959v2.834c0,3.23-2.119,5.96-4.626,5.96h-19.93 c-4.142,0-7.5,3.358-7.5,7.5c0,4.143,3.358,7.5,7.5,7.5h19.93c10.822,0,19.626-9.402,19.626-20.96v-2.834 c0-11.557-8.804-20.959-19.626-20.959h-11.3h-0.204c-2.508,0-4.627-2.729-4.627-5.959v-2.835c0-3.23,2.119-5.96,4.627-5.96h17.462 c4.142,0,7.5-3.357,7.5-7.5s-3.358-7.5-7.5-7.5h-17.462c-10.822,0-19.627,9.402-19.627,20.96v2.835 C346.567,254.098,355.372,263.5,366.194,263.5z"></path><path d="M237.223,293.253c4.142,0,7.5-3.357,7.5-7.5v-40.992c0-6.073,4.894-11.015,10.91-11.015c6.018,0,10.914,4.941,10.914,11.015 v40.992c0,4.143,3.358,7.5,7.5,7.5s7.5-3.357,7.5-7.5v-40.992c0-14.345-11.625-26.015-25.914-26.015 c-14.287,0-25.91,11.67-25.91,26.015v40.992C229.723,289.896,233.08,293.253,237.223,293.253z"></path><path d="M315.573,293.253c14.286,0,25.909-11.669,25.909-26.012v-40.995c0-4.143-3.358-7.5-7.5-7.5s-7.5,3.357-7.5,7.5v40.995 c0,6.072-4.894,11.012-10.909,11.012c-6.018,0-10.914-4.939-10.914-11.012v-40.995c0-4.143-3.358-7.5-7.5-7.5s-7.5,3.357-7.5,7.5 v40.995C289.659,281.584,301.284,293.253,315.573,293.253z"></path><path d="M114.674,226.249c0,0.181,0.015,0.357,0.027,0.534c-0.012,0.178-0.027,0.354-0.027,0.534v58.436c0,4.143,3.358,7.5,7.5,7.5 h22.821c12.29,0,22.29-10.065,22.29-22.438c0-5.678-2.106-10.867-5.572-14.822c3.462-3.953,5.572-9.133,5.572-14.806 c0-12.372-9.999-22.438-22.29-22.438h-22.821C118.032,218.749,114.674,222.106,114.674,226.249z M129.674,233.749h15.321 c4.02,0,7.29,3.337,7.29,7.438c0,4.102-3.27,7.439-7.29,7.439h-15.321V233.749z M129.674,263.375h15.321 c4.02,0,7.29,3.337,7.29,7.44c0,4.101-3.27,7.438-7.29,7.438h-15.321V263.375z"></path></svg>