<!-- icon666.com - MILLIONS vector ICONS FREE --><svg viewBox="0 0 516.2 516.2" xmlns="http://www.w3.org/2000/svg"><path d="m0 53.378906h444.828125v462.621094h-444.828125zm0 0" fill="#e9686a"></path><path d="m62.277344 462.621094h320.273437v53.378906h-320.273437zm0 0" fill="#32b1cc"></path><path d="m133.449219 346.964844h177.929687v115.65625h-177.929687zm0 0" fill="#394d5c"></path><path d="m169.035156 427.035156h88.964844v35.585938h-88.964844zm0 0" fill="#fdbd40"></path><path d="m186.828125 391.449219h88.964844v35.585937h-88.964844zm0 0" fill="#fcf05a"></path><path d="m418.136719 480.414062h88.964843v35.585938h-88.964843zm0 0" fill="#fdbd40"></path><path d="m418.136719 444.828125h88.964843v35.585937h-88.964843zm0 0" fill="#fcf05a"></path><path d="m391.449219 409.242188h88.964843v35.585937h-88.964843zm0 0" fill="#fdbd40"></path><path d="m35.585938 115.65625h124.550781v177.929688h-124.550781zm0 0" fill="#f4f4e6"></path><path d="m516 355.863281c0 14.738281-11.949219 26.6875-26.691406 26.6875-14.738282 0-26.6875-11.949219-26.6875-26.6875 0-14.742187 11.949218-26.691406 26.6875-26.691406 14.742187 0 26.691406 11.949219 26.691406 26.691406zm0 0" fill="#e9686a"></path><path d="m160.136719 115.65625h124.554687v177.929688h-124.554687zm0 0" fill="#fcf05a"></path><path d="m284.691406 115.65625h124.550782v177.929688h-124.550782zm0 0" fill="#f4f4e6"></path><g fill="#e9686a"><path d="m133.449219 231.308594c0 19.65625-15.933594 35.589844-35.585938 35.589844-19.65625 0-35.585937-15.933594-35.585937-35.589844 0-19.652344 15.929687-35.585938 35.585937-35.585938 19.652344 0 35.585938 15.933594 35.585938 35.585938zm0 0"></path><path d="m258 231.308594c0 19.65625-15.933594 35.589844-35.585938 35.589844-19.652343 0-35.585937-15.933594-35.585937-35.589844 0-19.652344 15.933594-35.585938 35.585937-35.585938 19.652344 0 35.585938 15.933594 35.585938 35.585938zm0 0"></path><path d="m382.550781 231.308594c0 19.65625-15.929687 35.589844-35.585937 35.589844-19.652344 0-35.585938-15.933594-35.585938-35.589844 0-19.652344 15.933594-35.585938 35.585938-35.585938 19.65625 0 35.585937 15.933594 35.585937 35.585938zm0 0"></path></g><path d="m133.449219 142.34375h-35.585938c-4.914062 0-8.898437 3.980469-8.898437 8.894531v.003907 53.378906c0 4.914062 3.984375 8.894531 8.898437 8.894531 4.910157 0 8.894531-3.980469 8.894531-8.894531v-17.792969c19.644532-.023437 35.566407-15.941406 35.585938-35.585937.003906-4.914063-3.980469-8.894532-8.890625-8.898438zm0 0" fill="#55b56a"></path><path d="m258 142.34375h-35.585938c-4.914062 0-8.894531 3.980469-8.898437 8.894531v.003907 53.378906c0 4.914062 3.984375 8.894531 8.898437 8.894531 4.914063 0 8.894532-3.980469 8.894532-8.894531v-17.792969c19.648437-.023437 35.566406-15.941406 35.589844-35.585937 0-4.914063-3.980469-8.894532-8.894532-8.898438zm0 0" fill="#55b56a"></path><path d="m382.550781 142.34375h-35.585937c-4.910156 0-8.894532 3.980469-8.894532 8.894531v.003907 53.378906c0 4.914062 3.980469 8.894531 8.894532 8.894531 4.914062 0 8.898437-3.980469 8.898437-8.894531v-17.792969c19.644531-.023437 35.5625-15.941406 35.585938-35.585937 0-4.914063-3.980469-8.894532-8.894531-8.898438zm0 0" fill="#55b56a"></path><path d="m444.828125 133.449219h71.171875v53.378906h-71.171875zm0 0" fill="#32b1cc"></path><path d="m489.308594 338.070312c-4.910156 0-8.894532-3.980468-8.894532-8.894531v-.003906-142.34375c0-4.914063 3.984376-8.898437 8.894532-8.898437 4.914062 0 8.898437 3.984374 8.898437 8.898437v142.34375c0 4.914063-3.980469 8.894531-8.894531 8.898437 0 0 0 0-.003906 0zm0 0" fill="#394d5c"></path><path d="m53.378906 0h338.070313v71.171875h-338.070313zm0 0" fill="#fcf05a"></path><path d="m80.070312 427.035156c-4.914062 0-8.898437-3.980468-8.898437-8.894531 0 0 0 0 0-.003906v-71.171875c0-4.914063 3.984375-8.894532 8.898437-8.894532 4.910157 0 8.894532 3.980469 8.894532 8.894532v71.171875c0 4.914062-3.980469 8.898437-8.890625 8.898437-.003907 0-.003907 0-.003907 0zm0 0" fill="#fff"></path><path d="m35.585938 400.34375h17.792968v17.792969h-17.792968zm0 0" fill="#fff"></path><path d="m35.585938 364.757812h17.792968v17.792969h-17.792968zm0 0" fill="#fff"></path></svg>