<svg width="32" height="28" viewBox="0 0 32 28" fill="none" xmlns="http://www.w3.org/2000/svg">
<path d="M17.1667 5.79688C17.8 5.41406 18.2222 4.71953 18.2222 3.9375C18.2222 2.72891 17.2278 1.75 16 1.75C14.7722 1.75 13.7778 2.72891 13.7778 3.9375C13.7778 4.725 14.2 5.41406 14.8333 5.79688L11.65 12.0641C11.1444 13.0594 9.83333 13.3438 8.95 12.6492L4 8.75C4.27778 8.38359 4.44444 7.92969 4.44444 7.4375C4.44444 6.22891 3.45 5.25 2.22222 5.25C0.994444 5.25 0 6.22891 0 7.4375C0 8.64609 0.994444 9.625 2.22222 9.625H2.26111L4.8 23.3734C5.10556 25.0359 6.57778 26.25 8.3 26.25H23.7C25.4167 26.25 26.8889 25.0414 27.2 23.3734L29.7389 9.625H29.7778C31.0056 9.625 32 8.64609 32 7.4375C32 6.22891 31.0056 5.25 29.7778 5.25C28.55 5.25 27.5556 6.22891 27.5556 7.4375C27.5556 7.92969 27.7222 8.38359 28 8.75L23.05 12.6492C22.1667 13.3438 20.8556 13.0594 20.35 12.0641L17.1667 5.79688Z" fill="#FF9900"/>
</svg>
