<svg width="44" height="44" viewBox="0 0 44 44" fill="none" xmlns="http://www.w3.org/2000/svg">
<path d="M33 9.16667H34.8333V11C34.8333 11.4862 35.0265 11.9525 35.3703 12.2964C35.7141 12.6402 36.1804 12.8333 36.6667 12.8333C37.1529 12.8333 37.6192 12.6402 37.963 12.2964C38.3068 11.9525 38.5 11.4862 38.5 11V9.16667H40.3333C40.8196 9.16667 41.2859 8.97351 41.6297 8.6297C41.9735 8.28588 42.1667 7.81956 42.1667 7.33333C42.1667 6.8471 41.9735 6.38079 41.6297 6.03697C41.2859 5.69316 40.8196 5.5 40.3333 5.5H38.5V3.66667C38.5 3.18044 38.3068 2.71412 37.963 2.3703C37.6192 2.02649 37.1529 1.83333 36.6667 1.83333C36.1804 1.83333 35.7141 2.02649 35.3703 2.3703C35.0265 2.71412 34.8333 3.18044 34.8333 3.66667V5.5H33C32.5138 5.5 32.0474 5.69316 31.7036 6.03697C31.3598 6.38079 31.1667 6.8471 31.1667 7.33333C31.1667 7.81956 31.3598 8.28588 31.7036 8.6297C32.0474 8.97351 32.5138 9.16667 33 9.16667ZM12.8333 12.8333V31.1667C12.8333 31.6529 13.0265 32.1192 13.3703 32.463C13.7141 32.8068 14.1804 33 14.6667 33C15.1529 33 15.6192 32.8068 15.963 32.463C16.3068 32.1192 16.5 31.6529 16.5 31.1667V12.8333C16.5 12.3471 16.3068 11.8808 15.963 11.537C15.6192 11.1932 15.1529 11 14.6667 11C14.1804 11 13.7141 11.1932 13.3703 11.537C13.0265 11.8808 12.8333 12.3471 12.8333 12.8333ZM39.6 16.5C39.364 16.5481 39.1398 16.6422 38.9403 16.777C38.7407 16.9118 38.5696 17.0845 38.4368 17.2854C38.304 17.4863 38.2121 17.7114 38.1663 17.9478C38.1205 18.1843 38.1218 18.4274 38.17 18.6633C38.8858 22.1397 38.4615 25.7542 36.9602 28.9704C35.4589 32.1865 32.9605 34.8328 29.8359 36.5165C26.7113 38.2001 23.1271 38.8313 19.6154 38.3164C16.1036 37.8015 12.8515 36.168 10.3418 33.6582C7.83202 31.1485 6.19846 27.8964 5.68357 24.3846C5.16867 20.8728 5.79989 17.2887 7.48353 14.1641C9.16717 11.0395 11.8135 8.54113 15.0296 7.03979C18.2457 5.53845 21.8603 5.1142 25.3367 5.83C25.8229 5.92725 26.3278 5.82736 26.7404 5.5523C27.153 5.27725 27.4394 4.84956 27.5367 4.36333C27.6339 3.8771 27.534 3.37216 27.259 2.95958C26.9839 2.547 26.5562 2.26058 26.07 2.16333C24.7283 1.91336 23.3644 1.80277 22 1.83333C18.0114 1.83333 14.1124 3.01609 10.796 5.23203C7.4796 7.44797 4.89479 10.5976 3.36842 14.2826C1.84205 17.9675 1.44268 22.0224 2.22082 25.9343C2.99895 29.8463 4.91964 33.4396 7.74 36.26C10.5604 39.0803 14.1537 41.001 18.0657 41.7792C21.9776 42.5573 26.0325 42.1579 29.7174 40.6316C33.4024 39.1052 36.552 36.5204 38.768 33.204C40.9839 29.8876 42.1667 25.9886 42.1667 22C42.1705 20.6453 42.0354 19.2938 41.7633 17.9667C41.7194 17.7274 41.6283 17.4993 41.4954 17.2956C41.3624 17.0919 41.1902 16.9167 40.9889 16.7802C40.7876 16.6436 40.5611 16.5486 40.3226 16.5005C40.0841 16.4524 39.8385 16.4522 39.6 16.5ZM20.1667 16.5V18.3333C20.1747 19.6901 20.684 20.996 21.5967 22C20.684 23.004 20.1747 24.3099 20.1667 25.6667V27.5C20.1667 28.9587 20.7461 30.3576 21.7776 31.3891C22.809 32.4205 24.208 33 25.6667 33H27.5C28.9587 33 30.3576 32.4205 31.3891 31.3891C32.4205 30.3576 33 28.9587 33 27.5V25.6667C32.9919 24.3099 32.4826 23.004 31.57 22C32.4826 20.996 32.9919 19.6901 33 18.3333V16.5C33 15.0413 32.4205 13.6424 31.3891 12.6109C30.3576 11.5795 28.9587 11 27.5 11H25.6667C24.208 11 22.809 11.5795 21.7776 12.6109C20.7461 13.6424 20.1667 15.0413 20.1667 16.5ZM29.3333 27.5C29.3333 27.9862 29.1402 28.4525 28.7963 28.7964C28.4525 29.1402 27.9862 29.3333 27.5 29.3333H25.6667C25.1804 29.3333 24.7141 29.1402 24.3703 28.7964C24.0265 28.4525 23.8333 27.9862 23.8333 27.5V25.6667C23.8333 25.1804 24.0265 24.7141 24.3703 24.3703C24.7141 24.0265 25.1804 23.8333 25.6667 23.8333H27.5C27.9862 23.8333 28.4525 24.0265 28.7963 24.3703C29.1402 24.7141 29.3333 25.1804 29.3333 25.6667V27.5ZM29.3333 16.5V18.3333C29.3333 18.8196 29.1402 19.2859 28.7963 19.6297C28.4525 19.9735 27.9862 20.1667 27.5 20.1667H25.6667C25.1804 20.1667 24.7141 19.9735 24.3703 19.6297C24.0265 19.2859 23.8333 18.8196 23.8333 18.3333V16.5C23.8333 16.0138 24.0265 15.5475 24.3703 15.2036C24.7141 14.8598 25.1804 14.6667 25.6667 14.6667H27.5C27.9862 14.6667 28.4525 14.8598 28.7963 15.2036C29.1402 15.5475 29.3333 16.0138 29.3333 16.5Z" fill="white"/>
</svg>
