<!-- icon666.com - MILLIONS vector ICONS FREE --><svg version="1.1" id="Layer_1" xmlns="http://www.w3.org/2000/svg" xmlns:xlink="http://www.w3.org/1999/xlink" x="0px" y="0px" viewBox="0 0 511.999 511.999" style="enable-background:new 0 0 511.999 511.999;" xml:space="preserve"><path style="fill:#E07188;" d="M490.065,256.001c0-33.603,19.799-70.917,7.683-100.138c-12.561-30.292-53.411-42.542-76.239-65.37 c-22.828-22.828-35.079-63.678-65.37-76.239c-29.221-12.116-66.535,7.683-100.138,7.683s-70.917-19.799-100.138-7.683 c-30.292,12.561-42.542,53.411-65.37,76.239s-63.678,35.079-76.237,65.37c-12.116,29.221,7.683,66.535,7.683,100.138 s-19.799,70.917-7.683,100.138c12.561,30.292,53.411,42.542,76.239,65.37c22.828,22.828,35.079,63.678,65.37,76.239 c29.221,12.116,66.535-7.683,100.138-7.683s70.917,19.799,100.138,7.683c30.292-12.561,42.542-53.411,65.37-76.239 c22.828-22.828,63.678-35.079,76.237-65.37C509.864,326.918,490.065,289.603,490.065,256.001z"></path><path style="fill:#DC4161;" d="M490.065,256.001c0-33.603,19.799-70.917,7.683-100.138c-12.561-30.292-53.411-42.542-76.239-65.37 c-22.828-22.828-35.078-63.678-65.37-76.239c-12.436-5.156-26.339-4.526-40.797-2.108c2.162,0.558,4.292,1.243,6.376,2.108 c30.292,12.561,42.542,53.411,65.37,76.239c22.828,22.828,63.678,35.079,76.239,65.37c12.118,29.221-7.683,66.535-7.683,100.138 s19.799,70.917,7.683,100.138c-12.561,30.292-53.411,42.542-76.237,65.37c-22.828,22.828-35.079,63.678-65.37,76.239 c-2.085,0.865-4.213,1.549-6.376,2.108c14.458,2.418,28.362,3.048,40.797-2.108c30.292-12.561,42.542-53.411,65.37-76.239 c22.828-22.828,63.678-35.079,76.237-65.37C509.864,326.918,490.065,289.603,490.065,256.001z"></path><circle style="fill:#F8F8F9;" cx="255.998" cy="255.998" r="178.99"></circle><path style="fill:#EDEDED;" d="M256.001,77.011c-6.986,0-13.874,0.414-20.653,1.194c89.123,10.241,158.337,85.93,158.337,177.798 s-69.214,167.555-158.337,177.796c6.778,0.779,13.667,1.194,20.653,1.194c98.854,0,178.99-80.137,178.99-178.99 C434.991,157.147,354.855,77.011,256.001,77.011z"></path><g><path style="fill:#2E2D31;" d="M256.001,445.317c-104.388,0-189.316-84.927-189.316-189.317S151.613,66.684,256.001,66.684 c36.277,0,71.53,10.295,101.95,29.769c4.802,3.075,6.204,9.462,3.128,14.264s-9.466,6.203-14.264,3.128 c-27.089-17.343-58.491-26.51-90.814-26.51c-93.002,0-168.664,75.662-168.664,168.664s75.662,168.664,168.664,168.664 s168.664-75.662,168.664-168.664c0-38.022-12.346-73.911-35.704-103.787c-3.514-4.494-2.719-10.983,1.775-14.495 c4.494-3.511,10.984-2.717,14.494,1.775c26.226,33.544,40.087,73.832,40.087,116.509 C445.318,360.39,360.389,445.317,256.001,445.317z"></path><path style="fill:#2E2D31;" d="M177.551,511.999c-8.768,0-17.374-1.286-25.645-4.714c-21.811-9.044-34.692-29.357-47.15-49.001 c-2.978-4.698-5.792-9.134-8.735-13.438c-3.218-4.709-2.009-11.135,2.7-14.352c4.706-3.218,11.133-2.012,14.352,2.699 c3.141,4.597,6.182,9.393,9.124,14.031c11.232,17.71,21.841,34.44,37.62,40.983c14.937,6.193,33.931,2.045,54.043-2.348 c13.786-3.011,28.041-6.123,42.14-6.123c14.099,0,28.355,3.113,42.14,6.123c20.112,4.392,39.108,8.539,54.043,2.346 c15.779-6.543,26.389-23.271,37.62-40.983c7.341-11.577,14.933-23.547,24.403-33.017c9.471-9.47,21.44-17.062,33.017-24.402 c17.712-11.232,34.442-21.842,40.985-37.622c6.192-14.935,2.043-33.93-2.348-54.04c-3.011-13.786-6.123-28.042-6.123-42.143 c0-14.1,3.113-28.356,6.123-42.143c4.391-20.11,8.539-39.105,2.348-54.04c-6.544-15.779-23.273-26.389-40.985-37.621 c-11.575-7.341-23.547-14.933-33.017-24.403c-9.47-9.47-17.062-21.44-24.403-33.017c-11.232-17.712-21.841-34.44-37.62-40.983 c-14.933-6.194-33.931-2.046-54.043,2.346c-13.786,3.011-28.041,6.123-42.14,6.123c-14.099,0-28.355-3.113-42.14-6.123 c-20.112-4.392-39.108-8.541-54.043-2.346c-15.779,6.543-26.389,23.271-37.62,40.983c-7.341,11.577-14.933,23.547-24.403,33.017 c-9.471,9.47-21.44,17.062-33.017,24.402c-17.712,11.232-34.442,21.842-40.986,37.622c-6.192,14.935-2.043,33.93,2.348,54.04 c3.011,13.786,6.123,28.042,6.123,42.143c0,14.1-3.113,28.356-6.123,42.143c-4.391,20.11-8.539,39.105-2.348,54.04 c6.544,15.78,23.274,26.39,40.987,37.621l4.019,2.554c4.808,3.068,6.219,9.452,3.15,14.26c-3.066,4.808-9.451,6.218-14.259,3.152 l-3.971-2.524c-19.645-12.458-39.959-25.339-49.003-47.153c-8.676-20.921-3.632-44.021,1.246-66.359 c2.777-12.715,5.649-25.864,5.649-37.735c0-11.871-2.872-25.02-5.649-37.735c-4.878-22.338-9.922-45.436-1.246-66.357 c9.045-21.812,29.357-34.695,49.002-47.153c11.117-7.049,21.618-13.709,29.474-21.564c7.855-7.856,14.515-18.358,21.564-29.474 c12.458-19.643,25.338-39.956,47.15-49.001c20.923-8.674,44.023-3.631,66.36,1.247c12.715,2.777,25.863,5.648,37.734,5.648 s25.019-2.871,37.734-5.648c22.339-4.878,45.436-9.922,66.36-1.247c21.811,9.045,34.692,29.357,47.15,49.001 c7.049,11.118,13.709,21.618,21.564,29.474c7.856,7.856,18.358,14.515,29.474,21.566c19.643,12.458,39.956,25.339,49.002,47.152 c8.675,20.921,3.632,44.021-1.246,66.359c-2.777,12.715-5.648,25.864-5.648,37.735c0,11.871,2.872,25.02,5.648,37.735 c4.878,22.338,9.922,45.437,1.246,66.357c-9.045,21.812-29.357,34.695-49.002,47.153c-11.117,7.049-21.618,13.709-29.474,21.564 c-7.855,7.856-14.515,18.358-21.564,29.474c-12.458,19.643-25.338,39.956-47.15,49.001c-20.924,8.674-44.022,3.631-66.36-1.247 c-12.715-2.777-25.863-5.648-37.734-5.648s-25.019,2.871-37.734,5.648C204.758,508.988,190.967,511.999,177.551,511.999z"></path><path style="fill:#2E2D31;" d="M173.39,348.938c-2.642,0-5.286-1.008-7.303-3.025c-4.033-4.033-4.033-10.571,0-14.603 l165.222-165.222c4.034-4.033,10.571-4.033,14.604,0c4.033,4.033,4.033,10.571,0,14.603L180.692,345.913 C178.676,347.929,176.032,348.938,173.39,348.938z"></path><path style="fill:#2E2D31;" d="M200.927,238.79c-20.877,0-37.863-16.985-37.863-37.863s16.986-37.863,37.863-37.863 s37.863,16.985,37.863,37.863C238.79,221.804,221.804,238.79,200.927,238.79z M200.927,183.716c-9.491,0-17.211,7.72-17.211,17.211 s7.72,17.211,17.211,17.211s17.211-7.72,17.211-17.211S210.416,183.716,200.927,183.716z"></path><path style="fill:#2E2D31;" d="M311.075,348.938c-20.877,0-37.863-16.985-37.863-37.863c0-20.879,16.986-37.863,37.863-37.863 s37.863,16.985,37.863,37.863C348.938,331.952,331.952,348.938,311.075,348.938z M311.075,293.864 c-9.491,0-17.211,7.72-17.211,17.211c0,9.491,7.72,17.211,17.211,17.211c9.491,0,17.211-7.72,17.211-17.211 C328.286,301.584,320.564,293.864,311.075,293.864z"></path></g></svg>