<svg width="32" height="32" viewBox="0 0 32 32" fill="none" xmlns="http://www.w3.org/2000/svg">
<path fill-rule="evenodd" clip-rule="evenodd" d="M16.0002 28L16.9442 28.9414C16.8203 29.0657 16.6731 29.1644 16.511 29.2317C16.3488 29.2991 16.175 29.3337 15.9995 29.3337C15.824 29.3337 15.6501 29.2991 15.488 29.2317C15.3259 29.1644 15.1787 29.0657 15.0548 28.9414L15.0468 28.932L15.0242 28.9094L14.9415 28.8254C14.4715 28.3412 14.0092 27.8496 13.5548 27.3507C12.414 26.1007 11.3217 24.8073 10.2802 23.4734C9.09083 21.94 7.87483 20.2067 6.95083 18.4947C6.04683 16.816 5.3335 14.9974 5.3335 13.3334C5.3335 7.28135 10.1228 2.66669 16.0002 2.66669C21.8775 2.66669 26.6668 7.28135 26.6668 13.3334C26.6668 14.9974 25.9535 16.816 25.0495 18.4934C24.1255 20.208 22.9108 21.94 21.7202 23.4734C20.2633 25.3395 18.7073 27.1261 17.0588 28.8254L16.9762 28.9094L16.9535 28.932L16.9455 28.94L16.0002 28ZM16.0002 17.3334C17.061 17.3334 18.0784 16.9119 18.8286 16.1618C19.5787 15.4116 20.0002 14.3942 20.0002 13.3334C20.0002 12.2725 19.5787 11.2551 18.8286 10.5049C18.0784 9.75478 17.061 9.33335 16.0002 9.33335C14.9393 9.33335 13.9219 9.75478 13.1717 10.5049C12.4216 11.2551 12.0002 12.2725 12.0002 13.3334C12.0002 14.3942 12.4216 15.4116 13.1717 16.1618C13.9219 16.9119 14.9393 17.3334 16.0002 17.3334Z" fill="black"/>
</svg>
