<svg width="32" height="32" viewBox="0 0 32 32" fill="none" xmlns="http://www.w3.org/2000/svg">
<path d="M20.3301 21.48L22.5701 19.24C22.8718 18.942 23.2535 18.7381 23.6689 18.6529C24.0843 18.5676 24.5155 18.6049 24.9101 18.76L27.6401 19.85C28.0389 20.0119 28.3809 20.2882 28.6229 20.6441C28.8649 21 28.9962 21.4196 29.0001 21.85V26.85C28.9978 27.1428 28.9363 27.432 28.8192 27.7004C28.7021 27.9688 28.532 28.2107 28.319 28.4115C28.1059 28.6124 27.8545 28.7681 27.5797 28.8692C27.3049 28.9704 27.0125 29.0148 26.7201 29C7.59013 27.81 3.73013 11.61 3.00013 5.40998C2.96625 5.10552 2.99721 4.79733 3.09098 4.50569C3.18476 4.21405 3.33922 3.94557 3.5442 3.71792C3.74919 3.49026 4.00005 3.30858 4.28029 3.18484C4.56053 3.0611 4.8638 2.9981 5.17013 2.99998H10.0001C10.4311 3.00126 10.8519 3.13145 11.2083 3.37381C11.5647 3.61617 11.8405 3.95962 12.0001 4.35998L13.0901 7.08998C13.2504 7.48305 13.2913 7.91462 13.2077 8.33079C13.1241 8.74696 12.9197 9.12928 12.6201 9.42998L10.3801 11.67C10.3801 11.67 11.6701 20.4 20.3301 21.48Z" fill="black"/>
</svg>
