<svg xmlns="http://www.w3.org/2000/svg" viewBox="0 0 24 24"><path d="M2.25 2.25h19.5L21 1.5v21l.75-.75H2.25l.75.75v-21l-.75.75zm0-1.5a.75.75 0 0 0-.75.75v21c0 .414.336.75.75.75h19.5a.75.75 0 0 0 .75-.75v-21a.75.75 0 0 0-.75-.75H2.25zm-1.5 1.5h22.5a.75.75 0 0 0 0-1.5H.75a.75.75 0 0 0 0 1.5zm0 21h22.5a.75.75 0 0 0 0-1.5H.75a.75.75 0 0 0 0 1.5zM18 15v3.539a.211.211 0 0 1-.211.211H6.211A.211.211 0 0 1 6 18.539v-7.078c0-.117.094-.211.211-.211h11.578c.116 0 .211.095.211.211V15zm1.5 0v-3.539a1.71 1.71 0 0 0-1.711-1.711H6.211c-.945 0-1.711.766-1.711 1.711v7.078c0 .945.766 1.711 1.711 1.711h11.578a1.71 1.71 0 0 0 1.711-1.711V15zM9 14.25h6a.75.75 0 0 0 0-1.5H9a.75.75 0 0 0 0 1.5zM5.25 4.875a.375.375 0 1 1 0-.75.375.375 0 0 1 0 .75.75.75 0 0 0 0-1.5 1.125 1.125 0 1 0 0 2.25 1.125 1.125 0 0 0 0-2.25.75.75 0 0 0 0 1.5zm3 0a.375.375 0 1 1 0-.75.375.375 0 0 1 0 .75.75.75 0 0 0 0-1.5 1.125 1.125 0 1 0 0 2.25 1.125 1.125 0 0 0 0-2.25.75.75 0 0 0 0 1.5zm-6 3.375h19.5a.75.75 0 0 0 0-1.5H2.25a.75.75 0 0 0 0 1.5zm11.25-3h5.25a.75.75 0 0 0 0-1.5H13.5a.75.75 0 0 0 0 1.5z" fill="#ffffff"></path></svg>