<svg xmlns="http://www.w3.org/2000/svg" xmlns:xlink="http://www.w3.org/1999/xlink">
   
  <symbol id="tg" viewBox="0 0 32 32" xmlns="http://www.w3.org/2000/svg">
    <g clip-path="url(#clip0_0_96)">
    <path d="M16 0.5C7.437 0.5 0.5 7.438 0.5 16C0.5 24.562 7.438 31.5 16 31.5C24.563 31.5 31.5 24.562 31.5 16C31.5 7.438 24.562 0.5 16 0.5ZM23.613 11.119L21.069 23.107C20.881 23.957 20.375 24.163 19.669 23.763L15.794 20.907L13.925 22.707C13.719 22.913 13.544 23.088 13.144 23.088L13.419 19.144L20.6 12.656C20.913 12.381 20.531 12.225 20.118 12.5L11.243 18.087L7.418 16.893C6.587 16.631 6.568 16.062 7.593 15.662L22.537 9.899C23.231 9.649 23.837 10.068 23.612 11.118L23.613 11.119Z"/>
    </g>
    <defs>
    <clipPath id="clip0_0_96">
    <rect width="32" height="32" fill="white"/>
    </clipPath>
    </defs>
  </symbol>

  <symbol id="inst" viewBox="0 0 32 32" xmlns="http://www.w3.org/2000/svg">
    <g clip-path="url(#clip0_0_93)">
    <path d="M16 10.6666C14.5855 10.6666 13.229 11.2285 12.2288 12.2287C11.2286 13.2289 10.6667 14.5855 10.6667 16C10.6667 17.4144 11.2286 18.771 12.2288 19.7712C13.229 20.7714 14.5855 21.3333 16 21.3333C17.4145 21.3333 18.7711 20.7714 19.7713 19.7712C20.7715 18.771 21.3334 17.4144 21.3334 16C21.3334 14.5855 20.7715 13.2289 19.7713 12.2287C18.7711 11.2285 17.4145 10.6666 16 10.6666Z"/>
    <path fill-rule="evenodd" clip-rule="evenodd" d="M9.6 0C7.05392 0 4.61212 1.01143 2.81178 2.81178C1.01143 4.61212 0 7.05392 0 9.6L0 22.4C0 24.9461 1.01143 27.3879 2.81178 29.1882C4.61212 30.9886 7.05392 32 9.6 32H22.4C24.9461 32 27.3879 30.9886 29.1882 29.1882C30.9886 27.3879 32 24.9461 32 22.4V9.6C32 7.05392 30.9886 4.61212 29.1882 2.81178C27.3879 1.01143 24.9461 0 22.4 0L9.6 0ZM8.53333 16C8.53333 14.0197 9.32 12.1205 10.7203 10.7203C12.1205 9.32 14.0197 8.53333 16 8.53333C17.9803 8.53333 19.8795 9.32 21.2797 10.7203C22.68 12.1205 23.4667 14.0197 23.4667 16C23.4667 17.9803 22.68 19.8795 21.2797 21.2797C19.8795 22.68 17.9803 23.4667 16 23.4667C14.0197 23.4667 12.1205 22.68 10.7203 21.2797C9.32 19.8795 8.53333 17.9803 8.53333 16ZM23.4667 8.53333H25.6V6.4H23.4667V8.53333Z"/>
    </g>
    <defs>
    <clipPath id="clip0_0_93">
    <rect width="32" height="32" fill="white"/>
    </clipPath>
    </defs>
  </symbol>


</svg>
