<!-- icon666.com - MILLIONS vector ICONS FREE --><svg version="1.1" id="Capa_1" xmlns="http://www.w3.org/2000/svg" xmlns:xlink="http://www.w3.org/1999/xlink" x="0px" y="0px" viewBox="0 0 488 488" style="enable-background:new 0 0 488 488;" xml:space="preserve"><path style="fill:#FFA64D;" d="M291.883,96.088L308.059,88l-14.864-7.432c-10.504-5.248-17.136-15.984-17.136-27.728 c0-8.224,3.264-16.104,9.08-21.92L316.059,0c-36.352,5.192-70.032,22.032-96,48l-16,16l8.024,61.728l8.92,6.368 c25.4,18.152,55.84,27.904,87.056,27.904l-20.552-15.416c-7.208-5.4-11.448-13.888-11.448-22.896 C276.059,110.848,282.187,100.936,291.883,96.088z"></path><g><path style="fill:#333333;" d="M470.091,109.392c-21.304-58.336-96.976-89.176-186.144-77.016 c-4.28,4.832-6.888,10.832-7.568,17.224l0,0c85.776-14.8,159.248,12.056,178.68,65.272c14.432,39.512-3.616,88.408-47.08,129.208 c-9.064-16.632-22.76-30.384-39.312-39.584c20.256-21.704,27.776-44.648,20.632-64.28c-10.176-27.96-48.968-41.568-97.216-35.536 c-3.168-0.256-6.512-0.432-9.96-0.552c-3.832,4.944-6.064,11.072-6.064,17.56c0,0.656,0.184,1.28,0.224,1.928l1.464-0.312 c5.032-1.088,9.968-1.904,14.816-2.552c30.384,2.832,47.496,13.856,47.496,31.248c0,15.96-23.216,33.344-34.184,40h-5.816 c-30.696,0-55.672,24.832-55.976,55.448c-40.376,5.088-72.944-4.872-80.312-25.144c-4.104-11.28,0.2-23.064,5.136-31.68 c27.92-0.736,50.416-23.56,50.416-51.568v-35.712c0-48.168-39.312-87.344-87.632-87.344c-15.328,0-30.4,4-43.984,11.8l-3.216,2.088 l8.704,13.424l2.84-1.856C106.827,35.264,119.155,32,131.691,32c39.504,0,71.632,32.008,71.632,71.344v35.712 c0,19.648-16.056,35.64-35.8,35.64s-35.8-15.992-35.8-35.64h-16c0,23.128,15.328,42.744,36.384,49.304 c-3.08,6.528-4.952,12.96-5.624,19.208c-18.168-0.976-36.008-4.568-53.104-11.048l-5.672,14.968 c19.24,7.288,39.344,11.224,59.824,12.12c0.352,1.4,0.712,2.792,1.208,4.16c1.696,4.664,4.352,8.816,7.48,12.656 c-24.992,14.384-52.976,22.32-81.872,23.336c-9.136-15.544-14.288-33.672-14.288-52.792V198.4c4.096,2.344,8.264,4.56,12.488,6.584 l6.912-14.424c-6.664-3.2-13.152-6.92-19.4-10.952V152h-16v58.968c0,3.04,0.128,6.056,0.352,9.048l-1.92,11.04 c-4.264,21.328-6.432,43.176-6.432,64.944c0,52.576,20.84,101.648,58.68,138.168c36.136,34.872,83.216,53.84,133.256,53.832 c2.344,0,4.704-0.04,7.064-0.128c102.008-3.624,185-91.68,185-196.288c0-11.192-1.944-21.92-5.36-31.976 C465.995,213.648,487.259,156.36,470.091,109.392z M373.331,168h-21.272c1.224-2.592,2.248-5.256,2.92-8h20.432 C375.035,162.6,374.291,165.28,373.331,168z M373.475,144h-18.248c-1.312-6.552-4.528-14.352-12.024-21.344 C358.131,126.616,368.955,133.896,373.475,144z M340.987,184h23.768c-3.24,4.528-7.136,9.072-11.728,13.576 c-6.728-2.336-13.752-4.008-21.048-4.856C335.027,190.104,338.083,187.176,340.987,184z M168.747,251.496 c9.32,5.96,21.168,9.976,34.944,11.92c-0.328,4.944-0.864,9.872-1.84,14.72l15.688,3.16c1.104-5.456,1.712-11.008,2.088-16.576 c1.208,0.024,2.328,0.16,3.552,0.16c7.296,0,15.064-0.664,23.032-1.688c6.64,23.504,28.24,40.808,53.848,40.808h5.432 c-32.912,11.088-68.56,16.456-102.632,15.904c3.96-6.864,7.352-14.032,9.984-21.544l-15.104-5.296 c-3.232,9.216-7.704,17.904-13.2,25.96c-20-1.608-39.152-5.304-56.472-11.208c-16.832-5.728-31.32-15.792-42.592-28.696 C114.995,276.472,143.363,267.048,168.747,251.496z M232.547,407.784c-1.752-3.504-2.936-7.296-3.456-11.168l-15.856,2.096 c0.376,2.872,1.088,5.696,1.952,8.472c-7.216-0.832-14.224-2.36-20.976-4.512c-6.072-9.704-6.976-21.504-2.768-31.864 c7.432,2.248,15.552,3.808,24.176,4.584c-0.792,2.32-1.48,4.688-1.944,7.128l15.728,2.952c0.64-3.4,1.92-6.568,3.496-9.608 c4.032-0.136,7.992-0.4,11.824-0.872c2.104,11.512,9.352,21.32,19.528,26.88C254.243,405.304,243.603,407.344,232.547,407.784z M207.587,335.936c27.904,0,56.648-3.72,84.112-11.04c0.224,1.032,0.36,2.064,0.36,3.104c0,15.136-26.288,32-64,32 c-33.696,0-58.208-13.464-63.064-27.128C178.771,334.888,193.059,335.944,207.587,335.936z M148.203,329.736 c0.184,3.272,0.88,6.456,2.064,9.512c-7.392,3.56-13.176,9.832-16.088,17.576c-6.944-10.656-12.104-22.552-15.088-35.328 c1.272,0.488,2.52,1.032,3.816,1.472C130.971,325.712,139.499,327.864,148.203,329.736z M148.059,368 c0-7.16,4.76-13.168,11.264-15.2c4.592,4.64,10.392,8.776,17.256,12.2c-3.704,9.232-4.624,19.208-2.728,28.832 c-9.528-5.304-18.2-11.952-25.784-19.712V368H148.059z M285.355,392.08l-8.072-2.016c-8.816-2.208-15.304-9.352-16.856-18.048 c7.56-1.96,14.448-4.6,20.528-7.784c4.672,7.624,11.624,13.448,19.832,16.728C295.971,385.08,290.827,388.808,285.355,392.08z M313.803,367.824c-8.256-0.736-15.528-5.424-19.6-12.504c3.36-2.96,6.136-6.168,8.336-9.568c7.264,2.936,14.896,4.92,22.688,5.736 C321.891,357.28,318.067,362.736,313.803,367.824z M332.667,335.928c-8.512-0.168-16.96-2-24.824-5.28 c0.08-0.88,0.216-1.752,0.216-2.648c0-2.568-0.448-5.112-1.088-7.632c3.384-1.088,6.76-2.184,10.088-3.392 c7.56-2.744,14.968-5.864,22.264-9.136C338.283,317.624,336.067,327.056,332.667,335.928z M234.483,471.888 c-48.208,1.56-93.96-15.776-128.632-49.232C71.163,389.176,52.059,344.192,52.059,296c0-12.176,0.8-24.376,2.216-36.536 c9.768,22.224,26.112,40.984,47.024,53.432C109.635,375.824,163.691,424,228.059,424c70.576,0,128-57.424,128-128v-8h-56 c-22.056,0-40-17.944-40-40s17.944-40,40-40h20.408c46.088,0,83.592,37.504,83.592,83.584 C404.059,387.68,327.987,468.56,234.483,471.888z"></path><rect x="292.059" y="224" style="fill:#333333;" width="16" height="16"></rect><rect x="140.059" y="88" style="fill:#333333;" width="16" height="16"></rect><rect x="180.059" y="88" style="fill:#333333;" width="16" height="16"></rect></g><path style="fill:#FFA64D;" d="M108.059,48c-25.968-25.968-59.648-42.808-96-48l30.92,30.92c5.816,5.816,9.08,13.696,9.08,21.92 c0,11.744-6.632,22.48-17.136,27.728L20.059,88l16.176,8.088c9.696,4.848,15.824,14.76,15.824,25.6 c0,9.008-4.24,17.496-11.448,22.896L20.059,160c31.216,0,61.656-9.752,87.056-27.896L124.059,120V64L108.059,48z"></path></svg>