<svg width="32" height="32" viewBox="0 0 32 32" fill="none" xmlns="http://www.w3.org/2000/svg">
<path d="M30.6667 15.9999C30.6667 24.1066 24.1067 30.6666 16 30.6666C7.89333 30.6666 1.33333 24.1066 1.33333 15.9999C1.33333 7.89325 7.89333 1.33325 16 1.33325C24.1067 1.33325 30.6667 7.89325 30.6667 15.9999ZM17.3333 5.41325C20.1733 5.77325 22.76 7.26659 24.4933 9.54659L26.8133 8.21325C25.7177 6.66848 24.3056 5.37483 22.671 4.41843C21.0364 3.46203 19.2168 2.86483 17.3333 2.66659V5.41325ZM5.18667 8.21325L7.50667 9.54659C8.36617 8.41701 9.4419 7.46981 10.6712 6.76017C11.9004 6.05054 13.2587 5.59267 14.6667 5.41325V2.66659C12.7832 2.86483 10.9636 3.46203 9.329 4.41843C7.69439 5.37483 6.28227 6.66848 5.18667 8.21325ZM3.85333 21.4666L6.16 20.1333C5.61212 18.8241 5.32998 17.4191 5.32998 15.9999C5.32998 14.5807 5.61212 13.1757 6.16 11.8666L3.85333 10.5333C3.06921 12.249 2.66338 14.1134 2.66338 15.9999C2.66338 17.8864 3.06921 19.7508 3.85333 21.4666ZM14.6667 26.5866C13.2587 26.4072 11.9004 25.9493 10.6712 25.2397C9.4419 24.53 8.36617 23.5828 7.50667 22.4533L5.18667 23.7866C6.28227 25.3314 7.69439 26.625 9.329 27.5814C10.9636 28.5378 12.7832 29.135 14.6667 29.3333V26.5866ZM26.8133 23.7866L24.4933 22.4533C23.6338 23.5828 22.5581 24.53 21.3288 25.2397C20.0996 25.9493 18.7413 26.4072 17.3333 26.5866V29.2533C21.1333 28.8666 24.5867 26.8799 26.8133 23.7866ZM28.1467 21.4666C29.7333 17.9999 29.7333 13.9999 28.1467 10.5333L25.84 11.8666C26.3879 13.1757 26.67 14.5807 26.67 15.9999C26.67 17.4191 26.3879 18.8241 25.84 20.1333L28.1467 21.4666ZM20 15.9999L16 9.33325L12 15.9999L16 22.6666L20 15.9999Z" fill="white"/>
</svg>
