<svg width="24" height="25" viewBox="0 0 24 25" fill="none" xmlns="http://www.w3.org/2000/svg">
<mask id="mask0_5_1825" style="mask-type:luminance" maskUnits="userSpaceOnUse" x="5" y="2" width="14" height="21">
<path d="M12 21C12 21 6 14 6 9.5C6 6.18629 8.68629 3.5 12 3.5C15.3137 3.5 18 6.18629 18 9.5C18 14 12 21 12 21Z" fill="white" stroke="white" stroke-width="2" stroke-linecap="round"/>
<path d="M12 12C13.3807 12 14.5 10.8807 14.5 9.5C14.5 8.11929 13.3807 7 12 7C10.6193 7 9.5 8.11929 9.5 9.5C9.5 10.8807 10.6193 12 12 12Z" fill="black"/>
</mask>
<g mask="url(#mask0_5_1825)">
<path d="M24 0.5H0V24.5H24V0.5Z" fill="#C1051F"/>
</g>
</svg>
