<!-- icon666.com - MILLIONS vector ICONS FREE --><svg version="1.1" id="Layer_1" xmlns="http://www.w3.org/2000/svg" xmlns:xlink="http://www.w3.org/1999/xlink" x="0px" y="0px" viewBox="0 0 496.159 496.159" style="enable-background:new 0 0 496.159 496.159;" xml:space="preserve"><path style="fill:#E28A79;" d="M248.083,0.003C111.071,0.003,0,111.063,0,248.085c0,137.001,111.07,248.07,248.083,248.07 c137.006,0,248.076-111.069,248.076-248.07C496.159,111.062,385.089,0.003,248.083,0.003z"></path><g><polygon style="fill:#E2BB9A;" points="286.327,351.206 209.83,351.206 196.463,430.701 298.694,430.701 "></polygon><path style="fill:#E2BB9A;" d="M393.483,408.079c0,0-71.682-16.355-144.531-16.355c-72.85,0-143.279,16.355-143.279,16.355 c-12.827,0-24.078,7.996-30.449,17.917c44.646,43.381,105.552,70.118,172.712,70.157c0.265,0,0.528-0.005,0.793-0.006 c67.864-0.173,129.318-27.598,174.008-71.908C416.209,415.148,405.544,408.079,393.483,408.079z"></path><ellipse style="fill:#E2BB9A;" cx="341.38" cy="251.459" rx="9" ry="21.749"></ellipse><ellipse style="fill:#E2BB9A;" cx="154.39" cy="251.459" rx="9" ry="21.749"></ellipse></g><path style="fill:#E9C29C;" d="M248.322,108.588c-55.328,0-100.183,27.276-100.183,100.491c0,32.833,8.072,88.486,23.934,110.921 c11.368,16.079,47.572,53.795,76.249,53.795s64.329-34.383,76.839-54.716c14.292-23.229,23.345-77.6,23.345-110 C348.506,135.864,303.657,108.588,248.322,108.588z"></path><path style="fill:#9ACCC2;" d="M156.08,116.079c-30.497,47.701-18.616,110.635-11,132.5c2.124,6.096,6,2,6,2s52.796-36.758,98-83.75 V55.794C249.08,55.794,185.753,69.667,156.08,116.079z"></path><path style="fill:#A7D8CF;" d="M336.08,107.079c-35.652-41.994-70.029-51.573-89.753-59.107 c-13.805-5.273-13.499,30.249-11.999,54.248c1.598,25.571,14.752,64.609,14.752,64.609c38.5,51.25,101.5,77.25,101.5,77.25 S371.733,149.073,336.08,107.079z"></path><path style="fill:#72CC5E;" d="M290.21,215.829c-17.614,0-31.883,13.164-31.883,29.385c0,16.214,14.27,29.351,31.883,29.351 c17.611,0,31.929-13.137,31.929-29.351C322.139,228.993,307.821,215.829,290.21,215.829z"></path><path style="fill:#88D67B;" d="M290.213,219.611c-15.345,0-27.777,11.468-27.777,25.601c0,14.126,12.432,25.571,27.777,25.571 c15.342,0,27.817-11.444,27.817-25.571C318.03,231.079,305.555,219.611,290.213,219.611z"></path><g style="opacity:0.5;"><path style="fill:#90F47F;" d="M290.224,233.796c-6.838,0-12.378,5.11-12.378,11.408c0,6.295,5.54,11.395,12.378,11.395 c6.837,0,12.396-5.1,12.396-11.395C302.62,238.906,297.061,233.796,290.224,233.796z"></path></g><g style="opacity:0.5;"><polygon style="fill:#90F47F;" points="314.58,243.579 296.214,243.579 309.201,230.592 305.901,227.292 292.913,240.279 292.913,221.912 288.247,221.912 288.247,240.279 275.26,227.291 271.96,230.591 284.947,243.579 266.58,243.579 266.58,248.245 284.948,248.245 271.96,261.233 275.26,264.533 288.247,251.545 288.247,269.912 292.913,269.912 292.913,251.545 305.901,264.532 309.201,261.233 296.213,248.245 314.58,248.245 "></polygon></g><path style="fill:#72CC5E;" d="M206.21,215.829c-17.614,0-31.883,13.164-31.883,29.385c0,16.214,14.27,29.351,31.883,29.351 c17.611,0,31.929-13.137,31.929-29.351C238.139,228.993,223.821,215.829,206.21,215.829z"></path><path style="fill:#88D67B;" d="M206.213,219.611c-15.345,0-27.777,11.468-27.777,25.601c0,14.126,12.432,25.571,27.777,25.571 c15.342,0,27.817-11.444,27.817-25.571C234.03,231.079,221.555,219.611,206.213,219.611z"></path><g style="opacity:0.5;"><path style="fill:#90F47F;" d="M206.224,233.796c-6.838,0-12.378,5.11-12.378,11.408c0,6.295,5.54,11.395,12.378,11.395 c6.837,0,12.396-5.1,12.396-11.395C218.62,238.906,213.061,233.796,206.224,233.796z"></path></g><g style="opacity:0.5;"><polygon style="fill:#90F47F;" points="230.58,243.579 212.214,243.579 225.201,230.592 221.901,227.292 208.913,240.279 208.913,221.912 204.247,221.912 204.247,240.279 191.26,227.291 187.96,230.591 200.947,243.579 182.58,243.579 182.58,248.245 200.948,248.245 187.96,261.233 191.26,264.533 204.247,251.545 204.247,269.912 208.913,269.912 208.913,251.545 221.901,264.532 225.201,261.233 212.213,248.245 230.58,248.245 "></polygon></g><polygon style="fill:#FFFFFF;" points="248.437,320.336 221.043,321.389 248.058,327.946 275.831,321.389 "></polygon><path style="fill:#CE8C78;" d="M248.437,325.283c-9.131,0-28.442-3.704-28.442-3.704s9.8,16.64,28.443,16.64 s28.055-16.64,28.055-16.64S257.569,325.283,248.437,325.283z"></path><path style="fill:#DB9A83;" d="M262.134,314.439c-6.85,0-13.696,1.712-13.696,1.712s-6.849-1.712-13.697-1.712 c-6.849,0-14.746,7.14-14.746,7.14s17.789,1.111,28.443,1.111s28.055-1.111,28.055-1.111S268.983,314.439,262.134,314.439z"></path><path style="fill:#E8B1A0;" d="M224.237,320.736l17.275-3.394C230.078,312.369,224.237,320.736,224.237,320.736z"></path><path style="fill:#D8AF91;" d="M259.91,280.313l-5.505-31.932l3.303,33.033c0,0,9.634,6.882,1.927,14.314 C259.635,295.728,273.673,292.975,259.91,280.313z"></path><path style="fill:#E0B896;" d="M236.503,280.313c-13.763,12.662,0.275,15.415,0.275,15.415c-7.708-7.432,1.927-14.314,1.927-14.314 l3.304-33.033L236.503,280.313z"></path></svg>