<svg width="24" height="24" viewBox="0 0 24 24" fill="none" xmlns="http://www.w3.org/2000/svg">
<g clip-path="url(#clip0_3_277)">
<path d="M11.9998 1.33331C9.92328 1.33505 7.93181 2.15844 6.46036 3.62364C4.9889 5.08885 4.15705 7.0768 4.14648 9.15331C4.14648 12.2666 5.89315 14.8733 7.17315 16.7733L7.40648 17.12C8.68 18.9657 10.0462 20.7458 11.4998 22.4533L12.0065 23.0466L12.5132 22.4533C13.9666 20.7456 15.3328 18.9656 16.6065 17.12L16.8398 16.7666C18.1132 14.8666 19.8598 12.2666 19.8598 9.15331C19.8492 7.07565 19.0165 5.08669 17.5436 3.62129C16.0707 2.1559 14.0775 1.33329 11.9998 1.33331ZM11.9998 12.6666C11.1349 12.6666 10.2893 12.4102 9.57012 11.9296C8.85093 11.4491 8.29039 10.766 7.95938 9.96692C7.62838 9.16779 7.54177 8.28846 7.71052 7.44012C7.87926 6.59177 8.29578 5.81252 8.9074 5.2009C9.51903 4.58928 10.2983 4.17276 11.1466 4.00401C11.995 3.83527 12.8743 3.92187 13.6734 4.25288C14.4725 4.58389 15.1556 5.14443 15.6361 5.86362C16.1167 6.58281 16.3732 7.42835 16.3732 8.29331C16.3732 9.45319 15.9124 10.5656 15.0922 11.3857C14.2721 12.2059 13.1597 12.6666 11.9998 12.6666Z" fill="black"/>
<path d="M11.9999 10.78C13.3732 10.78 14.4865 9.66666 14.4865 8.29331C14.4865 6.91996 13.3732 5.80664 11.9999 5.80664C10.6265 5.80664 9.51318 6.91996 9.51318 8.29331C9.51318 9.66666 10.6265 10.78 11.9999 10.78Z" fill="black"/>
</g>
<defs>
<clipPath id="clip0_3_277">
<rect width="24" height="24" fill="white"/>
</clipPath>
</defs>
</svg>
