<svg width="32" height="32" viewBox="0 0 32 32" fill="none" xmlns="http://www.w3.org/2000/svg">
<path d="M5.276 14.64C5.276 14.282 5.568 14.026 5.896 14.026H8.5C8.58154 14.0258 8.66175 14.0466 8.73285 14.0866C8.80395 14.1265 8.86352 14.1841 8.90579 14.2538C8.94805 14.3236 8.97157 14.4031 8.97406 14.4846C8.97655 14.5661 8.95793 14.6468 8.92 14.719L7.357 17.719C7.32824 17.7742 7.2889 17.8231 7.24122 17.8631C7.19355 17.903 7.13847 17.9332 7.07913 17.9518C7.01979 17.9705 6.95736 17.9773 6.8954 17.9718C6.83344 17.9664 6.77316 17.9488 6.718 17.92C6.66285 17.8912 6.6139 17.8519 6.57394 17.8042C6.53399 17.7565 6.50382 17.7015 6.48516 17.6421C6.44747 17.5223 6.45892 17.3924 6.517 17.281L7.719 14.974H6.224V15.092C6.2184 15.2138 6.16607 15.3288 6.07788 15.413C5.9897 15.4972 5.87245 15.5442 5.7505 15.5442C5.62856 15.5442 5.5113 15.4972 5.42312 15.413C5.33493 15.3288 5.2826 15.2138 5.277 15.092L5.276 14.64ZM12.896 14.027C12.8148 14.0261 12.7343 14.0413 12.659 14.0717C12.5838 14.1022 12.5153 14.1473 12.4577 14.2044C12.4 14.2615 12.3542 14.3295 12.323 14.4045C12.2919 14.4794 12.2759 14.5598 12.276 14.641V15.092C12.2816 15.2138 12.3339 15.3288 12.4221 15.413C12.5103 15.4972 12.6276 15.5442 12.7495 15.5442C12.8714 15.5442 12.9887 15.4972 13.0769 15.413C13.1651 15.3288 13.2174 15.2138 13.223 15.092V14.973H14.719L13.518 17.281C13.4599 17.3924 13.4485 17.5223 13.4862 17.6421C13.5239 17.762 13.6076 17.8619 13.719 17.92C13.8304 17.9781 13.9603 17.9895 14.0801 17.9518C14.2 17.9141 14.2999 17.8304 14.358 17.719L15.92 14.719C15.9577 14.6469 15.9761 14.5662 15.9735 14.4848C15.9709 14.4035 15.9473 14.3242 15.9051 14.2546C15.8629 14.185 15.8034 14.1275 15.7324 14.0876C15.6615 14.0478 15.5814 14.0269 15.5 14.027H12.896ZM19.277 14.64C19.277 14.282 19.567 14.026 19.896 14.026H22.5C22.5815 14.0258 22.6618 14.0466 22.7329 14.0866C22.804 14.1265 22.8635 14.1841 22.9058 14.2538C22.9481 14.3236 22.9716 14.4031 22.9741 14.4846C22.9765 14.5661 22.9579 14.6468 22.92 14.719L21.357 17.719C21.3282 17.7742 21.2889 17.8231 21.2412 17.8631C21.1935 17.903 21.1385 17.9332 21.0791 17.9518C21.0198 17.9705 20.9574 17.9773 20.8954 17.9718C20.8334 17.9664 20.7732 17.9488 20.718 17.92C20.6628 17.8912 20.6139 17.8519 20.5739 17.8042C20.534 17.7565 20.5038 17.7015 20.4852 17.6421C20.4665 17.5828 20.4597 17.5204 20.4652 17.4584C20.4706 17.3964 20.4882 17.3362 20.517 17.281L21.72 14.974H20.224V15.092C20.224 15.2177 20.1741 15.3383 20.0852 15.4272C19.9963 15.5161 19.8757 15.566 19.75 15.566C19.6243 15.566 19.5037 15.5161 19.4148 15.4272C19.3259 15.3383 19.276 15.2177 19.276 15.092L19.277 14.64ZM6 24.554C6 24.252 6.257 24 6.566 24H21.434C21.743 24 22 24.252 22 24.554V25.32C22 26.8 20.775 28 19.261 28H8.74C7.225 28 6 26.801 6 25.32V24.554Z" fill="white"/>
<path d="M1 7.332C1 5.392 2.712 4 4.584 4H23.426C25.303 4 27 5.396 27 7.332V13H29V7.915C28.6664 7.79705 28.3852 7.56497 28.2062 7.25976C28.0271 6.95455 27.9618 6.59588 28.0216 6.24713C28.0814 5.89839 28.2626 5.58202 28.5332 5.35395C28.8037 5.12588 29.1462 5.00079 29.5 5.00079C29.8538 5.00079 30.1963 5.12588 30.4668 5.35395C30.7374 5.58202 30.9186 5.89839 30.9784 6.24713C31.0382 6.59588 30.9729 6.95455 30.7938 7.25976C30.6148 7.56497 30.3336 7.79705 30 7.915V13H30.355C30.717 13 31 13.252 31 13.573V17.427C31 17.738 30.717 18 30.355 18H27V28.462C26.984 29.815 25.917 31 24.5 31H3.5C2.099 31 1 29.838 1 28.45V7.332ZM4.584 6C3.614 6 3 6.69 3 7.332V10.5H25V7.332C25 6.684 24.391 6 23.426 6H4.584ZM25 11.5H22.25V11.51C22.25 12.194 21.69 12.75 21 12.75C20.31 12.75 19.75 12.194 19.75 11.51V11.5H15.25V11.51C15.25 12.194 14.69 12.75 14 12.75C13.31 12.75 12.75 12.194 12.75 11.51V11.5H8.25V11.51C8.25 12.194 7.69 12.75 7 12.75C6.31 12.75 5.75 12.194 5.75 11.51V11.5H3V20.5H5.75V20.49C5.75 19.806 6.31 19.25 7 19.25C7.69 19.25 8.25 19.806 8.25 20.49V20.5H12.75V20.49C12.75 19.806 13.31 19.25 14 19.25C14.69 19.25 15.25 19.806 15.25 20.49V20.5H19.75V20.49C19.75 19.806 20.31 19.25 21 19.25C21.69 19.25 22.25 19.806 22.25 20.49V20.5H25V11.5ZM3 21.5V28.45C3 28.786 3.254 29 3.5 29H24.5C24.73 29 24.994 28.79 25 28.443V21.5H3Z" fill="white"/>
</svg>
