<svg width="24" height="24" viewBox="0 0 24 24" fill="none" xmlns="http://www.w3.org/2000/svg">
<g clip-path="url(#clip0_0_82)">
<path d="M20.0016 21.2718L18.2156 17.564C17.8313 16.7718 17.3344 16.1953 16.4766 16.5468L14.7844 17.175C13.4297 17.8031 12.7547 17.175 12.075 16.2281L9.02813 9.29528C8.64376 8.5031 8.84532 7.75778 9.70313 7.40622L12.0703 6.45935C12.9281 6.1031 12.7922 5.36247 12.4078 4.57028L10.3781 0.792158C9.99376 -2.90871e-05 9.20626 -0.192217 8.34844 0.159346C6.63282 0.867158 5.21251 1.9781 4.28907 3.62341C3.16407 5.63435 3.72657 8.43278 3.95157 9.60935C4.17657 10.7859 4.96407 12.8484 5.98126 14.9625C6.99844 17.0812 7.88907 18.7453 8.69063 19.6875C9.48751 20.6297 11.4 23.2078 13.7672 23.7843C15.7078 24.2531 17.8031 23.8593 19.5188 23.1515C20.3813 22.814 20.3813 22.0687 20.0016 21.2718Z" fill="black"/>
</g>
<defs>
<clipPath id="clip0_0_82">
<rect width="24" height="24" fill="white"/>
</clipPath>
</defs>
</svg>
