<!-- icon666.com - MILLIONS vector ICONS FREE --><svg version="1.1" id="Capa_1" xmlns="http://www.w3.org/2000/svg" xmlns:xlink="http://www.w3.org/1999/xlink" x="0px" y="0px" viewBox="0 0 404.453 404.453" style="enable-background:new 0 0 404.453 404.453;" xml:space="preserve"><g><g><path d="M202.232,176.556c14.168,0,25.661,11.487,25.661,25.658c0,14.172-11.493,25.659-25.661,25.659 c-14.171,0-25.659-11.487-25.659-25.659C176.574,188.043,188.061,176.556,202.232,176.556z" fill="#ffffff"></path><path d="M345.203,59.204c-4.155-4.141-9.68-6.419-15.564-6.419s-11.415,2.278-15.594,6.437 c-8.581,8.596-8.581,22.578,0.012,31.174c29.861,29.847,46.303,69.557,46.303,111.825c0,42.262-16.441,81.971-46.314,111.82 c-4.162,4.174-6.456,9.704-6.456,15.589c0,5.873,2.294,11.403,6.468,15.576c4.173,4.167,9.71,6.462,15.582,6.462 c5.873,0,11.409-2.295,15.589-6.462c38.166-38.166,59.207-88.942,59.226-142.985C404.453,148.216,383.418,97.425,345.203,59.204z" fill="#ffffff"></path><path d="M44.087,202.208c0-42.25,16.45-81.953,46.309-111.812c8.596-8.596,8.596-22.59-0.012-31.191 c-4.164-4.141-9.686-6.419-15.57-6.419c-5.879,0-11.4,2.278-15.58,6.431C21.043,97.425,0,148.216,0,202.208 c0,54.031,21.043,104.808,59.246,143.011c4.167,4.154,9.704,6.449,15.573,6.449c5.879,0,11.406-2.307,15.57-6.468 c4.167-4.161,6.461-9.686,6.461-15.57s-2.294-11.415-6.455-15.589C60.537,284.186,44.087,244.464,44.087,202.208z" fill="#ffffff"></path><path d="M302.756,101.685c-4.161-4.155-9.698-6.449-15.583-6.449c-5.872,0-11.409,2.282-15.588,6.443 c-4.155,4.17-6.449,9.704-6.449,15.589c0,5.878,2.294,11.412,6.449,15.576c38.25,38.245,38.25,100.493,0.012,138.731 c-4.167,4.161-6.461,9.692-6.461,15.589c0,5.885,2.294,11.415,6.461,15.601c4.167,4.144,9.691,6.425,15.576,6.425 c5.879,0,11.397-2.281,15.583-6.438c26.799-26.816,41.577-62.521,41.577-100.538C344.333,164.195,329.567,128.502,302.756,101.685 z" fill="#ffffff"></path><path d="M104.132,202.208c0-26.205,10.208-50.827,28.742-69.322c8.584-8.596,8.584-22.578-0.006-31.168 c-4.164-4.164-9.698-6.458-15.583-6.458c-5.884,0-11.412,2.294-15.582,6.446c-26.851,26.838-41.641,62.534-41.641,100.508 c0,37.975,14.79,73.673,41.641,100.538c4.158,4.156,9.686,6.438,15.576,6.438c5.903,0,11.442-2.294,15.588-6.449 c4.156-4.149,6.456-9.68,6.456-15.564c0.012-5.896-2.282-11.433-6.456-15.601C114.346,253.045,104.132,228.425,104.132,202.208z" fill="#ffffff"></path><path d="M260.296,144.169c-4.168-4.17-9.716-6.464-15.589-6.464c-5.885,0-11.421,2.294-15.576,6.446 c-4.161,4.176-6.449,9.704-6.449,15.585c0,5.885,2.288,11.415,6.449,15.582c14.819,14.832,14.819,38.972,0,53.803 c-4.161,4.168-6.449,9.704-6.449,15.589c0,5.873,2.288,11.409,6.437,15.564c4.156,4.161,9.704,6.461,15.589,6.461 c5.896,0,11.427-2.3,15.595-6.473C292.289,228.245,292.289,176.174,260.296,144.169z" fill="#ffffff"></path><path d="M164.231,202.221c0-10.176,3.942-19.72,11.124-26.89c4.165-4.167,6.452-9.704,6.452-15.585 c0-5.891-2.288-11.418-6.47-15.601c-4.162-4.146-9.686-6.425-15.57-6.425c-5.882,0-11.406,2.279-15.586,6.431 c-31.987,32.011-31.987,84.112,0,116.124c4.174,4.167,9.704,6.468,15.601,6.468c5.885,0,11.412-2.301,15.556-6.449 c4.164-4.162,6.449-9.692,6.461-15.57c0.009-5.892-2.279-11.422-6.443-15.595C168.167,221.952,164.231,212.393,164.231,202.221z" fill="#ffffff"></path></g></g></svg>