<!-- icon666.com - MILLIONS vector ICONS FREE --><svg version="1.1" id="Capa_1" xmlns="http://www.w3.org/2000/svg" xmlns:xlink="http://www.w3.org/1999/xlink" x="0px" y="0px" viewBox="0 0 480 480" style="enable-background:new 0 0 480 480;" xml:space="preserve"><g><g><path d="M349.656,250.344l-24-24c-1.5-1.5-3.534-2.344-5.656-2.344H160c-2.122,0-4.156,0.844-5.656,2.344l-24,24 c-2.196,2.199-2.92,5.472-1.856,8.392l32,88c1.15,3.159,4.151,5.262,7.512,5.264h144c3.361-0.002,6.362-2.106,7.512-5.264l32-88 C352.576,255.816,351.853,252.543,349.656,250.344z M173.6,336l-28.344-77.944l16.592-16.592L182.104,336H173.6z M198.464,336 l-20.568-96h22.656l6.856,96H198.464z M232,336h-8.552l-6.856-96H232V336z M256.552,336H248v-96h15.408L256.552,336z M272.592,336 l6.856-96h22.656l-20.568,96H272.592z M306.4,336h-8.504l20.256-94.536l16.592,16.592L306.4,336z" fill="#ffffff"></path></g></g><g><g><path d="M143.432,341.032l-16-40c-1.214-3.04-4.158-5.033-7.432-5.032H40c-4.418,0-8,3.582-8,8v40c0,4.418,3.582,8,8,8h96 c4.418,0.002,8.001-3.579,8.003-7.997C144.003,342.985,143.81,341.977,143.432,341.032z M48,336v-24h66.584l9.6,24H48z" fill="#ffffff"></path></g></g><g><g><path d="M440,296h-80c-3.273-0.001-6.218,1.992-7.432,5.032l-16,40c-1.639,4.103,0.358,8.758,4.461,10.397 c0.945,0.378,1.953,0.571,2.971,0.571h96c4.418,0,8-3.582,8-8v-40C448,299.582,444.418,296,440,296z M432,336h-76.184l9.6-24H432 V336z" fill="#ffffff"></path></g></g><g><g><path d="M440,224h-34.336c-16.377-0.057-31.117,9.924-37.144,25.152l-7.952,19.88c-1.639,4.103,0.358,8.758,4.461,10.397 c0.945,0.378,1.953,0.571,2.971,0.571h56c13.255,0,24-10.745,24-24v-24C448,227.582,444.418,224,440,224z M432,256 c0,4.418-3.582,8-8,8h-44.184l3.568-8.912c3.617-9.133,12.457-15.12,22.28-15.088H432V256z" fill="#ffffff"></path></g></g><g><g><path d="M119.432,269.032l-7.952-19.88c-6.027-15.228-20.767-25.209-37.144-25.152H40c-4.418,0-8,3.582-8,8v24 c0,13.255,10.745,24,24,24h56c4.418,0.002,8.001-3.579,8.003-7.997C120.003,270.985,119.81,269.977,119.432,269.032z M56,264 c-4.418,0-8-3.582-8-8v-16h26.336c9.823-0.032,18.663,5.955,22.28,15.088l3.568,8.912H56z" fill="#ffffff"></path></g></g><g><g><path d="M391.432,165.032l-32-80c-1.214-3.04-4.158-5.033-7.432-5.032H128c-3.274-0.001-6.218,1.992-7.432,5.032l-32,80 c-1.639,4.103,0.358,8.758,4.461,10.397c0.945,0.378,1.953,0.571,2.971,0.571h288c4.418,0.002,8.001-3.579,8.003-7.997 C392.003,166.985,391.81,165.977,391.432,165.032z M107.816,160l25.6-64h213.168l25.6,64H107.816z" fill="#ffffff"></path></g></g><g><g><path d="M435.32,168H456c13.255,0,24-10.745,24-24s-10.745-24-24-24h-16c-10.384,0.036-19.562,6.759-22.728,16.648l-37.696-75.384 c-4.044-8.149-12.367-13.292-21.464-13.264H114.544c-9.596,0.004-18.267,5.724-22.048,14.544l-30.68,71.576 C57.942,125.543,49.412,120.022,40,120H24c-13.255,0-24,10.745-24,24s10.745,24,24,24h20.68L7.032,205.656 c-4.518,4.489-7.05,10.599-7.032,16.968V344c0.024,19.001,13.389,35.373,32,39.2V408c0,13.255,10.745,24,24,24h32 c13.255,0,24-10.745,24-24v-24h256v24c0,13.255,10.745,24,24,24h32c13.255,0,24-10.745,24-24v-24.8 c18.611-3.827,31.976-20.199,32-39.2V222.624c0.015-6.368-2.517-12.477-7.032-16.968L435.32,168z M432,144c0-4.418,3.582-8,8-8h16 c4.418,0,8,3.582,8,8s-3.582,8-8,8h-24V144z M24,152c-4.418,0-8-3.582-8-8s3.582-8,8-8h16c4.418,0,8,3.582,8,8v8H24z M96,408 c0,4.418-3.582,8-8,8H56c-4.418,0-8-3.582-8-8v-24h48V408z M432,408c0,4.418-3.582,8-8,8h-32c-4.418,0-8-3.582-8-8v-24h48V408z M464,344c0,13.255-10.745,24-24,24H40c-13.255,0-24-10.745-24-24V222.624c0-2.122,0.844-4.156,2.344-5.656l44.408-44.4 L107.2,68.848c1.26-2.938,4.147-4.844,7.344-4.848h243.568c3.033-0.012,5.808,1.705,7.152,4.424l52.16,104.32l44.232,44.224 c1.5,1.5,2.344,3.534,2.344,5.656V344z" fill="#ffffff"></path></g></g></svg>