<svg width="26" height="26" viewBox="0 0 26 26" fill="none" xmlns="http://www.w3.org/2000/svg">
<path fill-rule="evenodd" clip-rule="evenodd" d="M13.0002 22.75L13.7672 23.5149C13.6665 23.6159 13.5469 23.6961 13.4152 23.7508C13.2835 23.8055 13.1422 23.8337 12.9996 23.8337C12.857 23.8337 12.7158 23.8055 12.5841 23.7508C12.4523 23.6961 12.3327 23.6159 12.2321 23.5149L12.2256 23.5073L12.2072 23.4889L12.14 23.4206C11.7581 23.0272 11.3825 22.6278 11.0133 22.2224C10.0864 21.2068 9.19889 20.1559 8.35266 19.0721C7.38633 17.8263 6.39833 16.4179 5.64758 15.0269C4.91308 13.663 4.3335 12.1854 4.3335 10.8334C4.3335 5.9161 8.22483 2.16669 13.0002 2.16669C17.7755 2.16669 21.6668 5.9161 21.6668 10.8334C21.6668 12.1854 21.0872 13.663 20.3527 15.0259C19.602 16.419 18.6151 17.8263 17.6477 19.0721C16.464 20.5884 15.1997 22.04 13.8603 23.4206L13.7932 23.4889L13.7747 23.5073L13.7682 23.5138L13.0002 22.75ZM13.0002 14.0834C13.8621 14.0834 14.6888 13.7409 15.2983 13.1315C15.9078 12.522 16.2502 11.6953 16.2502 10.8334C16.2502 9.9714 15.9078 9.14475 15.2983 8.53526C14.6888 7.92576 13.8621 7.58335 13.0002 7.58335C12.1382 7.58335 11.3116 7.92576 10.7021 8.53526C10.0926 9.14475 9.75016 9.9714 9.75016 10.8334C9.75016 11.6953 10.0926 12.522 10.7021 13.1315C11.3116 13.7409 12.1382 14.0834 13.0002 14.0834Z" fill="#434650"/>
</svg>
