<svg width="24" height="24" viewBox="0 0 24 24" fill="none" xmlns="http://www.w3.org/2000/svg">
<path d="M11 21V20H22V21H11ZM12 18.615C12 17.4577 12.3833 16.455 13.15 15.607C13.9166 14.759 14.8666 14.2757 16 14.157V13.744C16 13.6147 16.0476 13.499 16.143 13.397C16.239 13.295 16.358 13.244 16.5 13.244C16.6293 13.244 16.745 13.295 16.847 13.397C16.949 13.499 17 13.6147 17 13.744V14.158C18.1293 14.276 19.0783 14.759 19.847 15.607C20.6156 16.455 21 17.4577 21 18.615H12ZM2.03796 11.923H5.03796V3.77H2.03796V11.923ZM6.03796 11.923H8.41796L14.987 9.51C15.2316 9.41867 15.4233 9.26933 15.562 9.062C15.7 8.85533 15.769 8.62567 15.769 8.373V8.353C15.769 8.151 15.6966 7.97767 15.552 7.833C15.4073 7.68767 15.2336 7.615 15.031 7.615H12.769L10.173 8.54L9.86196 7.788L12.731 6.846H19C19.4306 6.846 19.814 6.69933 20.15 6.406C20.486 6.11267 20.654 5.74667 20.654 5.308L13.654 2.962L6.03796 5.18V11.922V11.923Z" fill="#434650"/>
</svg>
