<!-- icon666.com - MILLIONS vector ICONS FREE --><svg version="1.1" id="Layer_1" xmlns="http://www.w3.org/2000/svg" xmlns:xlink="http://www.w3.org/1999/xlink" x="0px" y="0px" viewBox="0 0 508 508" style="enable-background:new 0 0 508 508;" xml:space="preserve"><circle style="fill:#39B39B;" cx="254" cy="254" r="254"></circle><circle style="fill:#D0A22B;" cx="277" cy="236.4" r="112.6"></circle><circle style="fill:#FFCA0D;" cx="277" cy="236.4" r="92.8"></circle><path style="fill:#F7F8F9;" d="M268.8,300.6v-15c-10.6-0.4-20.8-3.4-26.8-6.8l4.8-18.4c6.6,3.6,15.8,7,26.2,7c9,0,15-3.4,15-9.8 c0-6-5-9.8-16.6-13.6c-16.8-5.6-28.4-13.6-28.4-28.8c0-13.8,9.8-24.6,26.6-28v-15H285V186c10.6,0.4,17.6,2.6,22.8,5.2l-4.6,17.8 c-4-1.8-11.4-5.4-22.6-5.4c-10.2,0-13.6,4.4-13.6,8.8c0,5.2,5.6,8.4,18.8,13.6c18.8,6.6,26.2,15.2,26.2,29.4c0,14-10,26-28,29v16 h-15.2V300.6z"></path><path style="fill:#FFFFFF;" d="M324.4,323.8c1,0,2.2,2.4,2.4,3.2c0.6,1.6,0.4,3.2,0.6,4.8c0,1.8-0.4,3.2-1.6,4.6 c-1,1.2-2.2,1.8-3.4,2.6c1.6,0.2,3.4-1.2,4.6-2c1.6-1,2.4-2.6,3-4.2c0.8-3.2-0.8-6.6-3.4-8c-0.6-0.4-1.2-0.4-1.6-0.8"></path><g><path style="fill:#FBDDB9;" d="M371.2,331.2c-0.2-0.8-0.2-1.6,0.4-2.2c0.6-0.8,1.2-1.4,2-1.8c1.6-1,3.2-2,4.8-3 c0.8-0.6,1.6-1.2,2.4-1.8c1-0.6,1.8-1.2,2.8-1.8c0.8-0.6,1.6-0.8,2.6-1.2c0.8-0.2,2.2-0.8,2,0.6c-0.4,1.8-2.8,2.6-4,3.6 c-0.6,0.6-1.4,1-2.2,1.6c-0.8,0.4-1.4,1-2.2,1.6c-1.4,0.8-2.6,1.6-4.2,2.4c-0.8,0.4-1.4,0.8-2.2,1.2 C372.8,330.4,372,331.2,371.2,331.2"></path><path style="fill:#FBDDB9;" d="M374.2,334c0-0.8,0.6-1.6,1-2.4s1-1.4,1.6-2.2c0.8-0.6,1.8-1,2.8-1.6c0.8-0.4,1.6-1,2.2-1.6 c0.8-0.6,1.8-1.2,2.6-1.8c1-0.6,1.8-1.2,2.8-1.6c0.4-0.2,1-0.4,1.4-0.8c0.6-0.4,1.2-0.6,1.8-0.8c0.4-0.2,0.8-0.4,1.2-0.4 c0.2,0,1-0.2,1.4-0.2c0.4,0.2,0.4,0.8,0.2,1.2c-0.2,0.4-0.6,0.8-0.8,1c-0.8,0.6-1.6,1-2.4,1.6c-0.4,0.2-0.8,0.6-1,0.8 c-0.4,0.2-0.8,0.6-1.2,0.8c-0.8,0.6-1.6,1-2.4,1.4c-1.6,1-3,2-4.4,2.8c-1.6,1-3,2-4.8,2.8C375.8,333.4,374.8,334,374.2,334"></path></g><g><path style="fill:#FFFFFF;" d="M386.4,322c0.6-0.2,1-0.8,1-1.4s-0.4-0.8-1-0.8c-0.8,0-1.6,0.4-2.4,0.8c-0.6,0.2-1.2,0.4-1.8,0.8 c-0.2,0-0.4,0.2-0.4,0.2c0.4-0.2,0.6-0.4,1-0.6c0.2-0.2,0.4-0.4,0.8-0.6c0.6-0.4,1.2-0.8,1.8-1c0.6-0.4,1.2-0.6,1.8-0.6 c0.2,0,0.4,0,0.8,0c0.2,0,0.2,0.2,0.4,0.6c0.2,0.6,0,1-0.4,1.4c-0.2,0.2-0.2,0.4-0.4,0.6c-0.2,0.2-0.4,0.2-0.6,0.4"></path><path style="fill:#FFFFFF;" d="M391.2,323.6c0-0.4,0.6-0.6,0.8-1c0.2-0.2,0.2-0.6,0.2-0.8c-0.4-0.2-1-0.2-1.4-0.2 c-0.8,0-1.2,0.2-2,0.6c-0.6,0.2-1.2,0.6-1.8,0.8c-0.4,0.2-0.8,0.4-1.2,0.6c0.6-0.4,1-1,1.8-1.2c0.6-0.4,1.4-0.6,2-0.8 c1-0.4,2.2-1,3.4-0.8c0.8,0,0.2,1.2,0,1.4c-0.2,0.2-0.4,0.4-0.8,0.6c-0.2,0.2-0.6,0.6-0.8,0.8"></path></g><path style="fill:#FAD198;" d="M390.4,317.4c-5.2-2.2-8-5.2-14-5.2c-9.2,0-18.2,5.6-27,8.4c-4.4,1.6-9,3.2-13.4,4.8 c-2,0.8-4.2,2.6-6.4,1.8c-2-0.8-5-4.8-7.2-5.8c-5-2.4-8-4.4-13.4-5.6c-4.8-1-10.8-1.2-15.6-1.6c-9.8-0.6-19.8,0-29.4-1.6 c-6.6-1-14.6-5.2-27.8-11.6c-9.6-4.6-22.2-4.6-33.2-4.6c-12.4,0-22.4,1.8-33.6,6.2c-9,3.6-23.2,3.6-32.8,1.2c-5.6-1.4-11.4-2-17.2-3 c-2.6-0.4-5.4-1.4-8.2-1.8v65.2h0.8c2.6,0.2,5-0.8,7.6-0.8c3.2,0,6-0.4,9.2-0.8c6.6-0.8,12.8-1.4,19.4-1.4c6,0,12-0.2,18.2-0.2 c6.8,0,13.2,1.4,19.8,3c11.4,2.8,22,7.4,33.4,9.6c11.8,2.2,23.2,5.8,34.6,9.2c4,1.2,11.2,1.8,15.4,0.4c4.2-1.4,8.2-4.2,12.4-6 c9.2-3.8,18.6-4.8,28-7.8c4.8-1.6,9-4,13.8-5.2c5.2-1.2,9.6-4.2,13.8-7c8.2-5.8,16-13.4,25-17.6s18.2-9,26.4-14.8c1.4-1,3.8-2.4,4-3 C393.8,320.8,392.2,318.2,390.4,317.4z"></path><g><path style="fill:#E2A14A;" d="M328.6,326.6c3,1.2,1.2,7.2-0.2,9c-2,2.4-6,3.4-9,4c-7.6,1.6-15.6,2.6-23.6,3 c-7.6,0.4-15.4,0.8-23.2,0.4c-3.8-0.2-7.2-1.4-11.2-1.4c-3.6,0-7.2,0-10.8,0c-4.2,0-7.2,1.8-11.2,2.8c-1.6,0.4-3.4,0.6-5.2,1 c-2.4,0.6-2.8,1.6-4.4,3c7.6,1.8,12.4-4.4,19.4-5.4c2.8-0.4,8-1.2,10.4,0.4c1.4,0.8,2.2,2.4,2.4,4c0.2,2-1.2,4.2-0.8,6 c0.6-1.4,1.6-2.8,2.2-4.2c0.8-1.4,1-3,1.8-4.6c1-1.8,2-1.4,4-1c1.8,0.4,2.4,1.6,4.4,1.4c3.2-0.2,7-0.6,10.2,0.2 c4.2,0.8,1.2,4.2,1.6,7c1.8,0.2,2-3.2,2.6-4.4c1-2.2,2-2.8,4.2-3.2c3.8-0.6,8-0.4,12-1s8.2-1.4,12.4-2c2.4-0.4,3.2-0.2,4.8,1.8 c1,1,2,3.8,3.6,3.6c0.4-2.4-2-4.6-1.4-6.8c2,0,2.2-0.2,3.6-1.4c1-0.8,2.4-1.6,3-2.8c1.6-3-0.2-5.8,4.4-6.2c0.2,2.4,1,5.2,0.8,7.4 c0-2-1.2-7.8,0.2-9.4c0.6-0.8,4-2,5-2.4c1.6-0.6,3-1,4.6-1.6c3.4-1.2,5.2-1.4,6.6,2.4c1,2.6,2.6,6.6,2.6,9.2c2.2-1-1-9.6-0.8-11.8 c0.2-2.4,1.2-2.8,3.2-4s4.4-2.4,6.4-3.2c3.8-1.6,7.4-2.8,11.8-3c3-0.2,8,0,8.2,4c0.2,3-4.4,5.2-6.8,6.8c-1.8,1.2-6.6,4-6,6.6 c1-3.6,5.6-5.8,8.4-7.6c1.6-1,6.6-6.2,8.4-4.6s-5.6,6.4-7.4,7.6c-3.2,2-6.8,3.4-10,5.4c-6.6,4.2-13.4,7.8-20.4,11.4 c-6.8,3.6-12.2,9.6-19.2,12.6c-3.4,1.4-6.8,2.8-10.2,4c-3.6,1.2-7.2,2-10.6,3.4c-7.2,2.8-15,4-22.4,6.6c-3.4,1.2-6.2,3.2-9,5.2 c-2.2,1.4-5.2,4.4-7.8,4c2-0.4,3.4-1.8,5-2.6c2-1.2,4.2-1.8,6.2-2.6c3.6-1.4,7.2-3.6,10.8-5c3.4-1.2,7.2-1.6,10.6-2.6 c4-1.2,8.2-2.2,12.6-2.8c2-0.2,4.4-1.2,6-2.6c-0.2,0.6-0.2,1-0.4,1.6c0.2-1.6,1.8-2.6,3.2-3c-0.2,0.6-0.4,1.2-0.8,1.6 c0.2-0.6,0.6-1.4,1.2-1.8c0,1.2,0,2.4,0,3.6c-0.2-1.6,0.4-3.6,1.8-4.4c0,0.4,0.2,1,0,1.4c0-0.6,0.2-0.8,0.2-1.4 c0.2,0.2,0.6,0.4,0.8,0.8c0-0.2,0.4-0.4,0.4-0.8c0,0.2,0.4,0.6,0.6,0.8c0.2-1.2,0.8-1.2,1.4-0.4c0.4-0.6,0.4-2,1.6-1.8 c-0.6-2.4,4.2-2,5.8-1.8c-2.8-0.2,1.2-3.4,2-4c1.6-1,3-2,4.8-3c3-1.8,5.8-3.4,8.8-5.2c3-2,6.2-4,9.6-5.6s7.8-3,10.8-5.8 c-0.2,0.8-0.4,1.6-0.4,2.4c0.8-0.4,1-1.8,1.6-2.8c0.6-1.2,1.4-1.4,2.4-2c2.2-1.4,4.2-2.8,6.4-4c3.2-2,5.6-4.6,9.6-4.4 c-2.6-5.2-11-8.2-17.8-8.2c-4.4,0-9,1.4-13,3.2c-3.4,1.4-5.2,2-8.6,3.4c-4.2,1.8-8.4,3.4-12.4,4.6c-2.4,0.8-4.4,2-6.8,3 c-2.2,0.8-3.8,0.8-6.2,0.6"></path><path style="fill:#E2A14A;" d="M325.8,324.2c-1.6-0.2-2.8-1.4-4.4-1.6c-1.8-0.2-3.6-0.4-5.4-0.6c-2.8-0.2-6.8-0.2-8.8,2 c-1.2,1.2-1,2.4-1.2,4s-0.8,3-1,4.6c-0.2,1.4-0.2,2.8-0.2,4.2c0.2,2.4,1.2,2.4,3,3.6c-2.2,0-3.4-0.2-4-2.4c-0.4-2-0.2-4.2-0.2-6.4 c0-3.6,0-7.2,3.6-8.8c1.4-0.8,10.8-1.4,6-3.8c-3-1.6-7.4-1.6-10.6-2.2c-5.4-1.2-11.8-1-17.6-0.8c-0.4,2.6,0.8,5.4,0.8,8.2 c0,2.4,0.4,5.8,0,8.2c-0.8-1.6-1-4.2-1.4-6.2s-0.2-4-0.2-6s0.2-3.2-1.8-4s-4.6,0-6.6,0.2c-4,0.4-8.2-0.2-12.2-1 c-0.8-0.2-1.6-0.6-2.6-0.6c-0.4,0-1,0.2-1.4,0c-0.6-0.2-0.6-1-1.4-1.2c-2-0.8-4.2,0-6.2-0.6c-0.4,0-0.6,0-1-0.2 c0.2-3-5.6-5.2-7.6-6.4c-1.6-1-3-1.2-4.6-1.6s-2.8-1.6-4.4-2.4c-3.2-1.4-6.4-2.4-9.8-3c-3.2-0.4-6.8-0.8-9.8-1.6 c3-1.8,8.6,0,11.6,0.8c3.8,1.2,7.6,2.2,11.2,3.8c3.8,1.8,7.6,3.4,11.4,5.6c3.4,2,7.6,2.4,11.2,3.6c3.4,1,7.2,1.8,10.8,2 c3.6,0.2,7.6-0.2,11.2,0.2c3.8,0.4,8,0.4,12,0.4c3.8,0,6.8,1.2,10.4,1.8c3.8,0.6,7.4,1.2,11,2.4c3,1,7.4,2,9.6,4.6"></path></g><path style="fill:#FBDDB9;" d="M313.8,340.4c-3,0.4-7.8,0.6-8.6-3c-1-3.6,0-7.6,1-11c0.4-1.6,1.4-3.4,3.2-3.8 c1.8-0.6,3.6-0.8,5.6-0.8c3.2,0,6.6,0.6,9.4,2c3,1.4,5.2,3.8,5.2,7.2c0,3.2-2,6-4.6,7.2c-1,0.4-1.8,1-3,1.2c-1,0.2-1.8,0.2-2.8,0.4 c-1,0.2-1.8,0.4-2.8,0.4C315.4,340,314.6,340.4,313.8,340.4"></path><rect x="82.8" y="292" style="fill:#E65336;" width="75" height="81"></rect></svg>