<!-- icon666.com - MILLIONS vector ICONS FREE --><svg version="1.1" id="Capa_1" xmlns="http://www.w3.org/2000/svg" xmlns:xlink="http://www.w3.org/1999/xlink" x="0px" y="0px" viewBox="0 0 496 496" style="enable-background:new 0 0 496 496;" xml:space="preserve"><path style="fill:#FFA64D;" d="M312,424H146.248C114.08,424,88,397.92,88,365.752c0-9.04,2.104-17.96,6.152-26.048l12.384-24.768 C120.648,286.696,128,255.568,128,224l0.36-1.808c-4.568,1.064-9.216,1.808-13.976,1.808h-4.776c-13.992,0-27.56-4.76-38.488-13.504 c-1.464-1.168-2.856-2.416-4.24-3.672l0,0L64,208c0,31.504-7.816,62.52-22.76,90.264l-21.024,39.048C12.2,352.2,8,368.856,8,385.776 C8,442.232,53.768,488,110.224,488H376C376,452.656,347.344,424,312,424z"></path><g><path style="fill:#333333;" d="M424,352h-0.888C433.52,341.824,440,327.664,440,312c0-30.872-25.128-56-56-56h-1.968 c-2.216-8.536-6.032-26.344-6.032-48c0-10.464,3.608-19.48,7.432-29.024C387.64,168.432,392,157.536,392,144 c0-30.992-12.736-49.136-20.328-57.192C367.592,82.48,361.88,80,356.008,80c-10.808,0-19.912,8.072-21.2,18.776 c-2.712,22.368-7.488,45.72-23.912,64.896c-9.168,10.688-16.48,22.752-21.72,35.848c-6.088,15.232-9.176,31.256-9.176,47.648V256 h-80.648c0.4-1.52,0.704-3.056,1.136-4.568l4.528-15.848c4.336-15.192,7.888-30.568,10.744-46.072l46.472-18.592l-39.288-39.288 c0.328-5.136,0.6-10.28,0.768-15.424l40.472-30.352l-45.688-18.272c-0.648-1.888-1.296-3.768-2.056-5.608l9.352-56.096 l-48.44,9.688C161.896,5.768,143.624,0,124,0C68.856,0,24,44.856,24,100v18.232c0,12.544,1.752,25.008,5.184,37.048l2.984,10.44 c4.584,16.04,12.912,30.448,24.344,42.28H56c0,30.08-7.536,59.984-21.808,86.472l-21.024,39.04C4.552,349.512,0,367.584,0,385.776 C0,446.552,49.448,496,110.224,496H424c39.704,0,72-32.296,72-72S463.704,352,424,352z M296,247.168 c0-14.344,2.704-28.376,8.032-41.704c4.584-11.464,10.976-22.016,19.008-31.376c19.256-22.472,24.784-49.712,27.656-73.4 c0.496-4.16,6.288-6.12,9.336-2.912C365.992,104.112,376,118.528,376,144c0,10.464-3.608,19.48-7.432,29.024 C364.36,183.568,360,194.464,360,208c0,20.424,3.104,37.632,5.544,48H296V247.168z M384,272c22.056,0,40,17.944,40,40 c0,16.384-9.92,30.456-24.048,36.64L368,316.688L332.688,352h-9.376L288,316.688L252.688,352H232c-2.096,0-4.112-0.304-6.12-0.616 L233.76,312H192c0-13.44,1.352-26.816,3.784-40H384z M380.688,352h-25.376L368,339.312L380.688,352z M300.688,352h-25.376 L288,339.312L300.688,352z M210.696,345.728c-6.712-4.256-12.088-10.392-15.304-17.728h18.848L210.696,345.728z M233.768,165.08 l-14.944,5.976c0.896-6.176,1.704-12.36,2.36-18.56L233.768,165.08z M231.816,90.144l-8.008,6.008 c-0.12-3.216-0.384-6.4-0.808-9.536L231.816,90.144z M206.2,26.12l-2.328,13.968c-3.064-4.072-6.376-7.944-10.008-11.504 L206.2,26.12z M99.376,311.352l-4.256,8.512c-17.296-0.648-33.504-7.2-46.376-18.712c5.128-9.64,9.424-19.688,12.88-30.024 c13.896,9.992,30.272,15.752,47.576,16.64C106.432,295.832,103.184,303.728,99.376,311.352z M113.912,272 c-17.608-0.008-34.24-6.152-47.544-17.376c2.696-11.128,4.472-22.48,5.216-33.928C82.84,228.024,96.12,232,109.608,232h4.784 c1.8,0,3.592-0.088,5.384-0.232C119.224,245.328,117.248,258.832,113.912,272z M40.96,315.664 c13.32,10.944,29.336,17.68,46.432,19.664l-0.4,0.8C82.416,345.28,80,355.528,80,365.752c0,0.76,0.088,1.496,0.112,2.248h-6.176 c-18.728,0-36.344-6.984-50.032-19.616c1.064-2.456,2.088-4.928,3.36-7.28L40.96,315.664z M32.56,439.016 c5.072-0.584,10.128-1.4,15.112-2.52l-3.504-15.616c-6.64,1.488-13.408,2.256-20.2,2.68C18.872,411.976,16,399.216,16,385.776 c0-7.072,0.912-14.104,2.48-20.984C34.248,377.2,53.56,384,73.936,384h8.68c1.696,5.896,4.2,11.44,7.36,16.544 c-9.44,6.632-19.664,12.024-30.576,15.92l5.4,15.064c12.568-4.496,24.328-10.752,35.16-18.472 c7.04,6.896,15.616,12.2,25.152,15.424c-10.104,19.568-27.384,34.512-48.496,41.552l-4.92,1.64 C55.848,464.528,42.312,453.192,32.56,439.016z M96.304,478.856c19.72-10.256,35.496-26.728,44.904-47.112 c1.672,0.128,3.344,0.256,5.04,0.256h29.272c-2.12,18.744-11.672,36.096-26.432,48h-38.864 C105.48,480,100.856,479.536,96.304,478.856z M301.832,448.848c0.976-5.552,1.504-11.2,1.816-16.848H312 c28.152,0,51.456,20.912,55.36,48h-74.84c1.944-4.584,3.736-9.232,5.192-13.992l-15.296-4.688 c-1.968,6.416-4.488,12.68-7.424,18.68h-38.4c6.424-15.2,10.232-31.528,11.16-48h39.888c-0.296,4.728-0.76,9.44-1.584,14.088 L301.832,448.848z M218.976,480h-47.16c11.168-13.576,18.064-30.352,19.704-48h40.008C230.472,448.616,226.288,465.04,218.976,480z M424,480h-40.472C379.536,444.056,349,416,312,416H146.248C118.536,416,96,393.464,96,365.752c0-7.752,1.832-15.52,5.304-22.472 l12.384-24.776c13.92-27.84,21.496-58.856,22.176-89.968c7.944-2.584,15.432-6.528,22.008-11.792 C174.48,203.464,184,183.648,184,162.384h-16c0,16.376-7.336,31.632-20.128,41.864c-9.464,7.584-21.36,11.752-33.48,11.752h-4.784 c-12.128,0-24.016-4.168-33.488-11.744c-13.832-11.056-23.704-25.904-28.56-42.928l-2.984-10.448 C41.536,140.272,40,129.288,40,118.232V100c0-46.32,37.68-84,84-84c39.04,0,71.84,26.808,81.224,62.952l-0.192,0.48l0.352,0.144 C207.032,86.128,208,92.944,208,100c0,44.368-6.176,88.512-18.376,131.184l-4.528,15.848c-6.032,21.136-9.096,43-9.096,64.968 c0,30.872,25.128,56,56,56h104h48h40c30.872,0,56,25.128,56,56S454.872,480,424,480z"></path><path style="fill:#333333;" d="M160,64c-13.232,0-24,10.768-24,24s10.768,24,24,24s24-10.768,24-24S173.232,64,160,64z M160,96 c-4.416,0-8-3.592-8-8s3.584-8,8-8s8,3.592,8,8S164.416,96,160,96z"></path><path style="fill:#333333;" d="M80,64c-13.232,0-24,10.768-24,24s10.768,24,24,24s24-10.768,24-24S93.232,64,80,64z M80,96 c-4.416,0-8-3.592-8-8s3.584-8,8-8s8,3.592,8,8S84.416,96,80,96z"></path></g></svg>