<svg width="24" height="24" viewBox="0 0 24 24" fill="none" xmlns="http://www.w3.org/2000/svg">
<g clip-path="url(#clip0_1_168)">
<g clip-path="url(#clip1_1_168)">
<g clip-path="url(#clip2_1_168)">
<path d="M24.2144 12.5434L21.8625 1.92576C21.776 1.53755 21.5391 1.1995 21.2037 0.985753C20.8683 0.772009 20.4618 0.700033 20.0734 0.785615L9.45592 3.13752C9.26359 3.18012 9.08153 3.26019 8.92014 3.37316C8.75875 3.48612 8.6212 3.62977 8.51533 3.7959C8.40946 3.96203 8.33735 4.14738 8.30312 4.34138C8.26889 4.53538 8.27321 4.73422 8.31583 4.92655L9.30119 9.37499H3.25C2.85231 9.37544 2.47104 9.53361 2.18983 9.81482C1.90863 10.096 1.75045 10.4773 1.75 10.875V21.75C1.75045 22.1477 1.90863 22.5289 2.18983 22.8102C2.47104 23.0914 2.85231 23.2495 3.25 23.25H14.125C14.5227 23.2495 14.904 23.0914 15.1852 22.8102C15.4664 22.5289 15.6246 22.1477 15.625 21.75V15.9823L23.0742 14.3323C23.4624 14.2459 23.8005 14.009 24.0142 13.6736C24.228 13.3382 24.2999 12.9318 24.2144 12.5434ZM14.125 21.75H3.25V10.875H9.63348L10.6677 15.544C10.7416 15.8769 10.9265 16.1747 11.1922 16.3885C11.4578 16.6023 11.7883 16.7192 12.1292 16.7202C12.2394 16.7201 12.3491 16.708 12.4566 16.6842L14.1254 16.3145L14.1259 21.75H14.125ZM22.75 12.8678L12.1322 15.2196L9.78034 4.60199L20.398 2.24999L22.7508 12.8674L22.75 12.8678Z" fill="#019B2C"/>
<path d="M4.75 12.375H6.625V14.25H4.75V12.375ZM4.75 18.375H6.625V20.25H4.75V18.375ZM10.75 18.375H12.625V20.25H10.75V18.375ZM7.75 15.375H9.625V17.25H7.75V15.375ZM11.5682 5.74534L13.3989 5.34015L13.8041 7.17085L11.9734 7.57604L11.5682 5.74534ZM18.7247 10.3027L20.5554 9.8972L20.9609 11.7279L19.1302 12.1333L18.7247 10.3027ZM15.1471 8.02224L16.9777 7.61677L17.3831 9.44738L15.5526 9.85285L15.1471 8.02224Z" fill="#019B2C"/>
</g>
</g>
</g>
<defs>
<clipPath id="clip0_1_168">
<rect width="24" height="24" fill="white"/>
</clipPath>
<clipPath id="clip1_1_168">
<rect width="24" height="24" fill="white"/>
</clipPath>
<clipPath id="clip2_1_168">
<rect width="24" height="24" fill="white" transform="translate(1)"/>
</clipPath>
</defs>
</svg>
