<svg width="32" height="32" viewBox="0 0 32 32" fill="none" xmlns="http://www.w3.org/2000/svg">
<mask id="mask0_1_275" style="mask-type:luminance" maskUnits="userSpaceOnUse" x="2" y="2" width="28" height="28">
<path d="M22.6667 4H9.33333C7.91885 4 6.56229 4.5619 5.5621 5.5621C4.5619 6.56229 4 7.91885 4 9.33333V22.6667C4 24.0812 4.5619 25.4377 5.5621 26.4379C6.56229 27.4381 7.91885 28 9.33333 28H22.6667C24.0812 28 25.4377 27.4381 26.4379 26.4379C27.4381 25.4377 28 24.0812 28 22.6667V9.33333C28 7.91885 27.4381 6.56229 26.4379 5.5621C25.4377 4.5619 24.0812 4 22.6667 4Z" fill="white" stroke="white" stroke-width="4" stroke-linejoin="round"/>
<path d="M16 21.3334C17.4145 21.3334 18.7711 20.7715 19.7713 19.7713C20.7715 18.7711 21.3334 17.4146 21.3334 16.0001C21.3334 14.5856 20.7715 13.229 19.7713 12.2288C18.7711 11.2287 17.4145 10.6667 16 10.6667C14.5855 10.6667 13.229 11.2287 12.2288 12.2288C11.2286 13.229 10.6667 14.5856 10.6667 16.0001C10.6667 17.4146 11.2286 18.7711 12.2288 19.7713C13.229 20.7715 14.5855 21.3334 16 21.3334Z" fill="black" stroke="black" stroke-width="4" stroke-linejoin="round"/>
<path d="M23.3333 9.99992C23.687 9.99992 24.0261 9.85944 24.2761 9.60939C24.5262 9.35935 24.6667 9.02021 24.6667 8.66659C24.6667 8.31296 24.5262 7.97383 24.2761 7.72378C24.0261 7.47373 23.687 7.33325 23.3333 7.33325C22.9797 7.33325 22.6406 7.47373 22.3905 7.72378C22.1405 7.97383 22 8.31296 22 8.66659C22 9.02021 22.1405 9.35935 22.3905 9.60939C22.6406 9.85944 22.9797 9.99992 23.3333 9.99992Z" fill="black"/>
</mask>
<g mask="url(#mask0_1_275)">
<path d="M0 0H32V32H0V0Z" fill="white"/>
</g>
</svg>
