<!-- icon666.com - MILLIONS vector ICONS FREE --><svg version="1.1" id="Capa_1" xmlns="http://www.w3.org/2000/svg" xmlns:xlink="http://www.w3.org/1999/xlink" x="0px" y="0px" viewBox="0 0 512 512" style="enable-background:new 0 0 512 512;" xml:space="preserve"><path style="fill:#FFDC69;" d="M301.86,10h-91.72v56.391c0,25.281,20.495,45.776,45.776,45.776h0.169l0,0 c25.281,0,45.776-20.495,45.776-45.776V10H301.86z"></path><path style="fill:#FE7540;" d="M377.653,238.451c0-32.897-12.734-63.839-35.869-87.195c-7.528-7.599-19.88-8.138-27.618-0.753 c-7.933,7.571-8.045,20.143-0.334,27.855c16.052,16.052,24.892,37.393,24.892,60.094c0,0.227-0.001,0.454-0.003,0.681 c-0.257,32.949-27.303,59.413-60.253,59.413h-44.937c-32.95,0-59.996-26.464-60.253-59.413c-0.002-0.227-0.003-0.454-0.003-0.681 c0-22.701,8.84-44.042,24.892-60.094c7.71-7.711,7.599-20.284-0.334-27.855c-7.738-7.384-20.09-6.846-27.618,0.753 c-23.135,23.356-35.869,54.297-35.869,87.195c0,33.099,12.889,64.217,36.294,87.621L203.523,340v162H256h0.523H309V340 l32.358-13.927C364.763,302.668,377.653,271.55,377.653,238.451z"></path><g><path style="fill:#95EFE8;" d="M146,502H10v-38.758c0-37.555,30.445-68,68-68l0,0c37.555,0,68,30.445,68,68V502z"></path><path style="fill:#95EFE8;" d="M502,502H366v-38.758c0-37.555,30.445-68,68-68l0,0c37.555,0,68,30.445,68,68V502z"></path></g><g><path style="fill:#FFD3AE;" d="M256,205.191L256,205.191c-23.65,0-42.822,19.172-42.822,42.822v7.786 c0,23.65,19.172,42.822,42.822,42.822l0,0c23.65,0,42.822-19.172,42.822-42.822v-7.786C298.822,224.363,279.65,205.191,256,205.191 z"></path><path style="fill:#FFD3AE;" d="M78,312.333L78,312.333c-20.987,0-38,17.013-38,38v6.909c0,20.987,17.013,38,38,38l0,0 c20.987,0,38-17.013,38-38v-6.909C116,329.346,98.987,312.333,78,312.333z"></path><path style="fill:#FFD3AE;" d="M434,312.333L434,312.333c-20.987,0-38,17.013-38,38v6.909c0,20.987,17.013,38,38,38l0,0 c20.987,0,38-17.013,38-38v-6.909C472,329.346,454.987,312.333,434,312.333z"></path></g><path d="M309,427c-5.522,0-10,4.478-10,10v55h-42.477c-0.088,0-0.174,0.011-0.262,0.013C256.174,492.011,256.088,492,256,492 h-42.477V338.121c0-5.522-4.478-10-10-10s-10,4.478-10,10V502c0,5.522,4.478,10,10,10H256c0.088,0,0.174-0.011,0.262-0.013 c0.088,0.002,0.173,0.013,0.262,0.013H309c5.522,0,10-4.478,10-10v-65C319,431.478,314.522,427,309,427z"></path><path d="M309,390.33c-2.63,0-5.21,1.069-7.07,2.93s-2.93,4.44-2.93,7.07s1.069,5.21,2.93,7.069c1.86,1.87,4.44,2.931,7.07,2.931 s5.21-1.061,7.069-2.931c1.86-1.859,2.931-4.439,2.931-7.069s-1.07-5.21-2.931-7.07C314.21,391.399,311.63,390.33,309,390.33z"></path><path d="M309,328.121c-5.522,0-10,4.478-10,10v23.546c0,5.522,4.478,10,10,10s10-4.478,10-10v-23.546 C319,332.599,314.522,328.121,309,328.121z"></path><path d="M348.889,144.219c-11.419-11.528-30.096-11.957-41.626-0.951c-5.794,5.528-9.036,12.979-9.13,20.979 c-0.094,8.001,2.971,15.524,8.628,21.182c14.163,14.162,21.963,32.993,21.963,53.022l-0.002,0.603 c-0.149,19.182-11.339,35.838-27.52,44.049c4.834-7.973,7.621-17.319,7.621-27.304v-7.786c0-29.126-23.696-52.822-52.822-52.822 s-52.822,23.696-52.822,52.822v7.786c0,9.986,2.787,19.332,7.621,27.305c-16.181-8.208-27.372-24.857-27.521-44.016l-0.002-0.636 c0-20.03,7.8-38.86,21.963-53.023c5.657-5.658,8.722-13.18,8.628-21.182c-0.094-8-3.336-15.45-9.13-20.979 c-11.531-11.006-30.205-10.578-41.626,0.951c-24.998,25.236-38.765,58.702-38.765,94.232c0,35.771,13.93,69.399,39.224,94.692 c3.906,3.904,10.236,3.904,14.143,0c3.905-3.905,3.905-10.237,0-14.143c-21.517-21.516-33.366-50.122-33.366-80.55 c0-30.224,11.71-58.691,32.974-80.157c3.804-3.839,9.907-4.089,13.61-0.557c1.864,1.779,2.907,4.174,2.938,6.744 c0.03,2.572-0.954,4.989-2.771,6.806c-17.94,17.94-27.82,41.793-27.82,67.165l0.002,0.759c0.299,38.231,31.813,69.335,70.253,69.335 h19.671c0.927,0.049,1.859,0.075,2.797,0.075s1.871-0.027,2.797-0.075h19.671c38.439,0,69.954-31.104,70.253-69.372l0.002-0.722 c0-25.372-9.88-49.225-27.82-67.165c-1.817-1.817-2.802-4.234-2.771-6.806c0.03-2.569,1.073-4.964,2.938-6.744 c3.702-3.531,9.809-3.282,13.61,0.557c21.264,21.466,32.974,49.933,32.974,80.157c0,30.428-11.85,59.034-33.366,80.55 c-3.905,3.905-3.905,10.237,0,14.143c1.953,1.952,4.512,2.929,7.071,2.929c2.559,0,5.118-0.977,7.071-2.929 c25.294-25.293,39.224-58.922,39.224-94.692C387.653,202.921,373.887,169.455,348.889,144.219z M223.178,248.013 c0-18.098,14.724-32.822,32.822-32.822s32.822,14.724,32.822,32.822v7.786c0,17.388-13.594,31.654-30.711,32.747h-4.223 c-17.117-1.093-30.711-15.358-30.711-32.747v-7.786H223.178z"></path><path d="M110.616,392.416c9.453-8.772,15.384-21.291,15.384-35.173v-6.909c0-26.468-21.532-48-48-48s-48,21.532-48,48v6.909 c0,13.883,5.931,26.401,15.384,35.173C18.623,404.789,0,431.874,0,463.242V502c0,5.522,4.478,10,10,10h136c5.522,0,10-4.478,10-10 v-38.758C156,431.874,137.377,404.789,110.616,392.416z M50,357.242v-6.909c0-15.439,12.561-28,28-28s28,12.561,28,28v6.909 c0,15.439-12.561,28-28,28S50,372.682,50,357.242z M136,492H20v-28.758c0-31.981,26.019-58,58-58s58,26.019,58,58V492z"></path><path d="M466.616,392.416c9.453-8.772,15.384-21.291,15.384-35.173v-6.909c0-26.468-21.532-48-48-48s-48,21.532-48,48v6.909 c0,13.883,5.931,26.401,15.384,35.173C374.623,404.789,356,431.874,356,463.242V502c0,5.522,4.478,10,10,10h136 c5.522,0,10-4.478,10-10v-38.758C512,431.874,493.377,404.789,466.616,392.416z M406,357.242v-6.909c0-15.439,12.561-28,28-28 s28,12.561,28,28v6.909c0,15.439-12.561,28-28,28S406,372.682,406,357.242z M492,492H376v-28.758c0-31.981,26.019-58,58-58 s58,26.019,58,58V492z"></path><path d="M201.911,80.358c5.412,20.911,22.685,37.086,44.177,40.924v19.384h-15.706c-5.522,0-10,4.477-10,10s4.478,10,10,10h51.413 c5.522,0,10-4.477,10-10s-4.478-10-10-10h-15.707V121.25c21.41-3.895,38.603-20.038,44-40.892 c20.136-3.86,35.403-21.597,35.403-42.842V10c0-5.523-4.478-10-10-10H301.86h-91.72h-33.631c-5.522,0-10,4.477-10,10v27.516 C166.509,58.761,181.775,76.498,201.911,80.358z M325.491,37.516c0,9.458-5.585,17.636-13.631,21.409V20h13.631V37.516z M291.86,66.391c0,19.727-16.049,35.776-35.775,35.776h-0.17c-19.727,0-35.775-16.049-35.775-35.776V20h71.721v46.391H291.86z M186.509,20h13.631v38.925c-8.046-3.773-13.631-11.951-13.631-21.409V20z"></path><path d="M466,150.43c5.522,0,10-4.477,10-10V128c0-5.523-4.478-10-10-10s-10,4.477-10,10v12.43 C456,145.953,460.478,150.43,466,150.43z"></path><path d="M466,210c5.522,0,10-4.477,10-10v-12.43c0-5.523-4.478-10-10-10s-10,4.477-10,10V200C456,205.523,460.478,210,466,210z"></path><path d="M489.57,174H502c5.522,0,10-4.477,10-10s-4.478-10-10-10h-12.43c-5.522,0-10,4.477-10,10S484.048,174,489.57,174z"></path><path d="M430,174h12.43c5.522,0,10-4.477,10-10s-4.478-10-10-10H430c-5.522,0-10,4.477-10,10S424.478,174,430,174z"></path><path d="M46,50.43c5.522,0,10-4.477,10-10V28c0-5.523-4.478-10-10-10s-10,4.477-10,10v12.43C36,45.953,40.478,50.43,46,50.43z"></path><path d="M46,110c5.522,0,10-4.477,10-10V87.57c0-5.523-4.478-10-10-10s-10,4.477-10,10V100C36,105.523,40.478,110,46,110z"></path><path d="M69.57,74H82c5.522,0,10-4.477,10-10s-4.478-10-10-10H69.57c-5.522,0-10,4.477-10,10S64.048,74,69.57,74z"></path><path d="M10,74h12.43c5.522,0,10-4.477,10-10s-4.478-10-10-10H10C4.478,54,0,58.477,0,64S4.478,74,10,74z"></path></svg>