<!-- icon666.com - MILLIONS vector ICONS FREE --><svg version="1.1" id="Layer_1" xmlns="http://www.w3.org/2000/svg" xmlns:xlink="http://www.w3.org/1999/xlink" x="0px" y="0px" viewBox="0 0 496.158 496.158" style="enable-background:new 0 0 496.158 496.158;" xml:space="preserve"><path style="fill:#A3D5E0;" d="M248.082,0.003C111.07,0.003,0,111.063,0,248.085c0,137.001,111.07,248.07,248.082,248.07 c137.006,0,248.076-111.069,248.076-248.07C496.158,111.062,385.088,0.003,248.082,0.003z"></path><path style="fill:#4ABC96;" d="M25.336,357.386c40.412,82.193,124.967,138.769,222.746,138.769 c97.775,0,182.328-56.577,222.74-138.769H25.336z"></path><path style="fill:#7F7F7F;" d="M360.561,169.517c-1.933,0-3.5,1.566-3.5,3.5v53.666h-11.333c-1.933,0-3.5,1.567-3.5,3.5 c0,1.934,1.567,3.5,3.5,3.5h14.833c1.933,0,3.5-1.566,3.5-3.5v-57.166C364.061,171.083,362.494,169.517,360.561,169.517z"></path><circle style="fill:#C10505;" cx="360.809" cy="173.269" r="10.75"></circle><path style="fill:#427C99;" d="M342.562,213.183c-3.13,0-3.13,34,0,34c3.129,0,5.666-7.61,5.666-17 C348.228,220.794,345.691,213.183,342.562,213.183z"></path><path style="fill:#EDC92C;" d="M248.079,71.674c-10.28,0-18.601,8.337-18.601,18.619v30.998h37.2V90.293 C266.679,80.011,258.351,71.674,248.079,71.674z"></path><path style="fill:#F37C2A;" d="M248.079,71.674c-10.28,0-18.601,8.337-18.601,18.619v30.998h19.183L248.079,71.674z"></path><g><path style="fill:#F2B42C;" d="M248.078,32.08c-1.84,0-3.332,1.492-3.332,3.333v28.206c0,1.841,1.492,3.333,3.332,3.333 c1.842,0,3.334-1.492,3.334-3.333V35.413C251.412,33.572,249.92,32.08,248.078,32.08z"></path><path style="fill:#F2B42C;" d="M286.908,44.936c-1.302-1.302-3.412-1.301-4.714,0.001L262.25,64.881 c-1.302,1.301-1.302,3.412-0.001,4.713c1.303,1.303,3.413,1.302,4.715,0l19.944-19.944C288.21,48.349,288.21,46.238,286.908,44.936 z"></path><path style="fill:#F2B42C;" d="M301.432,77.433h-28.205c-1.841-0.001-3.334,1.492-3.334,3.332c0,1.842,1.493,3.334,3.334,3.334 h28.205c1.842,0,3.334-1.492,3.334-3.334C304.766,78.925,303.272,77.433,301.432,77.433z"></path><path style="fill:#F2B42C;" d="M222.682,77.433h-28.205c-1.841,0-3.334,1.491-3.334,3.332c0,1.842,1.492,3.334,3.334,3.334h28.205 c1.841,0,3.334-1.492,3.334-3.334C226.016,78.926,224.522,77.433,222.682,77.433z"></path><path style="fill:#F2B42C;" d="M234.158,64.882l-19.944-19.944c-1.302-1.302-3.412-1.303-4.714-0.001s-1.302,3.412,0,4.714 l19.944,19.944c1.302,1.302,3.412,1.303,4.715,0C235.46,68.294,235.46,66.183,234.158,64.882z"></path></g><path style="fill:#334D5C;" d="M330.581,116.548H165.578c-6.587,0-11.927,5.341-11.927,11.928v306.403 c0,6.588,5.34,11.928,11.927,11.928h165.003c6.585,0,11.926-5.34,11.926-11.928V128.475 C342.507,121.889,337.166,116.548,330.581,116.548z"></path><polygon style="fill:#415E6D;" points="342.507,255.186 153.651,255.186 138.48,286.528 357.678,286.528 "></polygon><path style="fill:#334D5C;" d="M138.48,286.72v151.516c0,7.645,6.198,13.844,13.845,13.844h191.508 c7.645,0,13.845-6.199,13.845-13.844V286.72H138.48z"></path><g><path style="fill:#FFFFFF;" d="M262.58,143.474h-29.002c-4.052,0-7.337,3.284-7.337,7.336v64.354c0,4.052,3.285,7.336,7.337,7.336 h29.002c4.053,0,7.337-3.284,7.337-7.336v-64.355C269.917,146.758,266.633,143.474,262.58,143.474z"></path><path style="fill:#FFFFFF;" d="M207.204,143.474h-29.002c-4.052,0-7.336,3.284-7.336,7.336v64.354c0,4.052,3.284,7.336,7.336,7.336 h29.002c4.052,0,7.336-3.284,7.336-7.336v-64.355C214.54,146.758,211.256,143.474,207.204,143.474z"></path><path style="fill:#FFFFFF;" d="M317.957,143.474h-29.002c-4.051,0-7.337,3.284-7.337,7.336v64.354c0,4.052,3.286,7.336,7.337,7.336 h29.002c4.052,0,7.335-3.284,7.335-7.336v-64.355C325.292,146.758,322.009,143.474,317.957,143.474z"></path></g><g><path style="fill:#C10505;" d="M193.935,163.109c-0.343,0-1.99-0.019-4.945-0.055c-2.955-0.037-4.732-0.178-5.332-0.421 c-0.596-0.244-1.019-0.599-1.263-1.063c-0.366-0.708-0.782-1.063-1.245-1.063c-0.415,0-0.85,0.38-1.301,1.136 c-0.452,0.758-1.1,3.041-1.941,6.852c-0.844,3.81-1.265,6.094-1.265,6.851c0,0.732,0.343,1.099,1.026,1.099 c0.365,0,1-0.622,1.904-1.867c1.148-1.613,2.199-2.614,3.152-3.005c0.951-0.391,3.125-0.587,6.52-0.587h12.857l-7.691,13.592 c-2.565,4.592-5.844,12.183-6.601,14.381s-1.136,3.944-1.136,5.238c0,1.368,0.469,2.491,1.41,3.37 c0.939,0.88,2.105,1.319,3.498,1.319c1.93,0,3.277-0.653,4.049-1.96c0.77-1.307,1.227-3.682,1.375-7.126 c0.242-5.251,2.509-14.038,3.56-17.971c1.05-3.932,3.161-8.901,6.337-14.91c0.758-1.465,1.294-2.734,1.612-3.81L193.935,163.109 L193.935,163.109z"></path><path style="fill:#C10505;" d="M305.457,163.109c-0.342,0-1.99-0.019-4.945-0.055c-2.956-0.037-4.732-0.178-5.33-0.421 c-0.598-0.244-1.02-0.599-1.264-1.063c-0.366-0.708-0.783-1.063-1.246-1.063c-0.416,0-0.849,0.38-1.302,1.136 c-0.45,0.758-1.097,3.041-1.94,6.852c-0.843,3.81-1.264,6.094-1.264,6.851c0,0.732,0.34,1.099,1.026,1.099 c0.366,0,1-0.622,1.904-1.867c1.146-1.613,2.198-2.614,3.151-3.005c0.951-0.391,3.127-0.587,6.52-0.587h12.859l-7.692,13.592 c-2.565,4.592-5.846,12.183-6.602,14.381c-0.757,2.198-1.136,3.944-1.136,5.238c0,1.368,0.47,2.491,1.409,3.37 c0.94,0.88,2.105,1.319,3.499,1.319c1.93,0,3.279-0.653,4.048-1.96c0.77-1.307,1.228-3.682,1.374-7.126 c0.245-5.251,2.511-14.038,3.563-17.971c1.049-3.932,3.161-8.901,6.336-14.91c0.757-1.465,1.295-2.734,1.612-3.81L305.457,163.109 L305.457,163.109z"></path><path style="fill:#C10505;" d="M249.631,163.109c-0.341,0-1.99-0.019-4.945-0.055c-2.956-0.037-4.731-0.178-5.33-0.421 c-0.599-0.244-1.02-0.599-1.264-1.063c-0.366-0.708-0.781-1.063-1.244-1.063c-0.416,0-0.851,0.38-1.303,1.136 c-0.451,0.758-1.099,3.041-1.94,6.852c-0.843,3.81-1.265,6.094-1.265,6.851c0,0.732,0.342,1.099,1.026,1.099 c0.366,0,1.001-0.622,1.904-1.867c1.147-1.613,2.2-2.614,3.15-3.005c0.952-0.391,3.128-0.587,6.521-0.587h12.858l-7.693,13.592 c-2.563,4.592-5.842,12.183-6.6,14.381s-1.137,3.944-1.137,5.238c0,1.368,0.471,2.491,1.411,3.37 c0.939,0.88,2.106,1.319,3.498,1.319c1.929,0,3.278-0.653,4.048-1.96c0.771-1.307,1.228-3.682,1.375-7.126 c0.242-5.251,2.508-14.038,3.56-17.971c1.05-3.932,3.163-8.901,6.339-14.91c0.756-1.465,1.293-2.734,1.611-3.81L249.631,163.109 L249.631,163.109z"></path></g><rect x="179.029" y="336.139" style="fill:#1C2D35;" width="141.9" height="71.53"></rect><polygon points="303.051,379.746 197.074,379.746 179.031,407.662 320.933,407.662 "></polygon><path style="fill:#DAC425;" d="M247.019,382.658c-12.784,0-11.621,2.444-11.621,5.459c0,3.016,5.202,5.46,11.621,5.46 c6.421,0,11.623-2.444,11.623-5.46C258.642,385.102,259.965,382.658,247.019,382.658z"></path><ellipse style="fill:#F4E028;" cx="247.019" cy="385.929" rx="11.621" ry="5.459"></ellipse><path style="fill:#F9F29A;" d="M247.019,381.114c-5.375,0-9.732,2.048-9.732,4.572c0,2.525,4.357,4.572,9.732,4.572 c5.378,0,9.736-2.047,9.736-4.572C256.756,383.162,252.397,381.114,247.019,381.114z"></path><path style="fill:none;stroke:#E1C821;stroke-width:0.235;stroke-miterlimit:10;" d="M247.019,381.114 c-5.375,0-9.732,2.048-9.732,4.572c0,2.525,4.357,4.572,9.732,4.572c5.378,0,9.736-2.047,9.736-4.572 C256.756,383.162,252.397,381.114,247.019,381.114z"></path><path style="fill:#F9F29A;" d="M246.246,391.392c-2.324-0.036-4.579-0.599-4.579-0.599l0.018,2.167 c1.849,0.687,4.598,0.616,4.598,0.616L246.246,391.392z"></path><path style="fill:#E1C821;" d="M247.684,385.01c-1.167-0.136-2.003-0.247-2.003-0.658c0-0.358,0.623-0.596,1.639-0.596 c1,0,1.986,0.261,2.564,0.61c0.044,0.032,0.816-0.223,0.816-0.579c0-0.405-0.923-0.802-2.607-0.896v-0.27 c0-0.373-0.243-0.54-0.864-0.54h-0.093c-0.604,0-0.863,0.175-0.863,0.54v0.294c-1.637,0.158-2.669,0.705-2.669,1.467 c0,1.049,1.759,1.325,3.094,1.477c1.106,0.135,2.048,0.254,2.048,0.69c0,0.357-0.623,0.595-1.7,0.595 c-1.183,0-2.304-0.301-2.881-0.666c-0.061-0.033-0.788,0.214-0.788,0.555c0,0.445,1.045,0.881,2.883,0.984v0.294 c0,0.372,0.227,0.539,0.863,0.539h0.076c0.605,0,0.879-0.175,0.879-0.539v-0.31c1.775-0.143,2.838-0.698,2.838-1.5 C250.916,385.462,249.079,385.168,247.684,385.01z"></path><path style="fill:#DAC425;" d="M230.389,380.189c-12.782,0-11.621,2.443-11.621,5.458c0,3.017,5.202,5.461,11.621,5.461 c6.422,0,11.623-2.444,11.623-5.461C242.012,382.633,243.334,380.189,230.389,380.189z"></path><path style="fill:#F4E028;" d="M230.389,378.006c-6.419,0-11.621,2.444-11.621,5.459s5.202,5.459,11.621,5.459 c6.422,0,11.623-2.444,11.623-5.459S236.81,378.006,230.389,378.006z"></path><path style="fill:#F9F29A;" d="M230.389,378.645c-5.375,0-9.732,2.048-9.732,4.573c0,2.524,4.357,4.573,9.732,4.573 c5.378,0,9.733-2.049,9.733-4.573C240.122,380.693,235.767,378.645,230.389,378.645z"></path><path style="fill:none;stroke:#E1C821;stroke-width:0.235;stroke-miterlimit:10;" d="M230.389,378.645 c-5.375,0-9.732,2.048-9.732,4.573c0,2.524,4.357,4.573,9.732,4.573c5.378,0,9.733-2.049,9.733-4.573 C240.122,380.693,235.767,378.645,230.389,378.645z"></path><path style="fill:#F9F29A;" d="M229.615,388.924c-2.324-0.035-4.58-0.599-4.58-0.599l0.018,2.166 c1.85,0.688,4.599,0.617,4.599,0.617L229.615,388.924z"></path><path style="fill:#E1C821;" d="M231.055,382.542c-1.168-0.137-2.002-0.247-2.002-0.659c0-0.357,0.621-0.597,1.639-0.597 c1,0,1.984,0.263,2.563,0.612c0.045,0.031,0.816-0.223,0.816-0.58c0-0.404-0.925-0.802-2.606-0.896v-0.27 c0-0.373-0.243-0.54-0.865-0.54h-0.093c-0.604,0-0.861,0.175-0.861,0.54v0.294c-1.641,0.158-2.67,0.705-2.67,1.467 c0,1.048,1.759,1.326,3.094,1.477c1.105,0.135,2.046,0.254,2.046,0.69c0,0.357-0.62,0.596-1.698,0.596 c-1.183,0-2.305-0.302-2.882-0.667c-0.059-0.031-0.787,0.214-0.787,0.555c0,0.445,1.044,0.881,2.881,0.984v0.293 c0,0.373,0.227,0.54,0.865,0.54h0.075c0.605,0,0.88-0.175,0.88-0.54v-0.309c1.773-0.144,2.835-0.698,2.835-1.5 C234.283,382.993,232.448,382.699,231.055,382.542z"></path><path style="fill:#DAC425;" d="M216.334,382.672c-12.784,0-11.624,2.444-11.624,5.459c0,3.016,5.204,5.46,11.624,5.46 c6.419,0,11.622-2.444,11.622-5.46C227.956,385.116,229.276,382.672,216.334,382.672z"></path><ellipse style="fill:#F4E028;" cx="216.329" cy="385.949" rx="11.624" ry="5.459"></ellipse><ellipse style="fill:#F9F29A;" cx="216.329" cy="385.699" rx="9.736" ry="4.573"></ellipse><ellipse style="fill:none;stroke:#E1C821;stroke-width:0.235;stroke-miterlimit:10;" cx="216.329" cy="385.699" rx="9.736" ry="4.573"></ellipse><path style="fill:#F9F29A;" d="M215.558,391.407c-2.323-0.036-4.579-0.6-4.579-0.6l0.019,2.166c1.849,0.688,4.595,0.617,4.595,0.617 L215.558,391.407z"></path><path style="fill:#E1C821;" d="M216.997,385.023c-1.167-0.135-2.002-0.247-2.002-0.658c0-0.357,0.622-0.596,1.639-0.596 c0.999,0,1.987,0.262,2.563,0.611c0.043,0.032,0.816-0.222,0.816-0.579c0-0.405-0.924-0.802-2.607-0.897v-0.269 c0-0.374-0.243-0.541-0.864-0.541h-0.093c-0.604,0-0.863,0.175-0.863,0.541v0.294c-1.639,0.157-2.671,0.705-2.671,1.467 c0,1.047,1.761,1.325,3.096,1.476c1.108,0.135,2.046,0.255,2.046,0.691c0,0.356-0.621,0.595-1.697,0.595 c-1.184,0-2.306-0.302-2.881-0.666c-0.062-0.032-0.79,0.214-0.79,0.555c0,0.444,1.046,0.881,2.882,0.984v0.293 c0,0.372,0.228,0.539,0.865,0.539h0.076c0.607,0,0.879-0.175,0.879-0.539v-0.309c1.774-0.144,2.837-0.698,2.837-1.501 C220.227,385.475,218.392,385.183,216.997,385.023z"></path><path style="fill:#DAC425;" d="M202.379,382.874c-12.784,0-11.621,2.444-11.621,5.459c0,3.016,5.203,5.46,11.621,5.46 c6.419,0,11.624-2.444,11.624-5.46C214.003,385.318,215.324,382.874,202.379,382.874z"></path><ellipse style="fill:#F4E028;" cx="202.379" cy="386.149" rx="11.621" ry="5.459"></ellipse><path style="fill:#F9F29A;" d="M202.379,381.331c-5.375,0-9.732,2.047-9.732,4.572c0,2.524,4.357,4.573,9.732,4.573 c5.378,0,9.734-2.049,9.734-4.573C212.113,383.378,207.757,381.331,202.379,381.331z"></path><path style="fill:none;stroke:#E1C821;stroke-width:0.235;stroke-miterlimit:10;" d="M202.379,381.331 c-5.375,0-9.732,2.047-9.732,4.572c0,2.524,4.357,4.573,9.732,4.573c5.378,0,9.734-2.049,9.734-4.573 C212.113,383.378,207.757,381.331,202.379,381.331z"></path><path style="fill:#F9F29A;" d="M201.605,391.608c-2.325-0.035-4.579-0.599-4.579-0.599l0.019,2.166 c1.849,0.687,4.597,0.617,4.597,0.617L201.605,391.608z"></path><path style="fill:#E1C821;" d="M203.044,385.226c-1.169-0.136-2.002-0.248-2.002-0.658c0-0.358,0.621-0.597,1.639-0.597 c1,0,1.987,0.263,2.562,0.611c0.046,0.031,0.819-0.222,0.819-0.58c0-0.404-0.925-0.802-2.608-0.896v-0.269 c0-0.373-0.244-0.541-0.865-0.541h-0.09c-0.606,0-0.865,0.176-0.865,0.541v0.294c-1.639,0.158-2.67,0.705-2.67,1.468 c0,1.047,1.761,1.324,3.096,1.476c1.106,0.135,2.047,0.254,2.047,0.689c0,0.357-0.623,0.596-1.701,0.596 c-1.183,0-2.302-0.301-2.88-0.667c-0.062-0.031-0.788,0.215-0.788,0.556c0,0.444,1.046,0.88,2.881,0.983v0.294 c0,0.373,0.228,0.539,0.865,0.539h0.077c0.605,0,0.878-0.175,0.878-0.539v-0.309c1.774-0.144,2.837-0.699,2.837-1.5 C206.274,385.678,204.439,385.384,203.044,385.226z"></path><path style="fill:#DAC425;" d="M300.81,382.551c-12.785,0-11.621,2.443-11.621,5.458c0,3.016,5.203,5.46,11.621,5.46 c6.42,0,11.623-2.444,11.623-5.46C312.433,384.994,313.755,382.551,300.81,382.551z"></path><ellipse style="fill:#F4E028;" cx="300.809" cy="385.829" rx="11.621" ry="5.459"></ellipse><ellipse style="fill:#F9F29A;" cx="300.809" cy="385.579" rx="9.733" ry="4.573"></ellipse><ellipse style="fill:none;stroke:#E1C821;stroke-width:0.235;stroke-miterlimit:10;" cx="300.809" cy="385.579" rx="9.733" ry="4.573"></ellipse><path style="fill:#F9F29A;" d="M300.037,391.284c-2.324-0.035-4.58-0.599-4.58-0.599l0.019,2.167 c1.849,0.687,4.597,0.616,4.597,0.616L300.037,391.284z"></path><path style="fill:#E1C821;" d="M301.475,384.901c-1.167-0.136-2.002-0.247-2.002-0.659c0-0.357,0.622-0.596,1.637-0.596 c1.002,0,1.988,0.262,2.565,0.611c0.045,0.033,0.817-0.222,0.817-0.579c0-0.404-0.924-0.802-2.607-0.896v-0.27 c0-0.373-0.244-0.54-0.864-0.54h-0.093c-0.604,0-0.863,0.175-0.863,0.54v0.294c-1.637,0.158-2.67,0.705-2.67,1.467 c0,1.048,1.761,1.326,3.094,1.477c1.107,0.135,2.049,0.254,2.049,0.69c0,0.357-0.622,0.596-1.7,0.596 c-1.182,0-2.303-0.302-2.881-0.666c-0.062-0.033-0.788,0.213-0.788,0.555c0,0.444,1.045,0.88,2.88,0.983v0.293 c0,0.373,0.23,0.54,0.866,0.54h0.076c0.605,0,0.879-0.175,0.879-0.54v-0.309c1.776-0.143,2.838-0.698,2.838-1.5 C304.707,385.353,302.871,385.06,301.475,384.901z"></path><path style="fill:#DAC425;" d="M268.153,379.561c-12.784,0-11.622,2.444-11.622,5.459c0,3.016,5.203,5.46,11.622,5.46 s11.622-2.444,11.622-5.46C279.775,382.006,281.098,379.561,268.153,379.561z"></path><ellipse style="fill:#F4E028;" cx="268.149" cy="382.839" rx="11.622" ry="5.459"></ellipse><ellipse style="fill:#F9F29A;" cx="268.149" cy="382.589" rx="9.734" ry="4.573"></ellipse><ellipse style="fill:none;stroke:#E1C821;stroke-width:0.235;stroke-miterlimit:10;" cx="268.149" cy="382.589" rx="9.734" ry="4.573"></ellipse><path style="fill:#F9F29A;" d="M267.378,388.297c-2.324-0.036-4.58-0.6-4.58-0.6l0.019,2.166c1.85,0.687,4.597,0.617,4.597,0.617 L267.378,388.297z"></path><path style="fill:#E1C821;" d="M268.816,381.913c-1.166-0.136-2.002-0.247-2.002-0.658c0-0.357,0.623-0.597,1.641-0.597 c1,0,1.986,0.263,2.563,0.612c0.043,0.032,0.816-0.223,0.816-0.58c0-0.404-0.925-0.802-2.607-0.896v-0.269 c0-0.374-0.242-0.541-0.864-0.541h-0.091c-0.606,0-0.864,0.175-0.864,0.541v0.293c-1.64,0.158-2.671,0.706-2.671,1.468 c0,1.047,1.76,1.324,3.096,1.476c1.106,0.135,2.047,0.254,2.047,0.69c0,0.357-0.622,0.596-1.7,0.596 c-1.183,0-2.305-0.303-2.881-0.666c-0.06-0.033-0.787,0.213-0.787,0.555c0,0.444,1.044,0.881,2.879,0.983v0.294 c0,0.372,0.229,0.539,0.866,0.539h0.076c0.606,0,0.879-0.175,0.879-0.539v-0.31c1.775-0.144,2.837-0.698,2.837-1.5 C272.048,382.365,270.211,382.072,268.816,381.913z"></path><path style="fill:#DAC425;" d="M263.353,383.007c-12.783,0-11.621,2.445-11.621,5.46s5.202,5.459,11.621,5.459 s11.624-2.444,11.624-5.459S276.299,383.007,263.353,383.007z"></path><ellipse style="fill:#F4E028;" cx="263.349" cy="386.279" rx="11.621" ry="5.459"></ellipse><ellipse style="fill:#F9F29A;" cx="263.349" cy="386.039" rx="9.734" ry="4.573"></ellipse><ellipse style="fill:none;stroke:#E1C821;stroke-width:0.235;stroke-miterlimit:10;" cx="263.349" cy="386.039" rx="9.734" ry="4.573"></ellipse><path style="fill:#F9F29A;" d="M262.58,391.742c-2.324-0.035-4.58-0.599-4.58-0.599l0.019,2.166 c1.849,0.687,4.599,0.616,4.599,0.616L262.58,391.742z"></path><path style="fill:#E1C821;" d="M264.017,385.359c-1.166-0.135-2.001-0.247-2.001-0.659c0-0.357,0.621-0.596,1.638-0.596 c1.002,0,1.987,0.262,2.564,0.611c0.043,0.031,0.816-0.223,0.816-0.58c0-0.403-0.924-0.802-2.608-0.896v-0.269 c0-0.373-0.242-0.54-0.865-0.54h-0.089c-0.605,0-0.867,0.176-0.867,0.54v0.294c-1.637,0.158-2.67,0.705-2.67,1.468 c0,1.047,1.763,1.324,3.098,1.476c1.106,0.135,2.047,0.254,2.047,0.689c0,0.357-0.621,0.596-1.7,0.596 c-1.184,0-2.305-0.301-2.882-0.666c-0.06-0.032-0.785,0.214-0.785,0.555c0,0.444,1.044,0.88,2.877,0.983v0.294 c0,0.373,0.229,0.539,0.867,0.539h0.076c0.606,0,0.878-0.174,0.878-0.539v-0.309c1.775-0.144,2.837-0.698,2.837-1.5 C267.248,385.81,265.413,385.517,264.017,385.359z"></path><path style="fill:#DAC425;" d="M282.595,384.122c-12.784,0-11.622,2.444-11.622,5.458c0,3.017,5.203,5.461,11.622,5.461 c6.418,0,11.622-2.444,11.622-5.461C294.217,386.566,295.54,384.122,282.595,384.122z"></path><ellipse style="fill:#F4E028;" cx="282.599" cy="387.399" rx="11.622" ry="5.459"></ellipse><ellipse style="fill:#F9F29A;" cx="282.599" cy="387.149" rx="9.734" ry="4.573"></ellipse><ellipse style="fill:none;stroke:#E1C821;stroke-width:0.235;stroke-miterlimit:10;" cx="282.599" cy="387.149" rx="9.734" ry="4.573"></ellipse><path style="fill:#F9F29A;" d="M281.819,392.856c-2.324-0.036-4.58-0.599-4.58-0.599l0.019,2.166 c1.851,0.687,4.597,0.617,4.597,0.617L281.819,392.856z"></path><path style="fill:#E1C821;" d="M283.259,386.474c-1.169-0.136-2.001-0.247-2.001-0.658c0-0.358,0.619-0.596,1.637-0.596 c1,0,1.987,0.262,2.563,0.61c0.046,0.031,0.818-0.222,0.818-0.579c0-0.405-0.925-0.802-2.607-0.896v-0.27 c0-0.373-0.242-0.54-0.865-0.54h-0.092c-0.604,0-0.862,0.175-0.862,0.54v0.294c-1.639,0.158-2.671,0.706-2.671,1.468 c0,1.047,1.76,1.325,3.094,1.476c1.107,0.136,2.048,0.254,2.048,0.689c0,0.358-0.621,0.597-1.697,0.597 c-1.185,0-2.306-0.302-2.883-0.667c-0.06-0.031-0.787,0.215-0.787,0.556c0,0.444,1.045,0.88,2.881,0.983v0.294 c0,0.373,0.226,0.539,0.864,0.539h0.074c0.607,0,0.88-0.175,0.88-0.539v-0.31c1.774-0.143,2.838-0.698,2.838-1.499 C286.489,386.926,284.654,386.632,283.259,386.474z"></path><path style="fill:#DAC425;" d="M246.256,392.012c-12.784,0-11.622,2.445-11.622,5.46c0,3.016,5.204,5.46,11.622,5.46 c6.42,0,11.623-2.444,11.623-5.46C257.879,394.457,259.2,392.012,246.256,392.012z"></path><ellipse style="fill:#F4E028;" cx="246.259" cy="395.289" rx="11.622" ry="5.459"></ellipse><ellipse style="fill:#F9F29A;" cx="246.259" cy="395.039" rx="9.732" ry="4.573"></ellipse><ellipse style="fill:none;stroke:#E1C821;stroke-width:0.235;stroke-miterlimit:10;" cx="246.259" cy="395.039" rx="9.732" ry="4.573"></ellipse><path style="fill:#F9F29A;" d="M245.481,400.747c-2.323-0.036-4.579-0.599-4.579-0.599l0.018,2.166 c1.85,0.688,4.598,0.617,4.598,0.617L245.481,400.747z"></path><path style="fill:#E1C821;" d="M246.921,394.364c-1.169-0.136-2.003-0.247-2.003-0.659c0-0.357,0.622-0.596,1.638-0.596 c1.001,0,1.987,0.262,2.563,0.611c0.046,0.032,0.819-0.223,0.819-0.578c0-0.405-0.925-0.803-2.608-0.897v-0.27 c0-0.373-0.244-0.54-0.864-0.54h-0.093c-0.604,0-0.863,0.175-0.863,0.54v0.294c-1.637,0.158-2.669,0.705-2.669,1.467 c0,1.048,1.76,1.325,3.093,1.477c1.107,0.135,2.049,0.254,2.049,0.689c0,0.358-0.623,0.596-1.7,0.596 c-1.183,0-2.304-0.301-2.882-0.665c-0.061-0.033-0.787,0.213-0.787,0.554c0,0.445,1.045,0.881,2.881,0.983v0.294 c0,0.373,0.229,0.54,0.865,0.54h0.076c0.605,0,0.879-0.175,0.879-0.54v-0.31c1.775-0.143,2.839-0.698,2.839-1.499 C250.153,394.816,248.315,394.523,246.921,394.364z"></path><path style="fill:#DAC425;" d="M229.996,390.822c-12.785,0-11.623,2.445-11.623,5.459c0,3.016,5.203,5.461,11.623,5.461 s11.621-2.445,11.621-5.461C241.617,393.267,242.939,390.822,229.996,390.822z"></path><ellipse style="fill:#F4E028;" cx="229.999" cy="394.099" rx="11.623" ry="5.459"></ellipse><ellipse style="fill:#F9F29A;" cx="229.999" cy="393.849" rx="9.734" ry="4.573"></ellipse><ellipse style="fill:none;stroke:#E1C821;stroke-width:0.235;stroke-miterlimit:10;" cx="229.999" cy="393.849" rx="9.734" ry="4.573"></ellipse><path style="fill:#F9F29A;" d="M229.221,399.558c-2.324-0.035-4.58-0.599-4.58-0.599l0.018,2.166 c1.85,0.687,4.598,0.617,4.598,0.617L229.221,399.558z"></path><path style="fill:#E1C821;" d="M230.658,393.175c-1.166-0.136-1.999-0.247-1.999-0.658c0-0.357,0.619-0.597,1.638-0.597 c1,0,1.986,0.263,2.563,0.612c0.045,0.031,0.816-0.223,0.816-0.58c0-0.404-0.923-0.802-2.605-0.897v-0.269 c0-0.373-0.244-0.54-0.866-0.54h-0.091c-0.605,0-0.864,0.175-0.864,0.54v0.294c-1.64,0.158-2.669,0.705-2.669,1.467 c0,1.048,1.758,1.325,3.094,1.478c1.107,0.134,2.047,0.253,2.047,0.689c0,0.357-0.621,0.596-1.699,0.596 c-1.184,0-2.304-0.302-2.88-0.667c-0.061-0.031-0.789,0.214-0.789,0.556c0,0.445,1.044,0.88,2.881,0.983v0.294 c0,0.373,0.228,0.539,0.865,0.539h0.075c0.607,0,0.881-0.175,0.881-0.539v-0.31c1.773-0.143,2.835-0.698,2.835-1.499 C233.89,393.627,232.053,393.333,230.658,393.175z"></path><path style="fill:#DAC425;" d="M213.6,389.024c-12.784,0-11.623,2.444-11.623,5.459s5.202,5.46,11.623,5.46 c6.418,0,11.622-2.445,11.622-5.46S226.543,389.024,213.6,389.024z"></path><ellipse style="fill:#F4E028;" cx="213.599" cy="392.299" rx="11.623" ry="5.459"></ellipse><ellipse style="fill:#F9F29A;" cx="213.599" cy="392.049" rx="9.734" ry="4.573"></ellipse><ellipse style="fill:none;stroke:#E1C821;stroke-width:0.235;stroke-miterlimit:10;" cx="213.599" cy="392.049" rx="9.734" ry="4.573"></ellipse><path style="fill:#F9F29A;" d="M212.823,397.759c-2.323-0.035-4.579-0.599-4.579-0.599l0.018,2.166 c1.85,0.687,4.598,0.617,4.598,0.617L212.823,397.759z"></path><path style="fill:#E1C821;" d="M214.263,391.376c-1.167-0.136-2.002-0.248-2.002-0.659c0-0.357,0.621-0.596,1.64-0.596 c0.999,0,1.985,0.262,2.563,0.612c0.044,0.031,0.815-0.223,0.815-0.58c0-0.404-0.923-0.802-2.605-0.896v-0.27 c0-0.373-0.244-0.54-0.866-0.54h-0.09c-0.605,0-0.865,0.175-0.865,0.54v0.294c-1.639,0.158-2.67,0.705-2.67,1.468 c0,1.046,1.759,1.324,3.096,1.476c1.107,0.135,2.047,0.254,2.047,0.69c0,0.357-0.623,0.595-1.699,0.595 c-1.184,0-2.305-0.302-2.881-0.666c-0.062-0.032-0.789,0.214-0.789,0.556c0,0.443,1.046,0.88,2.881,0.982v0.294 c0,0.373,0.228,0.539,0.865,0.539h0.076c0.607,0,0.879-0.174,0.879-0.539v-0.309c1.774-0.144,2.837-0.698,2.837-1.501 C217.493,391.827,215.656,391.534,214.263,391.376z"></path><path style="fill:#DAC425;" d="M201.615,392.228c-12.783,0-11.621,2.444-11.621,5.459c0,3.016,5.203,5.46,11.621,5.46 c6.419,0,11.625-2.444,11.625-5.46C213.24,394.673,214.559,392.228,201.615,392.228z"></path><ellipse style="fill:#F4E028;" cx="201.619" cy="395.509" rx="11.621" ry="5.459"></ellipse><ellipse style="fill:#F9F29A;" cx="201.619" cy="395.259" rx="9.734" ry="4.573"></ellipse><ellipse style="fill:none;stroke:#E1C821;stroke-width:0.235;stroke-miterlimit:10;" cx="201.619" cy="395.259" rx="9.734" ry="4.573"></ellipse><path style="fill:#F9F29A;" d="M200.842,400.964c-2.325-0.036-4.58-0.6-4.58-0.6l0.019,2.166c1.849,0.687,4.597,0.617,4.597,0.617 L200.842,400.964z"></path><path style="fill:#E1C821;" d="M202.28,394.58c-1.169-0.135-2.002-0.247-2.002-0.658c0-0.357,0.621-0.596,1.639-0.596 c1,0,1.987,0.262,2.562,0.611c0.046,0.031,0.819-0.223,0.819-0.58c0-0.403-0.925-0.802-2.608-0.896v-0.271 c0-0.372-0.244-0.539-0.865-0.539h-0.09c-0.607,0-0.865,0.175-0.865,0.539v0.295c-1.639,0.157-2.671,0.705-2.671,1.467 c0,1.047,1.761,1.325,3.097,1.476c1.106,0.136,2.046,0.255,2.046,0.69c0,0.357-0.621,0.596-1.699,0.596 c-1.183,0-2.304-0.301-2.882-0.666c-0.061-0.032-0.787,0.214-0.787,0.555c0,0.444,1.046,0.88,2.88,0.983v0.294 c0,0.372,0.229,0.539,0.865,0.539h0.077c0.606,0,0.879-0.175,0.879-0.539v-0.309c1.775-0.144,2.837-0.699,2.837-1.5 C205.511,395.033,203.676,394.739,202.28,394.58z"></path><path style="fill:#DAC425;" d="M300.918,392.452c-12.786,0-11.623,2.444-11.623,5.459c0,3.016,5.205,5.46,11.623,5.46 c6.419,0,11.622-2.444,11.622-5.46C312.54,394.896,313.861,392.452,300.918,392.452z"></path><ellipse style="fill:#F4E028;" cx="300.919" cy="395.729" rx="11.623" ry="5.459"></ellipse><ellipse style="fill:#F9F29A;" cx="300.919" cy="395.479" rx="9.734" ry="4.573"></ellipse><ellipse style="fill:none;stroke:#E1C821;stroke-width:0.235;stroke-miterlimit:10;" cx="300.919" cy="395.479" rx="9.734" ry="4.573"></ellipse><path style="fill:#F9F29A;" d="M300.144,401.186c-2.325-0.036-4.58-0.6-4.58-0.6l0.018,2.168c1.849,0.687,4.597,0.616,4.597,0.616 L300.144,401.186z"></path><path style="fill:#E1C821;" d="M301.582,394.804c-1.168-0.137-2.002-0.247-2.002-0.659c0-0.357,0.621-0.596,1.638-0.596 c1,0,1.987,0.262,2.563,0.611c0.045,0.032,0.819-0.223,0.819-0.579c0-0.405-0.925-0.802-2.608-0.896v-0.27 c0-0.373-0.244-0.54-0.865-0.54h-0.092c-0.605,0-0.863,0.175-0.863,0.54v0.294c-1.638,0.157-2.67,0.705-2.67,1.467 c0,1.048,1.76,1.325,3.094,1.476c1.107,0.136,2.048,0.256,2.048,0.69c0,0.357-0.621,0.596-1.7,0.596 c-1.182,0-2.303-0.301-2.88-0.665c-0.062-0.033-0.79,0.213-0.79,0.554c0,0.445,1.046,0.881,2.883,0.983v0.294 c0,0.373,0.229,0.54,0.865,0.54h0.076c0.605,0,0.877-0.176,0.877-0.54v-0.31c1.777-0.142,2.839-0.698,2.839-1.499 C304.813,395.255,302.976,394.962,301.582,394.804z"></path><path style="fill:#DAC425;" d="M282.702,394.024c-12.784,0-11.624,2.443-11.624,5.458c0,3.016,5.203,5.46,11.624,5.46 c6.419,0,11.621-2.444,11.621-5.46C294.323,396.468,295.646,394.024,282.702,394.024z"></path><ellipse style="fill:#F4E028;" cx="282.699" cy="397.299" rx="11.624" ry="5.459"></ellipse><ellipse style="fill:#F9F29A;" cx="282.699" cy="397.059" rx="9.734" ry="4.573"></ellipse><ellipse style="fill:none;stroke:#E1C821;stroke-width:0.235;stroke-miterlimit:10;" cx="282.699" cy="397.059" rx="9.734" ry="4.573"></ellipse><path style="fill:#F9F29A;" d="M281.926,402.759c-2.323-0.036-4.579-0.6-4.579-0.6l0.018,2.167c1.851,0.687,4.599,0.616,4.599,0.616 L281.926,402.759z"></path><path style="fill:#E1C821;" d="M283.365,396.376c-1.167-0.136-2.001-0.248-2.001-0.659c0-0.357,0.621-0.596,1.638-0.596 c1,0,1.987,0.262,2.563,0.611c0.044,0.032,0.816-0.223,0.816-0.58c0-0.404-0.925-0.801-2.607-0.896v-0.27 c0-0.373-0.243-0.539-0.864-0.539h-0.091c-0.606,0-0.863,0.174-0.863,0.539v0.295c-1.64,0.157-2.671,0.704-2.671,1.467 c0,1.047,1.76,1.325,3.094,1.477c1.108,0.135,2.047,0.253,2.047,0.689c0,0.357-0.621,0.597-1.697,0.597 c-1.184,0-2.305-0.303-2.883-0.668c-0.061-0.031-0.787,0.214-0.787,0.556c0,0.445,1.046,0.88,2.882,0.984v0.293 c0,0.374,0.226,0.54,0.864,0.54h0.074c0.608,0,0.881-0.176,0.881-0.54v-0.31c1.773-0.143,2.837-0.698,2.837-1.5 C286.597,396.828,284.76,396.534,283.365,396.376z"></path><path style="fill:#DAC425;" d="M268.26,389.464c-12.783,0-11.621,2.444-11.621,5.459c0,3.016,5.201,5.459,11.621,5.459 s11.623-2.443,11.623-5.459C279.883,391.908,281.204,389.464,268.26,389.464z"></path><ellipse style="fill:#F4E028;" cx="268.259" cy="392.739" rx="11.621" ry="5.459"></ellipse><ellipse style="fill:#F9F29A;" cx="268.259" cy="392.489" rx="9.733" ry="4.573"></ellipse><ellipse style="fill:none;stroke:#E1C821;stroke-width:0.235;stroke-miterlimit:10;" cx="268.259" cy="392.489" rx="9.733" ry="4.573"></ellipse><path style="fill:#F9F29A;" d="M267.486,398.198c-2.325-0.035-4.58-0.599-4.58-0.599l0.017,2.166 c1.851,0.687,4.597,0.616,4.597,0.616L267.486,398.198z"></path><path style="fill:#E1C821;" d="M268.923,391.815c-1.165-0.136-2.002-0.248-2.002-0.658c0-0.358,0.623-0.597,1.64-0.597 c1,0,1.986,0.262,2.564,0.611c0.043,0.032,0.816-0.222,0.816-0.58c0-0.403-0.924-0.801-2.607-0.896v-0.27 c0-0.373-0.244-0.541-0.865-0.541h-0.091c-0.604,0-0.864,0.176-0.864,0.541v0.294c-1.639,0.158-2.67,0.705-2.67,1.468 c0,1.046,1.759,1.324,3.094,1.476c1.107,0.135,2.048,0.254,2.048,0.689c0,0.357-0.622,0.596-1.699,0.596 c-1.184,0-2.306-0.301-2.88-0.666c-0.061-0.032-0.789,0.213-0.789,0.555c0,0.444,1.045,0.881,2.881,0.983v0.294 c0,0.373,0.228,0.539,0.865,0.539h0.074c0.607,0,0.881-0.174,0.881-0.539v-0.309c1.774-0.144,2.837-0.698,2.837-1.5 C272.155,392.267,270.318,391.974,268.923,391.815z"></path><g><path style="fill:#F4E028;" d="M256.277,392.668c-12.783,0-11.621,2.444-11.621,5.46c0,3.015,5.203,5.459,11.621,5.459 c6.419,0,11.624-2.444,11.624-5.459C267.901,395.112,269.222,392.668,256.277,392.668z"></path><ellipse style="fill:#F4E028;" cx="256.279" cy="395.949" rx="11.621" ry="5.459"></ellipse></g><ellipse style="fill:#F9F29A;" cx="256.279" cy="395.699" rx="9.734" ry="4.573"></ellipse><ellipse style="fill:none;stroke:#E1C821;stroke-width:0.235;stroke-miterlimit:10;" cx="256.279" cy="395.699" rx="9.734" ry="4.573"></ellipse><path style="fill:#F9F29A;" d="M255.504,401.403c-2.325-0.036-4.579-0.6-4.579-0.6l0.018,2.166c1.849,0.688,4.598,0.617,4.598,0.617 L255.504,401.403z"></path><path style="fill:#E1C821;" d="M256.941,395.02c-1.168-0.136-2.003-0.247-2.003-0.659c0-0.357,0.622-0.596,1.64-0.596 c1,0,1.986,0.262,2.563,0.611c0.044,0.031,0.818-0.223,0.818-0.58c0-0.403-0.926-0.802-2.608-0.896v-0.271 c0-0.372-0.244-0.539-0.865-0.539h-0.09c-0.606,0-0.865,0.175-0.865,0.539v0.295c-1.638,0.157-2.67,0.705-2.67,1.467 c0,1.048,1.76,1.324,3.095,1.476c1.106,0.135,2.048,0.254,2.048,0.69c0,0.357-0.622,0.596-1.7,0.596 c-1.183,0-2.304-0.302-2.883-0.667c-0.06-0.031-0.785,0.214-0.785,0.556c0,0.444,1.045,0.88,2.879,0.983v0.294 c0,0.373,0.229,0.539,0.865,0.539h0.076c0.606,0,0.879-0.175,0.879-0.539v-0.309c1.776-0.145,2.838-0.699,2.838-1.5 C260.173,395.472,258.337,395.178,256.941,395.02z"></path></svg>